<?xml version="1.0" standalone="no"?>
<!DOCTYPE svg PUBLIC "-//W3C//DTD SVG 1.1//EN" "http://www.w3.org/Graphics/SVG/1.1/DTD/svg11.dtd" >
<svg>
<metadata>
Created by FontForge 20120731 at Thu Sep  1 11:05:21 2016
 By www-data
Copyright (c) 2015 Quote-Unquote Apps.
</metadata>
<defs>
<font id="CourierPrimeSans-Bold" horiz-adv-x="1228" >
  <font-face 
    font-family="Courier Prime Sans"
    font-weight="700"
    font-stretch="normal"
    units-per-em="2048"
    panose-1="0 0 8 9 0 0 0 0 0 0"
    ascent="1638"
    descent="-410"
    x-height="924"
    cap-height="1187"
    bbox="-793 -838 3250 1827"
    underline-thickness="180"
    underline-position="-40"
    unicode-range="U+0020-FB02"
  />
<missing-glyph horiz-adv-x="1032" 
d="M846 -643h-654v2064h654v-2064zM347 1283v-68h134v-77h-136v-68h343v68h-137v77h137v68h-341zM345 1016v-214h343v70h-137v144h-206zM481 872h-68v74h68v-74zM345 746v-68h136v-76h-136v-69h206v145h137v68h-343zM620 622v-136h-275v-70h343v206h-68zM481 370v-115h70v47
h69v-97h-207v165h-68v-233h343v233h-207zM345 13v-233h343v233h-343zM619 -152h-206v97h206v-97zM345 -267v-68h144l-144 -97v-69h343v69h-211l145 97h66v68h-343z" />
    <glyph glyph-name=".notdef" horiz-adv-x="1032" 
d="M846 -643h-654v2064h654v-2064zM347 1283v-68h134v-77h-136v-68h343v68h-137v77h137v68h-341zM345 1016v-214h343v70h-137v144h-206zM481 872h-68v74h68v-74zM345 746v-68h136v-76h-136v-69h206v145h137v68h-343zM620 622v-136h-275v-70h343v206h-68zM481 370v-115h70v47
h69v-97h-207v165h-68v-233h343v233h-207zM345 13v-233h343v233h-343zM619 -152h-206v97h206v-97zM345 -267v-68h144l-144 -97v-69h343v69h-211l145 97h66v68h-343z" />
    <glyph glyph-name="space" unicode=" " 
 />
    <glyph glyph-name="A" unicode="A" 
d="M1151 71q0 -25 -24 -43t-78 -30q-51 -12 -82 -12q-28 0 -44 10t-24 31l-69 193h-438l-71 -193q-8 -21 -24.5 -31t-43.5 -10q-30 0 -81 12q-54 12 -77.5 30t-23.5 42q0 12 6 27l399 1047q14 36 46 50.5t97 14.5t96.5 -15t44.5 -50l386 -1047q5 -11 5 -26zM471 455h284
l-138 410h-4z" />
    <glyph glyph-name="Aacute" unicode="&#xc1;" 
d="M506 1291q-36 0 -68 51q-22 35 -22 63t21 43l347 255q16 11 33 11q46 0 103 -75q40 -54 40 -93q0 -32 -24 -44l-407 -205q-11 -6 -23 -6zM1151 71q0 -25 -24 -43t-78 -30q-51 -12 -82 -12q-28 0 -44 10t-24 31l-69 193h-438l-71 -193q-8 -21 -24.5 -31t-43.5 -10
q-30 0 -81 12q-54 12 -77.5 30t-23.5 42q0 12 6 27l399 1047q14 36 46 50.5t97 14.5t96.5 -15t44.5 -50l386 -1047q5 -11 5 -26zM471 455h284l-138 410h-4z" />
    <glyph glyph-name="Abreve" unicode="&#x102;" 
d="M376 1384.5q-90 73.5 -114 200.5q-1 4 -1 13q0 21 16 35.5t50 23.5q24 7 43 7q32 0 43 -27q23 -64 71.5 -93t129.5 -29t129.5 29t71.5 93q11 27 43 27q19 0 43 -7q34 -9 50 -23.5t16 -35.5q0 -9 -1 -13q-24 -127 -114 -200.5t-238 -73.5t-238 73.5zM1151 71
q0 -25 -24 -43t-78 -30q-51 -12 -82 -12q-28 0 -44 10t-24 31l-69 193h-438l-71 -193q-8 -21 -24.5 -31t-43.5 -10q-30 0 -81 12q-54 12 -77.5 30t-23.5 42q0 12 6 27l399 1047q14 36 46 50.5t97 14.5t96.5 -15t44.5 -50l386 -1047q5 -11 5 -26zM471 455h284l-138 410h-4z
" />
    <glyph glyph-name="Acircumflex" unicode="&#xc2;" 
d="M341 1287q-30 0 -60 43q-25 35 -25 60q0 23 22 42l265 225q14 12 29.5 17.5t41.5 5.5t41.5 -5.5t29.5 -17.5l265 -225q22 -19 22 -42q0 -25 -25 -60q-30 -43 -60 -43q-16 0 -33 11l-240 138l-240 -138q-17 -11 -33 -11zM1151 71q0 -25 -24 -43t-78 -30q-51 -12 -82 -12
q-28 0 -44 10t-24 31l-69 193h-438l-71 -193q-8 -21 -24.5 -31t-43.5 -10q-30 0 -81 12q-54 12 -77.5 30t-23.5 42q0 12 6 27l399 1047q14 36 46 50.5t97 14.5t96.5 -15t44.5 -50l386 -1047q5 -11 5 -26zM471 455h284l-138 410h-4z" />
    <glyph glyph-name="Adieresis" unicode="&#xc4;" 
d="M297.5 1357.5q-28.5 14.5 -28.5 48.5v164q0 35 26 49t96 14q71 0 99.5 -14.5t28.5 -48.5v-164q0 -34 -26.5 -48.5t-96.5 -14.5t-98.5 14.5zM737.5 1357.5q-28.5 14.5 -28.5 48.5v164q0 35 26 49t96 14q71 0 99.5 -14.5t28.5 -48.5v-164q0 -34 -26.5 -48.5t-96.5 -14.5
t-98.5 14.5zM1151 71q0 -25 -24 -43t-78 -30q-51 -12 -82 -12q-28 0 -44 10t-24 31l-69 193h-438l-71 -193q-8 -21 -24.5 -31t-43.5 -10q-30 0 -81 12q-54 12 -77.5 30t-23.5 42q0 12 6 27l399 1047q14 36 46 50.5t97 14.5t96.5 -15t44.5 -50l386 -1047q5 -11 5 -26z
M471 455h284l-138 410h-4z" />
    <glyph glyph-name="Agrave" unicode="&#xc0;" 
d="M268 1546q0 39 40 93q57 75 103 75q17 0 33 -11l347 -255q21 -15 21 -43t-22 -63q-32 -51 -68 -51q-13 0 -23 6l-407 205q-24 12 -24 44zM1151 71q0 -25 -24 -43t-78 -30q-51 -12 -82 -12q-28 0 -44 10t-24 31l-69 193h-438l-71 -193q-8 -21 -24.5 -31t-43.5 -10
q-30 0 -81 12q-54 12 -77.5 30t-23.5 42q0 12 6 27l399 1047q14 36 46 50.5t97 14.5t96.5 -15t44.5 -50l386 -1047q5 -11 5 -26zM471 455h284l-138 410h-4z" />
    <glyph glyph-name="Amacron" unicode="&#x100;" 
d="M306 1348q-13 8 -19.5 30t-6.5 64t6.5 64t19.5 30.5t37 8.5h542q24 0 37 -8.5t19.5 -30.5t6.5 -64t-6.5 -64t-19.5 -30t-37 -8h-542q-24 0 -37 8zM1151 71q0 -25 -24 -43t-78 -30q-51 -12 -82 -12q-28 0 -44 10t-24 31l-69 193h-438l-71 -193q-8 -21 -24.5 -31t-43.5 -10
q-30 0 -81 12q-54 12 -77.5 30t-23.5 42q0 12 6 27l399 1047q14 36 46 50.5t97 14.5t96.5 -15t44.5 -50l386 -1047q5 -11 5 -26zM471 455h284l-138 410h-4z" />
    <glyph glyph-name="Aogonek" unicode="&#x104;" 
d="M715.5 1194q31.5 -15 44.5 -50l386 -1047q5 -17 5 -27q0 -24 -24 -42q-193 -143 -193 -239q0 -67 88 -67q46 0 120 13q51 8 51 -97q0 -33 -10 -51t-30 -25q-102 -34 -216 -34q-118 0 -182 52t-64 151q0 86 55.5 153.5t156.5 132.5l-73 203h-438l-71 -193
q-8 -21 -24.5 -31t-43.5 -10q-30 0 -81 12q-54 12 -77.5 30t-23.5 42q0 12 6 27l399 1047q14 36 46 50.5t97 14.5t96.5 -15zM613 865l-142 -410h284l-138 410h-4z" />
    <glyph glyph-name="Aring" unicode="&#xc5;" 
d="M480 1307q-60 34 -94 94t-34 134t34 134t94 94t134 34t134 -34t94 -94t34 -134t-34 -134t-94 -94t-134 -34t-134 34zM547 1602q-25 -25 -25 -67t25 -67t67 -25t67 25t25 67t-25 67t-67 25t-67 -25zM1151 71q0 -25 -24 -43t-78 -30q-51 -12 -82 -12q-28 0 -44 10t-24 31
l-69 193h-438l-71 -193q-8 -21 -24.5 -31t-43.5 -10q-30 0 -81 12q-54 12 -77.5 30t-23.5 42q0 12 6 27l399 1047q14 36 46 50.5t97 14.5t96.5 -15t44.5 -50l386 -1047q5 -11 5 -26zM471 455h284l-138 410h-4z" />
    <glyph glyph-name="Atilde" unicode="&#xc3;" 
d="M329 1330q-29 0 -66 40q-36 40 -36 76q0 20 10 34q51 76 115 118.5t133 42.5q40 0 73 -12t77 -34q36 -18 58.5 -26.5t46.5 -8.5q61 0 129 72q14 14 30 14q29 0 66 -40q36 -40 36 -76q0 -20 -10 -34q-51 -76 -115 -118.5t-133 -42.5q-40 0 -73 12t-77 34
q-36 18 -58.5 26.5t-46.5 8.5q-61 0 -129 -72q-14 -14 -30 -14zM1151 71q0 -25 -24 -43t-78 -30q-51 -12 -82 -12q-28 0 -44 10t-24 31l-69 193h-438l-71 -193q-8 -21 -24.5 -31t-43.5 -10q-30 0 -81 12q-54 12 -77.5 30t-23.5 42q0 12 6 27l399 1047q14 36 46 50.5t97 14.5
t96.5 -15t44.5 -50l386 -1047q5 -11 5 -26zM471 455h284l-138 410h-4z" />
    <glyph glyph-name="AE" unicode="&#xc6;" 
d="M1154 225q13 -10 19.5 -35.5t6.5 -72.5t-6.5 -72.5t-19.5 -35t-37 -9.5h-504q-34 0 -48.5 14.5t-14.5 48.5v207h-230l-82 -243q-8 -21 -23.5 -31.5t-42.5 -10.5q-29 0 -82 14q-55 15 -78.5 32t-23.5 40q0 11 5 26l361 1033q10 30 26 43.5t48 13.5h669q24 0 37 -10
t19.5 -35.5t6.5 -72.5t-6.5 -72.5t-19.5 -35t-37 -9.5h-297v-223h234q24 0 37 -10t19.5 -35.5t6.5 -72.5t-6.5 -72.5t-19.5 -35t-37 -9.5h-234v-259h317q24 0 37 -10zM550 505v447h-17l-142 -447h159z" />
    <glyph glyph-name="B" unicode="B" 
d="M963.5 1101.5q100.5 -85.5 100.5 -237.5q0 -84 -42 -145.5t-120 -97.5q95 -31 149.5 -99.5t54.5 -177.5q0 -170 -109.5 -257t-316.5 -87h-437q-34 0 -48.5 14.5t-14.5 48.5v1061q0 34 14.5 48.5t48.5 14.5h411q209 0 309.5 -85.5zM430 972v-258h202q90 0 134 32t44 98
q0 67 -42.5 97.5t-135.5 30.5h-202zM430 499v-284h222q194 0 194 139q0 74 -47.5 109.5t-146.5 35.5h-222z" />
    <glyph glyph-name="C" unicode="C" 
d="M1061 1122q46 -22 46 -74q0 -27 -14 -69q-14 -43 -34.5 -63.5t-43.5 -20.5q-16 0 -30 7q-76 36 -148.5 53t-152.5 17q-142 0 -219 -97t-77 -281t77.5 -281.5t218.5 -97.5q80 0 152.5 17t148.5 53q14 7 30 7q23 0 43.5 -20.5t34.5 -63.5q14 -42 14 -69q0 -52 -46 -74
q-180 -87 -387 -87q-164 0 -288 75t-192 214t-68 327t68 327t192 213.5t288 74.5q207 0 387 -87z" />
    <glyph glyph-name="Cacute" unicode="&#x106;" 
d="M869 1714q46 0 103 -75q40 -54 40 -93q0 -32 -24 -44l-407 -205q-10 -6 -23 -6q-36 0 -68 51q-22 35 -22 63t21 43l347 255q16 11 33 11zM1061 1122q46 -22 46 -74q0 -27 -14 -69q-14 -43 -34.5 -63.5t-43.5 -20.5q-16 0 -30 7q-76 36 -148.5 53t-152.5 17
q-142 0 -219 -97t-77 -281t77.5 -281.5t218.5 -97.5q80 0 152.5 17t148.5 53q14 7 30 7q23 0 43.5 -20.5t34.5 -63.5q14 -42 14 -69q0 -52 -46 -74q-180 -87 -387 -87q-164 0 -288 75t-192 214t-68 327t68 327t192 213.5t288 74.5q207 0 387 -87z" />
    <glyph glyph-name="Ccaron" unicode="&#x10c;" 
d="M632.5 1302.5q-15.5 5.5 -29.5 17.5l-265 225q-22 19 -22 42q0 25 25 60q30 43 60 43q16 0 33 -11l240 -138l240 138q17 11 33 11q30 0 60 -43q25 -35 25 -60q0 -23 -22 -42l-265 -225q-14 -12 -29.5 -17.5t-41.5 -5.5t-41.5 5.5zM1061 1122q46 -22 46 -74q0 -27 -14 -69
q-14 -43 -34.5 -63.5t-43.5 -20.5q-16 0 -30 7q-76 36 -148.5 53t-152.5 17q-142 0 -219 -97t-77 -281t77.5 -281.5t218.5 -97.5q80 0 152.5 17t148.5 53q14 7 30 7q23 0 43.5 -20.5t34.5 -63.5q14 -42 14 -69q0 -52 -46 -74q-180 -87 -387 -87q-164 0 -288 75t-192 214
t-68 327t68 327t192 213.5t288 74.5q207 0 387 -87z" />
    <glyph glyph-name="Ccedilla" unicode="&#xc7;" 
d="M1015 292q23 0 43.5 -20.5t34.5 -63.5q14 -42 14 -69q0 -52 -46 -74q-146 -71 -313 -84v-64q107 0 161.5 -52.5t54.5 -137.5q0 -96 -71.5 -147.5t-207.5 -51.5q-147 0 -256 42q-24 10 -24 39q0 19 10 45q24 64 54 64q4 0 12 -2q82 -29 161 -29q49 0 72.5 12.5t23.5 38.5
t-24 36.5t-67 10.5l-23 -1q-8 -1 -24 -1q-37 0 -37 41v164q-133 23 -231.5 103t-152 208.5t-53.5 294.5q0 188 68 327t192 213.5t288 74.5q207 0 387 -87q46 -22 46 -74q0 -27 -14 -69q-14 -43 -34.5 -63.5t-43.5 -20.5q-16 0 -30 7q-76 36 -148.5 53t-152.5 17
q-142 0 -219 -97t-77 -281t77.5 -281.5t218.5 -97.5q80 0 152.5 17t148.5 53q14 7 30 7z" />
    <glyph glyph-name="Ccircumflex" unicode="&#x108;" 
d="M715.5 1674.5q15.5 -5.5 29.5 -17.5l265 -225q22 -19 22 -42q0 -25 -25 -60q-30 -43 -60 -43q-16 0 -33 11l-240 138l-240 -138q-17 -11 -33 -11q-30 0 -60 43q-25 35 -25 60q0 23 22 42l265 225q14 12 29.5 17.5t41.5 5.5t41.5 -5.5zM1061 1122q46 -22 46 -74
q0 -27 -14 -69q-14 -43 -34.5 -63.5t-43.5 -20.5q-16 0 -30 7q-76 36 -148.5 53t-152.5 17q-142 0 -219 -97t-77 -281t77.5 -281.5t218.5 -97.5q80 0 152.5 17t148.5 53q14 7 30 7q23 0 43.5 -20.5t34.5 -63.5q14 -42 14 -69q0 -52 -46 -74q-180 -87 -387 -87
q-164 0 -288 75t-192 214t-68 327t68 327t192 213.5t288 74.5q207 0 387 -87z" />
    <glyph glyph-name="Cdotaccent" unicode="&#x10a;" 
d="M770.5 1618.5q28.5 -14.5 28.5 -48.5v-164q0 -34 -26.5 -48.5t-96.5 -14.5t-98.5 14.5t-28.5 48.5v164q0 35 26 49t96 14q71 0 99.5 -14.5zM1061 1122q46 -22 46 -74q0 -27 -14 -69q-14 -43 -34.5 -63.5t-43.5 -20.5q-16 0 -30 7q-76 36 -148.5 53t-152.5 17
q-142 0 -219 -97t-77 -281t77.5 -281.5t218.5 -97.5q80 0 152.5 17t148.5 53q14 7 30 7q23 0 43.5 -20.5t34.5 -63.5q14 -42 14 -69q0 -52 -46 -74q-180 -87 -387 -87q-164 0 -288 75t-192 214t-68 327t68 327t192 213.5t288 74.5q207 0 387 -87z" />
    <glyph glyph-name="D" unicode="D" 
d="M874 1118q125 -69 191.5 -202.5t66.5 -321.5t-66.5 -321.5t-191.5 -203t-300 -69.5h-351q-34 0 -48.5 14.5t-14.5 48.5v1061q0 34 14.5 48.5t48.5 14.5h351q175 0 300 -69zM410 952v-717h144q156 0 236 90.5t80 268.5t-80 268t-236 90h-144z" />
    <glyph glyph-name="Eth" unicode="&#xd0;" 
d="M874 1118q125 -69 191.5 -202.5t66.5 -321.5t-66.5 -321.5t-191.5 -203t-300 -69.5h-321q-34 0 -48.5 14.5t-14.5 48.5v431h-87q-24 0 -37 8.5t-19.5 32.5t-6.5 71t6.5 71t19.5 33t37 9h87v405q0 34 14.5 48.5t48.5 14.5h321q175 0 300 -69zM790 325.5q80 90.5 80 268.5
t-80 268t-236 90h-114v-233h175q24 0 37 -9t19.5 -33t6.5 -71t-6.5 -71t-19.5 -32.5t-37 -8.5h-175v-259h114q156 0 236 90.5z" />
    <glyph glyph-name="Dcaron" unicode="&#x10e;" 
d="M562.5 1302.5q-15.5 5.5 -29.5 17.5l-265 225q-22 19 -22 42q0 25 25 60q30 43 60 43q16 0 33 -11l240 -138l240 138q17 11 33 11q30 0 60 -43q25 -35 25 -60q0 -23 -22 -42l-265 -225q-14 -12 -29.5 -17.5t-41.5 -5.5t-41.5 5.5zM874 1118q125 -69 191.5 -202.5
t66.5 -321.5t-66.5 -321.5t-191.5 -203t-300 -69.5h-351q-34 0 -48.5 14.5t-14.5 48.5v1061q0 34 14.5 48.5t48.5 14.5h351q175 0 300 -69zM410 952v-717h144q156 0 236 90.5t80 268.5t-80 268t-236 90h-144z" />
    <glyph glyph-name="Dcroat" unicode="&#x110;" 
d="M912 1536.5q13 -8.5 19.5 -30.5t6.5 -64t-6.5 -64t-19.5 -30t-37 -8h-542q-24 0 -37 8t-19.5 30t-6.5 64t6.5 64t19.5 30.5t37 8.5h542q24 0 37 -8.5zM874 1118q125 -69 191.5 -202.5t66.5 -321.5t-66.5 -321.5t-191.5 -203t-300 -69.5h-351q-34 0 -48.5 14.5t-14.5 48.5
v1061q0 34 14.5 48.5t48.5 14.5h351q175 0 300 -69zM410 952v-717h144q156 0 236 90.5t80 268.5t-80 268t-236 90h-144z" />
    <glyph glyph-name="E" unicode="E" 
d="M1034 225q13 -10 19.5 -35.5t6.5 -72.5t-6.5 -72.5t-19.5 -35t-37 -9.5h-734q-34 0 -48.5 14.5t-14.5 48.5v1061q0 34 14.5 48.5t48.5 14.5h714q24 0 37 -10t19.5 -35.5t6.5 -72.5t-6.5 -72.5t-19.5 -35t-37 -9.5h-527v-223h364q24 0 37 -10t19.5 -35.5t6.5 -72.5
t-6.5 -72.5t-19.5 -35t-37 -9.5h-364v-259h547q24 0 37 -10z" />
    <glyph glyph-name="Eacute" unicode="&#xc9;" 
d="M456 1291q-36 0 -68 51q-22 35 -22 63t21 43l347 255q16 11 33 11q46 0 103 -75q40 -54 40 -93q0 -32 -24 -44l-407 -205q-10 -6 -23 -6zM1034 225q13 -10 19.5 -35.5t6.5 -72.5t-6.5 -72.5t-19.5 -35t-37 -9.5h-734q-34 0 -48.5 14.5t-14.5 48.5v1061q0 34 14.5 48.5
t48.5 14.5h714q24 0 37 -10t19.5 -35.5t6.5 -72.5t-6.5 -72.5t-19.5 -35t-37 -9.5h-527v-223h364q24 0 37 -10t19.5 -35.5t6.5 -72.5t-6.5 -72.5t-19.5 -35t-37 -9.5h-364v-259h547q24 0 37 -10z" />
    <glyph glyph-name="Ebreve" unicode="&#x114;" 
d="M386 1384.5q-90 73.5 -114 200.5q-1 4 -1 13q0 21 16 35.5t50 23.5q24 7 43 7q33 0 43 -27q23 -64 71.5 -93t129.5 -29t129.5 29t71.5 93q11 27 43 27q19 0 43 -7q34 -9 50 -23.5t16 -35.5q0 -9 -1 -13q-24 -127 -114 -200.5t-238 -73.5t-238 73.5zM1034 225
q13 -10 19.5 -35.5t6.5 -72.5t-6.5 -72.5t-19.5 -35t-37 -9.5h-734q-34 0 -48.5 14.5t-14.5 48.5v1061q0 34 14.5 48.5t48.5 14.5h714q24 0 37 -10t19.5 -35.5t6.5 -72.5t-6.5 -72.5t-19.5 -35t-37 -9.5h-527v-223h364q24 0 37 -10t19.5 -35.5t6.5 -72.5t-6.5 -72.5
t-19.5 -35t-37 -9.5h-364v-259h547q24 0 37 -10z" />
    <glyph glyph-name="Ecaron" unicode="&#x11a;" 
d="M276 1587q0 25 25 60q30 43 60 43q16 0 33 -11l240 -138l240 138q17 11 33 11q30 0 60 -43q25 -35 25 -60q0 -23 -22 -42l-265 -225q-14 -12 -29.5 -17.5t-41.5 -5.5t-41.5 5.5t-29.5 17.5l-265 225q-22 19 -22 42zM1034 225q13 -10 19.5 -35.5t6.5 -72.5t-6.5 -72.5
t-19.5 -35t-37 -9.5h-734q-34 0 -48.5 14.5t-14.5 48.5v1061q0 34 14.5 48.5t48.5 14.5h714q24 0 37 -10t19.5 -35.5t6.5 -72.5t-6.5 -72.5t-19.5 -35t-37 -9.5h-527v-223h364q24 0 37 -10t19.5 -35.5t6.5 -72.5t-6.5 -72.5t-19.5 -35t-37 -9.5h-364v-259h547q24 0 37 -10z
" />
    <glyph glyph-name="Ecircumflex" unicode="&#xca;" 
d="M361 1287q-30 0 -60 43q-25 35 -25 60q0 23 22 42l265 225q14 12 29.5 17.5t41.5 5.5t41.5 -5.5t29.5 -17.5l265 -225q22 -19 22 -42q0 -25 -25 -60q-30 -43 -60 -43q-16 0 -33 11l-240 138l-240 -138q-17 -11 -33 -11zM1034 225q13 -10 19.5 -35.5t6.5 -72.5t-6.5 -72.5
t-19.5 -35t-37 -9.5h-734q-34 0 -48.5 14.5t-14.5 48.5v1061q0 34 14.5 48.5t48.5 14.5h714q24 0 37 -10t19.5 -35.5t6.5 -72.5t-6.5 -72.5t-19.5 -35t-37 -9.5h-527v-223h364q24 0 37 -10t19.5 -35.5t6.5 -72.5t-6.5 -72.5t-19.5 -35t-37 -9.5h-364v-259h547q24 0 37 -10z
" />
    <glyph glyph-name="Edieresis" unicode="&#xcb;" 
d="M317.5 1357.5q-28.5 14.5 -28.5 48.5v164q0 35 26 49t96 14q71 0 99.5 -14.5t28.5 -48.5v-164q0 -34 -26.5 -48.5t-96.5 -14.5t-98.5 14.5zM757.5 1357.5q-28.5 14.5 -28.5 48.5v164q0 35 26 49t96 14q71 0 99.5 -14.5t28.5 -48.5v-164q0 -34 -26.5 -48.5t-96.5 -14.5
t-98.5 14.5zM1034 225q13 -10 19.5 -35.5t6.5 -72.5t-6.5 -72.5t-19.5 -35t-37 -9.5h-734q-34 0 -48.5 14.5t-14.5 48.5v1061q0 34 14.5 48.5t48.5 14.5h714q24 0 37 -10t19.5 -35.5t6.5 -72.5t-6.5 -72.5t-19.5 -35t-37 -9.5h-527v-223h364q24 0 37 -10t19.5 -35.5
t6.5 -72.5t-6.5 -72.5t-19.5 -35t-37 -9.5h-364v-259h547q24 0 37 -10z" />
    <glyph glyph-name="Edotaccent" unicode="&#x116;" 
d="M537.5 1357.5q-28.5 14.5 -28.5 48.5v164q0 35 26 49t96 14q71 0 99.5 -14.5t28.5 -48.5v-164q0 -34 -26.5 -48.5t-96.5 -14.5t-98.5 14.5zM1034 225q13 -10 19.5 -35.5t6.5 -72.5t-6.5 -72.5t-19.5 -35t-37 -9.5h-734q-34 0 -48.5 14.5t-14.5 48.5v1061q0 34 14.5 48.5
t48.5 14.5h714q24 0 37 -10t19.5 -35.5t6.5 -72.5t-6.5 -72.5t-19.5 -35t-37 -9.5h-527v-223h364q24 0 37 -10t19.5 -35.5t6.5 -72.5t-6.5 -72.5t-19.5 -35t-37 -9.5h-364v-259h547q24 0 37 -10z" />
    <glyph glyph-name="Egrave" unicode="&#xc8;" 
d="M298 1546q0 39 40 93q57 75 103 75q17 0 33 -11l347 -255q21 -15 21 -43t-22 -63q-32 -51 -68 -51q-13 0 -23 6l-407 205q-24 12 -24 44zM1034 225q13 -10 19.5 -35.5t6.5 -72.5t-6.5 -72.5t-19.5 -35t-37 -9.5h-734q-34 0 -48.5 14.5t-14.5 48.5v1061q0 34 14.5 48.5
t48.5 14.5h714q24 0 37 -10t19.5 -35.5t6.5 -72.5t-6.5 -72.5t-19.5 -35t-37 -9.5h-527v-223h364q24 0 37 -10t19.5 -35.5t6.5 -72.5t-6.5 -72.5t-19.5 -35t-37 -9.5h-364v-259h547q24 0 37 -10z" />
    <glyph glyph-name="Emacron" unicode="&#x112;" 
d="M316 1348q-13 8 -19.5 30t-6.5 64t6.5 64t19.5 30.5t37 8.5h542q24 0 37 -8.5t19.5 -30.5t6.5 -64t-6.5 -64t-19.5 -30t-37 -8h-542q-24 0 -37 8zM1034 225q13 -10 19.5 -35.5t6.5 -72.5t-6.5 -72.5t-19.5 -35t-37 -9.5h-734q-34 0 -48.5 14.5t-14.5 48.5v1061
q0 34 14.5 48.5t48.5 14.5h714q24 0 37 -10t19.5 -35.5t6.5 -72.5t-6.5 -72.5t-19.5 -35t-37 -9.5h-527v-223h364q24 0 37 -10t19.5 -35.5t6.5 -72.5t-6.5 -72.5t-19.5 -35t-37 -9.5h-364v-259h547q24 0 37 -10z" />
    <glyph glyph-name="Eogonek" unicode="&#x118;" 
d="M1082 -413q-10 -18 -30 -25q-102 -34 -216 -34q-118 0 -182 52t-64 151q0 80 48.5 144.5t137.5 124.5h-513q-34 0 -48.5 14.5t-14.5 48.5v1061q0 34 14.5 48.5t48.5 14.5h714q24 0 37 -10t19.5 -35.5t6.5 -72.5t-6.5 -72.5t-19.5 -35t-37 -9.5h-527v-223h364q24 0 37 -10
t19.5 -35.5t6.5 -72.5t-6.5 -72.5t-19.5 -35t-37 -9.5h-364v-259h547q24 0 37 -10t19.5 -35.5t6.5 -72.5t-6.5 -72.5t-19.5 -35t-37 -9.5h-8q-156 -124 -156 -211q0 -67 88 -67q46 0 120 13q51 8 51 -97q0 -33 -10 -51z" />
    <glyph glyph-name="F" unicode="F" 
d="M1024 1177q13 -10 19.5 -35.5t6.5 -72.5t-6.5 -72.5t-19.5 -35t-37 -9.5h-517v-285h434q24 0 37 -10t19.5 -35.5t6.5 -72.5t-6.5 -72.5t-19.5 -35t-37 -9.5h-434v-369q0 -34 -14.5 -48.5t-48.5 -14.5h-124q-34 0 -48.5 14.5t-14.5 48.5v1061q0 34 14.5 48.5t48.5 14.5
h704q24 0 37 -10z" />
    <glyph glyph-name="G" unicode="G" 
d="M1083.5 652.5q14.5 -14.5 14.5 -48.5v-461q0 -24 -9.5 -42t-26.5 -27q-86 -47 -196.5 -71.5t-231.5 -24.5q-164 0 -288 75t-192 214t-68 327t68 327t192 213.5t288 74.5q104 0 206 -23t191 -64q46 -21 46 -74q0 -27 -14 -69q-14 -43 -34.5 -63.5t-44.5 -20.5q-11 0 -29 7
q-158 70 -311 70q-142 0 -219 -97t-77 -281t77.5 -281.5t218.5 -97.5q108 0 204 31v186h-216q-24 0 -37 9.5t-19.5 35t-6.5 72.5t6.5 72.5t19.5 35.5t37 10h403q34 0 48.5 -14.5z" />
    <glyph glyph-name="Gbreve" unicode="&#x11e;" 
d="M396 1384.5q-90 73.5 -114 200.5q-1 4 -1 13q0 21 16 35.5t50 23.5q24 7 43 7q33 0 43 -27q23 -64 71.5 -93t129.5 -29t129.5 29t71.5 93q11 27 43 27q19 0 43 -7q34 -9 50 -23.5t16 -35.5q0 -9 -1 -13q-24 -127 -114 -200.5t-238 -73.5t-238 73.5zM1083.5 652.5
q14.5 -14.5 14.5 -48.5v-461q0 -24 -9.5 -42t-26.5 -27q-86 -47 -196.5 -71.5t-231.5 -24.5q-164 0 -288 75t-192 214t-68 327t68 327t192 213.5t288 74.5q104 0 206 -23t191 -64q46 -21 46 -74q0 -27 -14 -69q-14 -43 -34.5 -63.5t-44.5 -20.5q-11 0 -29 7q-158 70 -311 70
q-142 0 -219 -97t-77 -281t77.5 -281.5t218.5 -97.5q108 0 204 31v186h-216q-24 0 -37 9.5t-19.5 35t-6.5 72.5t6.5 72.5t19.5 35.5t37 10h403q34 0 48.5 -14.5z" />
    <glyph glyph-name="Gcircumflex" unicode="&#x11c;" 
d="M371 1287q-30 0 -60 43q-25 35 -25 60q0 23 22 42l265 225q14 12 29.5 17.5t41.5 5.5t41.5 -5.5t29.5 -17.5l265 -225q22 -19 22 -42q0 -25 -25 -60q-30 -43 -60 -43q-16 0 -33 11l-240 138l-240 -138q-17 -11 -33 -11zM1083.5 652.5q14.5 -14.5 14.5 -48.5v-461
q0 -24 -9.5 -42t-26.5 -27q-86 -47 -196.5 -71.5t-231.5 -24.5q-164 0 -288 75t-192 214t-68 327t68 327t192 213.5t288 74.5q104 0 206 -23t191 -64q46 -21 46 -74q0 -27 -14 -69q-14 -43 -34.5 -63.5t-44.5 -20.5q-11 0 -29 7q-158 70 -311 70q-142 0 -219 -97t-77 -281
t77.5 -281.5t218.5 -97.5q108 0 204 31v186h-216q-24 0 -37 9.5t-19.5 35t-6.5 72.5t6.5 72.5t19.5 35.5t37 10h403q34 0 48.5 -14.5z" />
    <glyph glyph-name="Gcommaaccent" unicode="&#x122;" 
d="M1083.5 652.5q14.5 -14.5 14.5 -48.5v-461q0 -24 -9.5 -42t-26.5 -27q-86 -47 -196.5 -71.5t-231.5 -24.5q-164 0 -288 75t-192 214t-68 327t68 327t192 213.5t288 74.5q104 0 206 -23t191 -64q46 -21 46 -74q0 -27 -14 -69q-14 -43 -34.5 -63.5t-44.5 -20.5q-11 0 -29 7
q-158 70 -311 70q-142 0 -219 -97t-77 -281t77.5 -281.5t218.5 -97.5q108 0 204 31v186h-216q-24 0 -37 9.5t-19.5 35t-6.5 72.5t6.5 72.5t19.5 35.5t37 10h403q34 0 48.5 -14.5zM761 -169q0 -11 -4 -20l-124 -306q-10 -25 -33.5 -37t-67.5 -12q-50 0 -73.5 12.5t-23.5 39.5
q0 8 1 13l59 306q2 13 12 20t24 7h206q24 0 24 -23z" />
    <glyph glyph-name="Gdotaccent" unicode="&#x120;" 
d="M537.5 1357.5q-28.5 14.5 -28.5 48.5v164q0 35 26 49t96 14q71 0 99.5 -14.5t28.5 -48.5v-164q0 -34 -26.5 -48.5t-96.5 -14.5t-98.5 14.5zM1083.5 652.5q14.5 -14.5 14.5 -48.5v-461q0 -24 -9.5 -42t-26.5 -27q-86 -47 -196.5 -71.5t-231.5 -24.5q-164 0 -288 75
t-192 214t-68 327t68 327t192 213.5t288 74.5q104 0 206 -23t191 -64q46 -21 46 -74q0 -27 -14 -69q-14 -43 -34.5 -63.5t-44.5 -20.5q-11 0 -29 7q-158 70 -311 70q-142 0 -219 -97t-77 -281t77.5 -281.5t218.5 -97.5q108 0 204 31v186h-216q-24 0 -37 9.5t-19.5 35
t-6.5 72.5t6.5 72.5t19.5 35.5t37 10h403q34 0 48.5 -14.5z" />
    <glyph glyph-name="H" unicode="H" 
d="M1073.5 1172.5q14.5 -14.5 14.5 -48.5v-1061q0 -34 -14.5 -48.5t-48.5 -14.5h-124q-34 0 -48.5 14.5t-14.5 48.5v431h-448v-431q0 -34 -14.5 -48.5t-48.5 -14.5h-124q-34 0 -48.5 14.5t-14.5 48.5v1061q0 34 14.5 48.5t48.5 14.5h124q34 0 48.5 -14.5t14.5 -48.5v-395
h448v395q0 34 14.5 48.5t48.5 14.5h124q34 0 48.5 -14.5z" />
    <glyph glyph-name="Hbar" unicode="&#x126;" 
d="M1182 1001q13 -7 19.5 -27t6.5 -59t-6.5 -58.5t-19.5 -26.5t-37 -7h-57v-760q0 -34 -14.5 -48.5t-48.5 -14.5h-124q-34 0 -48.5 14.5t-14.5 48.5v431h-448v-431q0 -34 -14.5 -48.5t-48.5 -14.5h-124q-34 0 -48.5 14.5t-14.5 48.5v760h-57q-24 0 -37 7t-19.5 26.5
t-6.5 58.5t6.5 59t19.5 27t37 7h57v116q0 34 14.5 48.5t48.5 14.5h124q34 0 48.5 -14.5t14.5 -48.5v-116h448v116q0 34 14.5 48.5t48.5 14.5h124q34 0 48.5 -14.5t14.5 -48.5v-116h57q24 0 37 -7zM838 823h-448v-94h448v94z" />
    <glyph glyph-name="Hcircumflex" unicode="&#x124;" 
d="M341 1287q-30 0 -60 43q-25 35 -25 60q0 23 22 42l265 225q14 12 29.5 17.5t41.5 5.5t41.5 -5.5t29.5 -17.5l265 -225q22 -19 22 -42q0 -25 -25 -60q-30 -43 -60 -43q-16 0 -33 11l-240 138l-240 -138q-17 -11 -33 -11zM1073.5 1172.5q14.5 -14.5 14.5 -48.5v-1061
q0 -34 -14.5 -48.5t-48.5 -14.5h-124q-34 0 -48.5 14.5t-14.5 48.5v431h-448v-431q0 -34 -14.5 -48.5t-48.5 -14.5h-124q-34 0 -48.5 14.5t-14.5 48.5v1061q0 34 14.5 48.5t48.5 14.5h124q34 0 48.5 -14.5t14.5 -48.5v-395h448v395q0 34 14.5 48.5t48.5 14.5h124
q34 0 48.5 -14.5z" />
    <glyph glyph-name="I" unicode="I" 
d="M1044 201.5q14 -23.5 14 -89.5t-14 -89t-49 -23h-762q-35 0 -49 23t-14 89t14 89.5t49 23.5h256v737h-236q-35 0 -49 23t-14 89t14 89.5t49 23.5h722q35 0 49 -23.5t14 -89.5t-14 -89t-49 -23h-236v-737h256q35 0 49 -23.5z" />
    <glyph glyph-name="IJ" unicode="&#x132;" 
d="M365.5 1172.5q14.5 -14.5 14.5 -48.5v-1061q0 -34 -14.5 -48.5t-48.5 -14.5h-124q-34 0 -48.5 14.5t-14.5 48.5v1061q0 34 14.5 48.5t48.5 14.5h124q34 0 48.5 -14.5zM1088.5 1172.5q14.5 -14.5 14.5 -48.5v-791q0 -177 -91 -266t-271 -89q-49 0 -104 10.5t-105 29.5
q-22 8 -33 24t-11 42q0 25 11 69q12 49 30 70.5t42 21.5q6 0 22 -4q37 -12 75.5 -19t65.5 -7q62 0 90.5 31.5t28.5 102.5v775q0 34 14.5 48.5t48.5 14.5h124q34 0 48.5 -14.5z" />
    <glyph glyph-name="Iacute" unicode="&#xcd;" 
d="M498 1291q-36 0 -68 51q-22 35 -22 63t21 43l347 255q16 11 33 11q46 0 103 -75q40 -54 40 -93q0 -32 -24 -44l-407 -205q-10 -6 -23 -6zM1044 201.5q14 -23.5 14 -89.5t-14 -89t-49 -23h-762q-35 0 -49 23t-14 89t14 89.5t49 23.5h256v737h-236q-35 0 -49 23t-14 89
t14 89.5t49 23.5h722q35 0 49 -23.5t14 -89.5t-14 -89t-49 -23h-236v-737h256q35 0 49 -23.5z" />
    <glyph glyph-name="Ibreve" unicode="&#x12c;" 
d="M376 1384.5q-90 73.5 -114 200.5q-1 4 -1 13q0 21 16 35.5t50 23.5q24 7 43 7q32 0 43 -27q23 -64 71.5 -93t129.5 -29t129.5 29t71.5 93q11 27 43 27q19 0 43 -7q34 -9 50 -23.5t16 -35.5q0 -9 -1 -13q-24 -127 -114 -200.5t-238 -73.5t-238 73.5zM1044 201.5
q14 -23.5 14 -89.5t-14 -89t-49 -23h-762q-35 0 -49 23t-14 89t14 89.5t49 23.5h256v737h-236q-35 0 -49 23t-14 89t14 89.5t49 23.5h722q35 0 49 -23.5t14 -89.5t-14 -89t-49 -23h-236v-737h256q35 0 49 -23.5z" />
    <glyph glyph-name="Icircumflex" unicode="&#xce;" 
d="M341 1287q-30 0 -60 43q-25 35 -25 60q0 23 22 42l265 225q14 12 29.5 17.5t41.5 5.5t41.5 -5.5t29.5 -17.5l265 -225q22 -19 22 -42q0 -25 -25 -60q-30 -43 -60 -43q-16 0 -33 11l-240 138l-240 -138q-17 -11 -33 -11zM1044 201.5q14 -23.5 14 -89.5t-14 -89t-49 -23
h-762q-35 0 -49 23t-14 89t14 89.5t49 23.5h256v737h-236q-35 0 -49 23t-14 89t14 89.5t49 23.5h722q35 0 49 -23.5t14 -89.5t-14 -89t-49 -23h-236v-737h256q35 0 49 -23.5z" />
    <glyph glyph-name="Idieresis" unicode="&#xcf;" 
d="M297.5 1357.5q-28.5 14.5 -28.5 48.5v164q0 35 26 49t96 14q71 0 99.5 -14.5t28.5 -48.5v-164q0 -34 -26.5 -48.5t-96.5 -14.5t-98.5 14.5zM737.5 1357.5q-28.5 14.5 -28.5 48.5v164q0 35 26 49t96 14q71 0 99.5 -14.5t28.5 -48.5v-164q0 -34 -26.5 -48.5t-96.5 -14.5
t-98.5 14.5zM1044 201.5q14 -23.5 14 -89.5t-14 -89t-49 -23h-762q-35 0 -49 23t-14 89t14 89.5t49 23.5h256v737h-236q-35 0 -49 23t-14 89t14 89.5t49 23.5h722q35 0 49 -23.5t14 -89.5t-14 -89t-49 -23h-236v-737h256q35 0 49 -23.5z" />
    <glyph glyph-name="Idotaccent" unicode="&#x130;" 
d="M517.5 1357.5q-28.5 14.5 -28.5 48.5v164q0 35 26 49t96 14q71 0 99.5 -14.5t28.5 -48.5v-164q0 -34 -26.5 -48.5t-96.5 -14.5t-98.5 14.5zM1044 201.5q14 -23.5 14 -89.5t-14 -89t-49 -23h-762q-35 0 -49 23t-14 89t14 89.5t49 23.5h256v737h-236q-35 0 -49 23t-14 89
t14 89.5t49 23.5h722q35 0 49 -23.5t14 -89.5t-14 -89t-49 -23h-236v-737h256q35 0 49 -23.5z" />
    <glyph glyph-name="Igrave" unicode="&#xcc;" 
d="M276 1546q0 39 40 93q57 75 103 75q17 0 33 -11l347 -255q21 -15 21 -43t-22 -63q-32 -51 -68 -51q-12 0 -23 6l-407 205q-24 12 -24 44zM1044 201.5q14 -23.5 14 -89.5t-14 -89t-49 -23h-762q-35 0 -49 23t-14 89t14 89.5t49 23.5h256v737h-236q-35 0 -49 23t-14 89
t14 89.5t49 23.5h722q35 0 49 -23.5t14 -89.5t-14 -89t-49 -23h-236v-737h256q35 0 49 -23.5z" />
    <glyph glyph-name="Imacron" unicode="&#x12a;" 
d="M306 1348q-13 8 -19.5 30t-6.5 64t6.5 64t19.5 30.5t37 8.5h542q24 0 37 -8.5t19.5 -30.5t6.5 -64t-6.5 -64t-19.5 -30t-37 -8h-542q-24 0 -37 8zM1044 201.5q14 -23.5 14 -89.5t-14 -89t-49 -23h-762q-35 0 -49 23t-14 89t14 89.5t49 23.5h256v737h-236q-35 0 -49 23
t-14 89t14 89.5t49 23.5h722q35 0 49 -23.5t14 -89.5t-14 -89t-49 -23h-236v-737h256q35 0 49 -23.5z" />
    <glyph glyph-name="Iogonek" unicode="&#x12e;" 
d="M1044 201.5q14 -23.5 14 -89.5t-14 -89t-49 -23h-277q-156 -124 -156 -211q0 -67 88 -67q46 0 120 13q51 8 51 -97q0 -33 -10 -51t-30 -25q-102 -34 -216 -34q-118 0 -182 52t-64 151q0 80 48.5 144.5t137.5 124.5h-272q-35 0 -49 23t-14 89t14 89.5t49 23.5h256v737
h-236q-35 0 -49 23t-14 89t14 89.5t49 23.5h722q35 0 49 -23.5t14 -89.5t-14 -89t-49 -23h-236v-737h256q35 0 49 -23.5z" />
    <glyph glyph-name="Itilde" unicode="&#x128;" 
d="M329 1330q-29 0 -66 40q-36 40 -36 76q0 20 10 34q51 76 115 118.5t133 42.5q40 0 73 -12t77 -34q36 -18 58.5 -26.5t46.5 -8.5q61 0 129 72q14 14 30 14q29 0 66 -40q36 -40 36 -76q0 -20 -10 -34q-51 -76 -115 -118.5t-133 -42.5q-40 0 -73 12t-77 34
q-36 18 -58.5 26.5t-46.5 8.5q-61 0 -129 -72q-14 -14 -30 -14zM1044 201.5q14 -23.5 14 -89.5t-14 -89t-49 -23h-762q-35 0 -49 23t-14 89t14 89.5t49 23.5h256v737h-236q-35 0 -49 23t-14 89t14 89.5t49 23.5h722q35 0 49 -23.5t14 -89.5t-14 -89t-49 -23h-236v-737h256
q35 0 49 -23.5z" />
    <glyph glyph-name="J" unicode="J" 
d="M964.5 1172.5q14.5 -14.5 14.5 -48.5v-761q0 -192 -103 -288.5t-304 -96.5q-98 0 -198.5 27.5t-183.5 77.5q-38 24 -38 65q0 32 22 79q36 77 81 77q17 0 33 -9q72 -38 146 -59t139 -21q77 0 116.5 41t39.5 127v569h-316q-24 0 -37 9.5t-19.5 35t-6.5 72.5t6.5 72.5
t19.5 35.5t37 10h503q34 0 48.5 -14.5z" />
    <glyph glyph-name="Jcircumflex" unicode="&#x134;" 
d="M1132 1390q0 -25 -25 -60q-30 -43 -60 -43q-16 0 -33 11l-240 138l-240 -138q-17 -11 -33 -11q-30 0 -60 43q-25 35 -25 60q0 23 22 42l265 225q14 12 29.5 17.5t41.5 5.5t41.5 -5.5t29.5 -17.5l265 -225q22 -19 22 -42zM964.5 1172.5q14.5 -14.5 14.5 -48.5v-761
q0 -192 -103 -288.5t-304 -96.5q-98 0 -198.5 27.5t-183.5 77.5q-38 24 -38 65q0 32 22 79q36 77 81 77q17 0 33 -9q72 -38 146 -59t139 -21q77 0 116.5 41t39.5 127v569h-316q-24 0 -37 9.5t-19.5 35t-6.5 72.5t6.5 72.5t19.5 35.5t37 10h503q34 0 48.5 -14.5z" />
    <glyph glyph-name="K" unicode="K" 
d="M1113 89q0 -20 -20.5 -39t-65.5 -40q-69 -32 -101 -32q-31 0 -51 29l-323 479l-117 -122v-301q0 -34 -14.5 -48.5t-48.5 -14.5h-124q-34 0 -48.5 14.5t-14.5 48.5v1061q0 34 14.5 48.5t48.5 14.5h124q34 0 48.5 -14.5t14.5 -48.5v-416l451 478q21 23 47 23q35 0 103 -43
q68 -42 68 -81q0 -21 -21 -44l-357 -373l374 -544q13 -19 13 -35z" />
    <glyph glyph-name="Kcommaaccent" unicode="&#x136;" 
d="M1113 89q0 -20 -20.5 -39t-65.5 -40q-69 -32 -101 -32q-31 0 -51 29l-323 479l-117 -122v-301q0 -34 -14.5 -48.5t-48.5 -14.5h-124q-34 0 -48.5 14.5t-14.5 48.5v1061q0 34 14.5 48.5t48.5 14.5h124q34 0 48.5 -14.5t14.5 -48.5v-416l451 478q21 23 47 23q35 0 103 -43
q68 -42 68 -81q0 -21 -21 -44l-357 -373l374 -544q13 -19 13 -35zM781 -169q0 -11 -4 -20l-124 -306q-10 -25 -33.5 -37t-67.5 -12q-50 0 -73.5 12.5t-23.5 39.5q0 8 1 13l59 306q2 13 12 20t24 7h206q24 0 24 -23z" />
    <glyph glyph-name="L" unicode="L" 
d="M1042 225q13 -10 19.5 -35.5t6.5 -72.5t-6.5 -72.5t-19.5 -35t-37 -9.5h-733q-34 0 -48.5 14.5t-14.5 48.5v1061q0 34 14.5 48.5t48.5 14.5h124q34 0 48.5 -14.5t14.5 -48.5v-889h546q24 0 37 -10z" />
    <glyph glyph-name="Lacute" unicode="&#x139;" 
d="M296 1291q-36 0 -68 51q-22 35 -22 63t21 43l347 255q16 11 33 11q46 0 103 -75q40 -54 40 -93q0 -32 -24 -44l-407 -205q-11 -6 -23 -6zM1042 225q13 -10 19.5 -35.5t6.5 -72.5t-6.5 -72.5t-19.5 -35t-37 -9.5h-733q-34 0 -48.5 14.5t-14.5 48.5v1061q0 34 14.5 48.5
t48.5 14.5h124q34 0 48.5 -14.5t14.5 -48.5v-889h546q24 0 37 -10z" />
    <glyph glyph-name="Lcaron" unicode="&#x13d;" 
d="M1042 225q13 -10 19.5 -35.5t6.5 -72.5t-6.5 -72.5t-19.5 -35t-37 -9.5h-733q-34 0 -48.5 14.5t-14.5 48.5v1061q0 34 14.5 48.5t48.5 14.5h124q34 0 48.5 -14.5t14.5 -48.5v-889h546q24 0 37 -10zM710.5 704q-20.5 12 -20.5 39q0 13 2 20l85 391q8 33 43 33h201
q28 0 28 -28q0 -9 -5 -24l-151 -387q-12 -31 -40.5 -43.5t-78.5 -12.5q-43 0 -63.5 12z" />
    <glyph glyph-name="Lcommaaccent" unicode="&#x13b;" 
d="M1042 225q13 -10 19.5 -35.5t6.5 -72.5t-6.5 -72.5t-19.5 -35t-37 -9.5h-733q-34 0 -48.5 14.5t-14.5 48.5v1061q0 34 14.5 48.5t48.5 14.5h124q34 0 48.5 -14.5t14.5 -48.5v-889h546q24 0 37 -10zM761 -169q0 -11 -4 -20l-124 -306q-10 -25 -33.5 -37t-67.5 -12
q-50 0 -73.5 12.5t-23.5 39.5q0 8 1 13l59 306q2 13 12 20t24 7h206q24 0 24 -23z" />
    <glyph glyph-name="Ldot" unicode="&#x13f;" 
d="M1042 225q13 -10 19.5 -35.5t6.5 -72.5t-6.5 -72.5t-19.5 -35t-37 -9.5h-733q-34 0 -48.5 14.5t-14.5 48.5v1061q0 34 14.5 48.5t48.5 14.5h124q34 0 48.5 -14.5t14.5 -48.5v-889h546q24 0 37 -10zM717.5 577.5q-28.5 14.5 -28.5 48.5v164q0 35 26 49t96 14
q71 0 99.5 -14.5t28.5 -48.5v-164q0 -34 -26.5 -48.5t-96.5 -14.5t-98.5 14.5z" />
    <glyph glyph-name="Lslash" unicode="&#x141;" 
d="M1042 225q13 -10 19.5 -35.5t6.5 -72.5t-6.5 -72.5t-19.5 -35t-37 -9.5h-673q-34 0 -48.5 14.5t-14.5 48.5v313l-110 -65q-19 -12 -34 -12q-17 0 -34 15.5t-38 51.5q-30 53 -30 77q0 25 32 44l214 127v510q0 34 14.5 48.5t48.5 14.5h124q34 0 48.5 -14.5t14.5 -48.5v-361
l191 113q20 12 35 12q16 0 32.5 -15.5t39.5 -52.5q29 -49 29 -76q0 -25 -31 -44l-296 -176v-289h486q24 0 37 -10z" />
    <glyph glyph-name="M" unicode="M" 
d="M1073 1172.5q14 -14.5 15 -48.5l20 -1061q1 -34 -14 -48.5t-49 -14.5h-107q-34 0 -48.5 14.5t-14.5 48.5l-7 624l-152 -312q-16 -33 -37.5 -46.5t-63.5 -13.5t-64 13t-39 47l-153 309l-6 -621q0 -34 -14.5 -48.5t-48.5 -14.5h-107q-34 0 -49 14.5t-14 48.5l20 1061
q1 34 15 48.5t48 14.5h114q21 0 33.5 -7t20.5 -24l243 -491l242 491q8 17 20.5 24t33.5 7h115q34 0 48 -14.5z" />
    <glyph glyph-name="N" unicode="N" 
d="M1073.5 1172.5q14.5 -14.5 14.5 -48.5v-1080q0 -33 -25 -49.5t-85 -16.5q-44 0 -66.5 13t-42.5 42l-489 714h-4v-684q0 -34 -14.5 -48.5t-48.5 -14.5h-110q-34 0 -48.5 14.5t-14.5 48.5v1061q0 34 14.5 48.5t48.5 14.5h134q38 0 54 -24l457 -667h4v628q0 34 14.5 48.5
t48.5 14.5h110q34 0 48.5 -14.5z" />
    <glyph glyph-name="Nacute" unicode="&#x143;" 
d="M797 1714q46 0 103 -75q40 -54 40 -93q0 -32 -24 -44l-407 -205q-10 -6 -23 -6q-36 0 -68 51q-22 35 -22 63t21 43l347 255q16 11 33 11zM1073.5 1172.5q14.5 -14.5 14.5 -48.5v-1080q0 -33 -25 -49.5t-85 -16.5q-44 0 -66.5 13t-42.5 42l-489 714h-4v-684
q0 -34 -14.5 -48.5t-48.5 -14.5h-110q-34 0 -48.5 14.5t-14.5 48.5v1061q0 34 14.5 48.5t48.5 14.5h134q38 0 54 -24l457 -667h4v628q0 34 14.5 48.5t48.5 14.5h110q34 0 48.5 -14.5z" />
    <glyph glyph-name="Ncaron" unicode="&#x147;" 
d="M582.5 1302.5q-15.5 5.5 -29.5 17.5l-265 225q-22 19 -22 42q0 25 25 60q30 43 60 43q16 0 33 -11l240 -138l240 138q17 11 33 11q30 0 60 -43q25 -35 25 -60q0 -23 -22 -42l-265 -225q-14 -12 -29.5 -17.5t-41.5 -5.5t-41.5 5.5zM1073.5 1172.5q14.5 -14.5 14.5 -48.5
v-1080q0 -33 -25 -49.5t-85 -16.5q-44 0 -66.5 13t-42.5 42l-489 714h-4v-684q0 -34 -14.5 -48.5t-48.5 -14.5h-110q-34 0 -48.5 14.5t-14.5 48.5v1061q0 34 14.5 48.5t48.5 14.5h134q38 0 54 -24l457 -667h4v628q0 34 14.5 48.5t48.5 14.5h110q34 0 48.5 -14.5z" />
    <glyph glyph-name="Ncommaaccent" unicode="&#x145;" 
d="M1073.5 1172.5q14.5 -14.5 14.5 -48.5v-1080q0 -33 -25 -49.5t-85 -16.5q-44 0 -66.5 13t-42.5 42l-489 714h-4v-684q0 -34 -14.5 -48.5t-48.5 -14.5h-110q-34 0 -48.5 14.5t-14.5 48.5v1061q0 34 14.5 48.5t48.5 14.5h134q38 0 54 -24l457 -667h4v628q0 34 14.5 48.5
t48.5 14.5h110q34 0 48.5 -14.5zM761 -169q0 -11 -4 -20l-124 -306q-10 -25 -33.5 -37t-67.5 -12q-50 0 -73.5 12.5t-23.5 39.5q0 8 1 13l59 306q2 13 12 20t24 7h206q24 0 24 -23z" />
    <glyph glyph-name="Eng" unicode="&#x14a;" 
d="M1073.5 1172.5q14.5 -14.5 14.5 -48.5v-1179q0 -177 -91 -266t-271 -89q-49 0 -104 10.5t-105 29.5q-22 8 -33 24t-11 42q0 25 11 69q12 49 30 70.5t42 21.5q6 0 22 -4q37 -12 75.5 -19t65.5 -7q62 0 90.5 31.5t28.5 102.5v117l-458 669h-4v-684q0 -34 -14.5 -48.5
t-48.5 -14.5h-110q-34 0 -48.5 14.5t-14.5 48.5v1061q0 34 14.5 48.5t48.5 14.5h134q38 0 54 -24l457 -667h4v628q0 34 14.5 48.5t48.5 14.5h110q34 0 48.5 -14.5z" />
    <glyph glyph-name="Ntilde" unicode="&#xd1;" 
d="M558 1629q33 -12 77 -34q36 -18 58.5 -26.5t46.5 -8.5q61 0 129 72q14 14 30 14q29 0 66 -40q36 -40 36 -76q0 -20 -10 -34q-51 -76 -115 -118.5t-133 -42.5q-40 0 -73 12t-77 34q-36 18 -58.5 26.5t-46.5 8.5q-61 0 -129 -72q-14 -14 -30 -14q-29 0 -66 40
q-36 40 -36 76q0 20 10 34q51 76 115 118.5t133 42.5q40 0 73 -12zM1073.5 1172.5q14.5 -14.5 14.5 -48.5v-1080q0 -33 -25 -49.5t-85 -16.5q-44 0 -66.5 13t-42.5 42l-489 714h-4v-684q0 -34 -14.5 -48.5t-48.5 -14.5h-110q-34 0 -48.5 14.5t-14.5 48.5v1061
q0 34 14.5 48.5t48.5 14.5h134q38 0 54 -24l457 -667h4v628q0 34 14.5 48.5t48.5 14.5h110q34 0 48.5 -14.5z" />
    <glyph glyph-name="O" unicode="O" 
d="M902 1134.5q124 -74.5 192 -213.5t68 -327t-68 -327t-192 -214t-288 -75t-288 75t-192 214t-68 327t68 327t192 213.5t288 74.5t288 -74.5zM401 874.5q-73 -97.5 -73 -280.5t73 -281t213 -98t213 98t73 281t-73 280.5t-213 97.5t-213 -97.5z" />
    <glyph glyph-name="Oacute" unicode="&#xd3;" 
d="M787 1714q46 0 103 -75q40 -54 40 -93q0 -32 -24 -44l-407 -205q-11 -6 -23 -6q-36 0 -68 51q-22 35 -22 63t21 43l347 255q16 11 33 11zM902 1134.5q124 -74.5 192 -213.5t68 -327t-68 -327t-192 -214t-288 -75t-288 75t-192 214t-68 327t68 327t192 213.5t288 74.5
t288 -74.5zM401 874.5q-73 -97.5 -73 -280.5t73 -281t213 -98t213 98t73 281t-73 280.5t-213 97.5t-213 -97.5z" />
    <glyph glyph-name="Obreve" unicode="&#x14e;" 
d="M951 1633.5q16 -14.5 16 -35.5q0 -9 -1 -13q-24 -127 -114 -200.5t-238 -73.5t-238 73.5t-114 200.5q-1 4 -1 13q0 21 16 35.5t50 23.5q24 7 43 7q32 0 43 -27q23 -64 71.5 -93t129.5 -29t129.5 29t71.5 93q11 27 43 27q19 0 43 -7q34 -9 50 -23.5zM902 1134.5
q124 -74.5 192 -213.5t68 -327t-68 -327t-192 -214t-288 -75t-288 75t-192 214t-68 327t68 327t192 213.5t288 74.5t288 -74.5zM401 874.5q-73 -97.5 -73 -280.5t73 -281t213 -98t213 98t73 281t-73 280.5t-213 97.5t-213 -97.5z" />
    <glyph glyph-name="Ocircumflex" unicode="&#xd4;" 
d="M655.5 1674.5q15.5 -5.5 29.5 -17.5l265 -225q22 -19 22 -42q0 -25 -25 -60q-30 -43 -60 -43q-16 0 -33 11l-240 138l-240 -138q-17 -11 -33 -11q-30 0 -60 43q-25 35 -25 60q0 23 22 42l265 225q14 12 29.5 17.5t41.5 5.5t41.5 -5.5zM902 1134.5q124 -74.5 192 -213.5
t68 -327t-68 -327t-192 -214t-288 -75t-288 75t-192 214t-68 327t68 327t192 213.5t288 74.5t288 -74.5zM401 874.5q-73 -97.5 -73 -280.5t73 -281t213 -98t213 98t73 281t-73 280.5t-213 97.5t-213 -97.5z" />
    <glyph glyph-name="Odieresis" unicode="&#xd6;" 
d="M490.5 1618.5q28.5 -14.5 28.5 -48.5v-164q0 -34 -26.5 -48.5t-96.5 -14.5t-98.5 14.5t-28.5 48.5v164q0 35 26 49t96 14q71 0 99.5 -14.5zM930.5 1618.5q28.5 -14.5 28.5 -48.5v-164q0 -34 -26.5 -48.5t-96.5 -14.5t-98.5 14.5t-28.5 48.5v164q0 35 26 49t96 14
q71 0 99.5 -14.5zM902 1134.5q124 -74.5 192 -213.5t68 -327t-68 -327t-192 -214t-288 -75t-288 75t-192 214t-68 327t68 327t192 213.5t288 74.5t288 -74.5zM401 874.5q-73 -97.5 -73 -280.5t73 -281t213 -98t213 98t73 281t-73 280.5t-213 97.5t-213 -97.5z" />
    <glyph glyph-name="Ograve" unicode="&#xd2;" 
d="M821 1448q21 -15 21 -43t-22 -63q-32 -51 -68 -51q-13 0 -23 6l-407 205q-24 12 -24 44q0 39 40 93q57 75 103 75q17 0 33 -11zM902 1134.5q124 -74.5 192 -213.5t68 -327t-68 -327t-192 -214t-288 -75t-288 75t-192 214t-68 327t68 327t192 213.5t288 74.5t288 -74.5z
M401 874.5q-73 -97.5 -73 -280.5t73 -281t213 -98t213 98t73 281t-73 280.5t-213 97.5t-213 -97.5z" />
    <glyph glyph-name="Ohungarumlaut" unicode="&#x150;" 
d="M727 1591q0 -15 -14 -27l-265 -240q-18 -16 -47 -16q-28 0 -67 15q-26 10 -39.5 22.5t-13.5 26.5q0 10 8 20l221 266q19 22 56 22q36 0 90 -24q71 -32 71 -65zM1157 1591q0 -15 -14 -27l-265 -240q-18 -16 -47 -16q-28 0 -67 15q-26 10 -39.5 22.5t-13.5 26.5q0 10 8 20
l221 266q19 22 56 22q36 0 90 -24q71 -32 71 -65zM902 1134.5q124 -74.5 192 -213.5t68 -327t-68 -327t-192 -214t-288 -75t-288 75t-192 214t-68 327t68 327t192 213.5t288 74.5t288 -74.5zM401 874.5q-73 -97.5 -73 -280.5t73 -281t213 -98t213 98t73 281t-73 280.5
t-213 97.5t-213 -97.5z" />
    <glyph glyph-name="Omacron" unicode="&#x14c;" 
d="M922 1536.5q13 -8.5 19.5 -30.5t6.5 -64t-6.5 -64t-19.5 -30t-37 -8h-542q-24 0 -37 8t-19.5 30t-6.5 64t6.5 64t19.5 30.5t37 8.5h542q24 0 37 -8.5zM902 1134.5q124 -74.5 192 -213.5t68 -327t-68 -327t-192 -214t-288 -75t-288 75t-192 214t-68 327t68 327t192 213.5
t288 74.5t288 -74.5zM401 874.5q-73 -97.5 -73 -280.5t73 -281t213 -98t213 98t73 281t-73 280.5t-213 97.5t-213 -97.5z" />
    <glyph glyph-name="Oslash" unicode="&#xd8;" 
d="M1128 834.5q34 -108.5 34 -240.5q0 -188 -68 -327t-192 -214t-288 -75q-151 0 -272 65l-74 -106q-20 -29 -44 -29t-68 31q-29 20 -42.5 36t-13.5 32q0 15 15 37l84 120q-65 80 -99 189t-34 241q0 188 68 327t192 213.5t288 74.5q152 0 272 -66l75 107q20 29 43 29t69 -31
q29 -20 42 -36t13 -32t-15 -37l-84 -120q65 -80 99 -188.5zM359 392l387 551q-58 29 -132 29q-140 0 -213 -97.5t-73 -280.5q0 -121 31 -202zM827 313q73 98 73 281q0 120 -31 201l-386 -551q56 -29 131 -29q140 0 213 98z" />
    <glyph glyph-name="Otilde" unicode="&#xd5;" 
d="M558 1629q33 -12 77 -34q36 -18 58.5 -26.5t46.5 -8.5q61 0 129 72q14 14 30 14q29 0 66 -40q36 -40 36 -76q0 -20 -10 -34q-51 -76 -115 -118.5t-133 -42.5q-40 0 -73 12t-77 34q-36 18 -58.5 26.5t-46.5 8.5q-61 0 -129 -72q-14 -14 -30 -14q-29 0 -66 40
q-36 40 -36 76q0 20 10 34q51 76 115 118.5t133 42.5q40 0 73 -12zM902 1134.5q124 -74.5 192 -213.5t68 -327t-68 -327t-192 -214t-288 -75t-288 75t-192 214t-68 327t68 327t192 213.5t288 74.5t288 -74.5zM401 874.5q-73 -97.5 -73 -280.5t73 -281t213 -98t213 98t73 281
t-73 280.5t-213 97.5t-213 -97.5z" />
    <glyph glyph-name="OE" unicode="&#x152;" 
d="M1154 225q13 -10 19.5 -35.5t6.5 -72.5t-6.5 -72.5t-19.5 -35t-37 -9.5h-513q-163 0 -287.5 70t-194 204t-69.5 320t69.5 320t194 203.5t287.5 69.5h493q24 0 37 -10t19.5 -35.5t6.5 -72.5t-6.5 -72.5t-19.5 -35t-37 -9.5h-297v-223h234q24 0 37 -10t19.5 -35.5
t6.5 -72.5t-6.5 -72.5t-19.5 -35t-37 -9.5h-234v-259h317q24 0 37 -10zM343.5 409.5q30.5 -76.5 84 -119.5t122.5 -52v711q-69 -9 -122.5 -51.5t-84 -119.5t-30.5 -184q0 -108 30.5 -184.5z" />
    <glyph glyph-name="P" unicode="P" 
d="M897 1135.5q105 -51.5 157.5 -146t52.5 -224.5t-52.5 -225t-157.5 -146.5t-257 -51.5h-190v-279q0 -34 -14.5 -48.5t-48.5 -14.5h-124q-34 0 -48.5 14.5t-14.5 48.5v1061q0 34 14.5 48.5t48.5 14.5h377q152 0 257 -51.5zM788.5 623q60.5 46 60.5 142t-60.5 141.5
t-179.5 45.5h-159v-375h159q119 0 179.5 46z" />
    <glyph glyph-name="Thorn" unicode="&#xde;" 
d="M974 876.5q113 -100.5 113 -281.5q0 -182 -113 -282.5t-334 -100.5h-180v-149q0 -34 -14.5 -48.5t-48.5 -14.5h-124q-34 0 -48.5 14.5t-14.5 48.5v1061q0 34 14.5 48.5t48.5 14.5h124q34 0 48.5 -14.5t14.5 -48.5v-147h180q221 0 334 -100.5zM829 595q0 74 -55 110.5
t-165 36.5h-149v-295h149q220 0 220 148z" />
    <glyph glyph-name="Q" unicode="Q" 
d="M1061 -2q12 -17 12 -33q0 -19 -18 -39.5t-59 -49.5q-63 -44 -94 -44q-13 0 -22.5 6t-19.5 19l-96 139q-70 -18 -150 -18q-164 0 -288 75t-192 214t-68 327t68 327t192 213.5t288 74.5t288 -74.5t192 -213.5t68 -327q0 -155 -47 -278t-134 -203zM401 313q73 -98 213 -98
q14 0 21 1l-91 130q-13 17 -13 35t16 37t53 44q56 40 86 40q24 0 43 -27l105 -151q66 96 66 270q0 183 -73 280.5t-213 97.5t-213 -97.5t-73 -280.5t73 -281z" />
    <glyph glyph-name="R" unicode="R" 
d="M1062 128q12 -18 12 -36q0 -21 -20.5 -40t-65.5 -38q-66 -27 -99 -27q-34 0 -53 31l-233 383h-163v-338q0 -34 -14.5 -48.5t-48.5 -14.5h-124q-34 0 -48.5 14.5t-14.5 48.5v1061q0 34 15 48.5t48 14.5h387q139 0 237 -46.5t149 -135t51 -211.5q0 -127 -54 -217t-157 -134
zM440 636h179q103 0 151.5 38t48.5 120t-48.5 120t-151.5 38h-179v-316z" />
    <glyph glyph-name="Racute" unicode="&#x154;" 
d="M488 1291q-36 0 -68 51q-22 35 -22 63t21 43l347 255q16 11 33 11q46 0 103 -75q40 -54 40 -93q0 -32 -24 -44l-407 -205q-10 -6 -23 -6zM1062 128q12 -18 12 -36q0 -21 -20.5 -40t-65.5 -38q-66 -27 -99 -27q-34 0 -53 31l-233 383h-163v-338q0 -34 -14.5 -48.5
t-48.5 -14.5h-124q-34 0 -48.5 14.5t-14.5 48.5v1061q0 34 15 48.5t48 14.5h387q139 0 237 -46.5t149 -135t51 -211.5q0 -127 -54 -217t-157 -134zM440 636h179q103 0 151.5 38t48.5 120t-48.5 120t-151.5 38h-179v-316z" />
    <glyph glyph-name="Rcaron" unicode="&#x158;" 
d="M246 1587q0 25 25 60q30 43 60 43q16 0 33 -11l240 -138l240 138q17 11 33 11q30 0 60 -43q25 -35 25 -60q0 -23 -22 -42l-265 -225q-14 -12 -29.5 -17.5t-41.5 -5.5t-41.5 5.5t-29.5 17.5l-265 225q-22 19 -22 42zM1062 128q12 -18 12 -36q0 -21 -20.5 -40t-65.5 -38
q-66 -27 -99 -27q-34 0 -53 31l-233 383h-163v-338q0 -34 -14.5 -48.5t-48.5 -14.5h-124q-34 0 -48.5 14.5t-14.5 48.5v1061q0 34 15 48.5t48 14.5h387q139 0 237 -46.5t149 -135t51 -211.5q0 -127 -54 -217t-157 -134zM440 636h179q103 0 151.5 38t48.5 120t-48.5 120
t-151.5 38h-179v-316z" />
    <glyph glyph-name="Rcommaaccent" unicode="&#x156;" 
d="M1062 128q12 -18 12 -36q0 -21 -20.5 -40t-65.5 -38q-66 -27 -99 -27q-34 0 -53 31l-233 383h-163v-338q0 -34 -14.5 -48.5t-48.5 -14.5h-124q-34 0 -48.5 14.5t-14.5 48.5v1061q0 34 15 48.5t48 14.5h387q139 0 237 -46.5t149 -135t51 -211.5q0 -127 -54 -217t-157 -134
zM440 636h179q103 0 151.5 38t48.5 120t-48.5 120t-151.5 38h-179v-316zM771 -169q0 -11 -4 -20l-124 -306q-10 -25 -33.5 -37t-67.5 -12q-50 0 -73.5 12.5t-23.5 39.5q0 8 1 13l59 306q2 13 12 20t24 7h206q24 0 24 -23z" />
    <glyph glyph-name="S" unicode="S" 
d="M801.5 1190q102.5 -19 192.5 -55q52 -20 52 -81q0 -24 -9 -59q-12 -46 -32 -68t-45 -22q-12 0 -25 5q-78 29 -169 45.5t-172 16.5q-87 0 -134.5 -34.5t-47.5 -94.5q0 -56 69 -80q28 -9 64.5 -15.5t92.5 -12.5q100 -13 166.5 -27t124.5 -45q74 -41 116 -113.5t42 -187.5
q0 -118 -54.5 -204.5t-159 -133t-252.5 -46.5q-109 0 -226 23t-201 64q-45 22 -45 74q0 30 13 69q14 43 34.5 63.5t43.5 20.5q16 0 30 -7q71 -34 163 -52t178 -18q103 0 157 34.5t54 97.5q0 39 -20 63.5t-59 40.5q-31 13 -70 20.5t-107 17.5q-93 14 -150.5 26.5t-108.5 37.5
q-75 37 -116.5 102.5t-41.5 172.5q0 116 54.5 202t155 132.5t235.5 46.5q105 0 207.5 -19z" />
    <glyph glyph-name="Sacute" unicode="&#x15a;" 
d="M787 1714q46 0 103 -75q40 -54 40 -93q0 -32 -24 -44l-407 -205q-11 -6 -23 -6q-36 0 -68 51q-22 35 -22 63t21 43l347 255q16 11 33 11zM801.5 1190q102.5 -19 192.5 -55q52 -20 52 -81q0 -24 -9 -59q-12 -46 -32 -68t-45 -22q-12 0 -25 5q-78 29 -169 45.5t-172 16.5
q-87 0 -134.5 -34.5t-47.5 -94.5q0 -56 69 -80q28 -9 64.5 -15.5t92.5 -12.5q100 -13 166.5 -27t124.5 -45q74 -41 116 -113.5t42 -187.5q0 -118 -54.5 -204.5t-159 -133t-252.5 -46.5q-109 0 -226 23t-201 64q-45 22 -45 74q0 30 13 69q14 43 34.5 63.5t43.5 20.5
q16 0 30 -7q71 -34 163 -52t178 -18q103 0 157 34.5t54 97.5q0 39 -20 63.5t-59 40.5q-31 13 -70 20.5t-107 17.5q-93 14 -150.5 26.5t-108.5 37.5q-75 37 -116.5 102.5t-41.5 172.5q0 116 54.5 202t155 132.5t235.5 46.5q105 0 207.5 -19z" />
    <glyph glyph-name="Scaron" unicode="&#x160;" 
d="M577.5 1302.5q-15.5 5.5 -29.5 17.5l-265 225q-22 19 -22 42q0 25 25 60q30 43 60 43q16 0 33 -11l240 -138l240 138q17 11 33 11q30 0 60 -43q25 -35 25 -60q0 -23 -22 -42l-265 -225q-14 -12 -29.5 -17.5t-41.5 -5.5t-41.5 5.5zM801.5 1190q102.5 -19 192.5 -55
q52 -20 52 -81q0 -24 -9 -59q-12 -46 -32 -68t-45 -22q-12 0 -25 5q-78 29 -169 45.5t-172 16.5q-87 0 -134.5 -34.5t-47.5 -94.5q0 -56 69 -80q28 -9 64.5 -15.5t92.5 -12.5q100 -13 166.5 -27t124.5 -45q74 -41 116 -113.5t42 -187.5q0 -118 -54.5 -204.5t-159 -133
t-252.5 -46.5q-109 0 -226 23t-201 64q-45 22 -45 74q0 30 13 69q14 43 34.5 63.5t43.5 20.5q16 0 30 -7q71 -34 163 -52t178 -18q103 0 157 34.5t54 97.5q0 39 -20 63.5t-59 40.5q-31 13 -70 20.5t-107 17.5q-93 14 -150.5 26.5t-108.5 37.5q-75 37 -116.5 102.5
t-41.5 172.5q0 116 54.5 202t155 132.5t235.5 46.5q105 0 207.5 -19z" />
    <glyph glyph-name="Scedilla" unicode="&#x15e;" 
d="M984.5 98.5q-102.5 -100.5 -290.5 -117.5v-64q107 0 161.5 -52.5t54.5 -137.5q0 -96 -71.5 -147.5t-207.5 -51.5q-147 0 -256 42q-24 10 -24 39q0 19 10 45q24 64 54 64q4 0 12 -2q82 -29 161 -29q49 0 72.5 12.5t23.5 38.5t-24 36.5t-67 10.5l-23 -1q-8 -1 -24 -1
q-37 0 -37 41v160q-86 8 -169 29t-146 52q-45 22 -45 74q0 30 13 69q14 43 34.5 63.5t43.5 20.5q16 0 30 -7q71 -34 163 -52t178 -18q103 0 157 34.5t54 97.5q0 39 -20 63.5t-59 40.5q-31 13 -70 20.5t-107 17.5q-93 14 -150.5 26.5t-108.5 37.5q-75 37 -116.5 102.5
t-41.5 172.5q0 116 54.5 202t155 132.5t235.5 46.5q105 0 207.5 -19t192.5 -55q52 -20 52 -81q0 -24 -9 -59q-12 -46 -32 -68t-45 -22q-12 0 -25 5q-78 29 -169 45.5t-172 16.5q-87 0 -134.5 -34.5t-47.5 -94.5q0 -56 69 -80q28 -9 64.5 -15.5t92.5 -12.5q100 -13 166.5 -27
t124.5 -45q74 -41 116 -113.5t42 -187.5q0 -163 -102.5 -263.5z" />
    <glyph glyph-name="Scircumflex" unicode="&#x15c;" 
d="M666.5 1674.5q15.5 -5.5 29.5 -17.5l265 -225q22 -19 22 -42q0 -25 -25 -60q-30 -43 -60 -43q-16 0 -33 11l-240 138l-240 -138q-17 -11 -33 -11q-30 0 -60 43q-25 35 -25 60q0 23 22 42l265 225q14 12 29.5 17.5t41.5 5.5t41.5 -5.5zM801.5 1190q102.5 -19 192.5 -55
q52 -20 52 -81q0 -24 -9 -59q-12 -46 -32 -68t-45 -22q-12 0 -25 5q-78 29 -169 45.5t-172 16.5q-87 0 -134.5 -34.5t-47.5 -94.5q0 -56 69 -80q28 -9 64.5 -15.5t92.5 -12.5q100 -13 166.5 -27t124.5 -45q74 -41 116 -113.5t42 -187.5q0 -118 -54.5 -204.5t-159 -133
t-252.5 -46.5q-109 0 -226 23t-201 64q-45 22 -45 74q0 30 13 69q14 43 34.5 63.5t43.5 20.5q16 0 30 -7q71 -34 163 -52t178 -18q103 0 157 34.5t54 97.5q0 39 -20 63.5t-59 40.5q-31 13 -70 20.5t-107 17.5q-93 14 -150.5 26.5t-108.5 37.5q-75 37 -116.5 102.5
t-41.5 172.5q0 116 54.5 202t155 132.5t235.5 46.5q105 0 207.5 -19z" />
    <glyph glyph-name="Scommaaccent" unicode="&#x218;" 
d="M801.5 1190q102.5 -19 192.5 -55q52 -20 52 -81q0 -24 -9 -59q-12 -46 -32 -68t-45 -22q-12 0 -25 5q-78 29 -169 45.5t-172 16.5q-87 0 -134.5 -34.5t-47.5 -94.5q0 -56 69 -80q28 -9 64.5 -15.5t92.5 -12.5q100 -13 166.5 -27t124.5 -45q74 -41 116 -113.5t42 -187.5
q0 -118 -54.5 -204.5t-159 -133t-252.5 -46.5q-109 0 -226 23t-201 64q-45 22 -45 74q0 30 13 69q14 43 34.5 63.5t43.5 20.5q16 0 30 -7q71 -34 163 -52t178 -18q103 0 157 34.5t54 97.5q0 39 -20 63.5t-59 40.5q-31 13 -70 20.5t-107 17.5q-93 14 -150.5 26.5t-108.5 37.5
q-75 37 -116.5 102.5t-41.5 172.5q0 116 54.5 202t155 132.5t235.5 46.5q105 0 207.5 -19zM751 -169q0 -11 -4 -20l-124 -306q-10 -25 -33.5 -37t-67.5 -12q-50 0 -73.5 12.5t-23.5 39.5q0 8 1 13l59 306q2 13 12 20t24 7h206q24 0 24 -23z" />
    <glyph glyph-name="T" unicode="T" 
d="M1102 1177q13 -10 19.5 -35.5t6.5 -72.5t-6.5 -72.5t-19.5 -35t-37 -9.5h-326v-889q0 -34 -14.5 -48.5t-48.5 -14.5h-124q-34 0 -48.5 14.5t-14.5 48.5v889h-326q-24 0 -37 9.5t-19.5 35t-6.5 72.5t6.5 72.5t19.5 35.5t37 10h902q24 0 37 -10z" />
    <glyph glyph-name="Tbar" unicode="&#x166;" 
d="M1102 1177q13 -10 19.5 -35.5t6.5 -72.5t-6.5 -72.5t-19.5 -35t-37 -9.5h-326v-377h206q24 0 37 -9t19.5 -33t6.5 -71t-6.5 -71t-19.5 -32.5t-37 -8.5h-206v-287q0 -34 -14.5 -48.5t-48.5 -14.5h-124q-34 0 -48.5 14.5t-14.5 48.5v287h-206q-24 0 -37 8.5t-19.5 32.5
t-6.5 71t6.5 71t19.5 33t37 9h206v377h-326q-24 0 -37 9.5t-19.5 35t-6.5 72.5t6.5 72.5t19.5 35.5t37 10h902q24 0 37 -10z" />
    <glyph glyph-name="Tcaron" unicode="&#x164;" 
d="M256 1587q0 25 25 60q30 43 60 43q16 0 33 -11l240 -138l240 138q17 11 33 11q30 0 60 -43q25 -35 25 -60q0 -23 -22 -42l-265 -225q-14 -12 -29.5 -17.5t-41.5 -5.5t-41.5 5.5t-29.5 17.5l-265 225q-22 19 -22 42zM1102 1177q13 -10 19.5 -35.5t6.5 -72.5t-6.5 -72.5
t-19.5 -35t-37 -9.5h-326v-889q0 -34 -14.5 -48.5t-48.5 -14.5h-124q-34 0 -48.5 14.5t-14.5 48.5v889h-326q-24 0 -37 9.5t-19.5 35t-6.5 72.5t6.5 72.5t19.5 35.5t37 10h902q24 0 37 -10z" />
    <glyph glyph-name="uni0162" unicode="&#x162;" 
d="M1102 1177q13 -10 19.5 -35.5t6.5 -72.5t-6.5 -72.5t-19.5 -35t-37 -9.5h-326v-889q0 -24 -6.5 -37.5t-21.5 -19.5v-89q107 0 161.5 -52.5t54.5 -137.5q0 -96 -71.5 -147.5t-207.5 -51.5q-147 0 -256 42q-24 10 -24 39q0 19 10 45q24 64 54 64q4 0 12 -2q82 -29 161 -29
q49 0 72.5 12.5t23.5 38.5t-24 36.5t-67 10.5l-23 -1q-8 -1 -24 -1q-37 0 -37 41v179q-19 4 -28 19t-9 41v889h-326q-24 0 -37 9.5t-19.5 35t-6.5 72.5t6.5 72.5t19.5 35.5t37 10h902q24 0 37 -10z" />
    <glyph glyph-name="uni021A" unicode="&#x21a;" 
d="M1102 1177q13 -10 19.5 -35.5t6.5 -72.5t-6.5 -72.5t-19.5 -35t-37 -9.5h-326v-889q0 -34 -14.5 -48.5t-48.5 -14.5h-124q-34 0 -48.5 14.5t-14.5 48.5v889h-326q-24 0 -37 9.5t-19.5 35t-6.5 72.5t6.5 72.5t19.5 35.5t37 10h902q24 0 37 -10zM757 -169q0 -11 -4 -20
l-124 -306q-10 -25 -33.5 -37t-67.5 -12q-50 0 -73.5 12.5t-23.5 39.5q0 8 1 13l59 306q2 13 12 20t24 7h206q24 0 24 -23z" />
    <glyph glyph-name="U" unicode="U" 
d="M1073.5 1172.5q14.5 -14.5 14.5 -48.5v-691q0 -143 -57.5 -245.5t-164.5 -156t-252 -53.5t-252 53.5t-164.5 156t-57.5 245.5v691q0 34 14.5 48.5t48.5 14.5h124q34 0 48.5 -14.5t14.5 -48.5v-671q0 -119 61 -178.5t163 -59.5t163 59.5t61 178.5v671q0 34 14.5 48.5
t48.5 14.5h124q34 0 48.5 -14.5z" />
    <glyph glyph-name="Uacute" unicode="&#xda;" 
d="M829 1714q46 0 103 -75q40 -54 40 -93q0 -32 -24 -44l-407 -205q-10 -6 -23 -6q-36 0 -68 51q-22 35 -22 63t21 43l347 255q16 11 33 11zM1073.5 1172.5q14.5 -14.5 14.5 -48.5v-691q0 -143 -57.5 -245.5t-164.5 -156t-252 -53.5t-252 53.5t-164.5 156t-57.5 245.5v691
q0 34 14.5 48.5t48.5 14.5h124q34 0 48.5 -14.5t14.5 -48.5v-671q0 -119 61 -178.5t163 -59.5t163 59.5t61 178.5v671q0 34 14.5 48.5t48.5 14.5h124q34 0 48.5 -14.5z" />
    <glyph glyph-name="Ubreve" unicode="&#x16c;" 
d="M951 1633.5q16 -14.5 16 -35.5q0 -9 -1 -13q-24 -127 -114 -200.5t-238 -73.5t-238 73.5t-114 200.5q-1 4 -1 13q0 21 16 35.5t50 23.5q24 7 43 7q32 0 43 -27q23 -64 71.5 -93t129.5 -29t129.5 29t71.5 93q11 27 43 27q19 0 43 -7q34 -9 50 -23.5zM1073.5 1172.5
q14.5 -14.5 14.5 -48.5v-691q0 -143 -57.5 -245.5t-164.5 -156t-252 -53.5t-252 53.5t-164.5 156t-57.5 245.5v691q0 34 14.5 48.5t48.5 14.5h124q34 0 48.5 -14.5t14.5 -48.5v-671q0 -119 61 -178.5t163 -59.5t163 59.5t61 178.5v671q0 34 14.5 48.5t48.5 14.5h124
q34 0 48.5 -14.5z" />
    <glyph glyph-name="Ucircumflex" unicode="&#xdb;" 
d="M655.5 1674.5q15.5 -5.5 29.5 -17.5l265 -225q22 -19 22 -42q0 -25 -25 -60q-30 -43 -60 -43q-16 0 -33 11l-240 138l-240 -138q-17 -11 -33 -11q-30 0 -60 43q-25 35 -25 60q0 23 22 42l265 225q14 12 29.5 17.5t41.5 5.5t41.5 -5.5zM1073.5 1172.5
q14.5 -14.5 14.5 -48.5v-691q0 -143 -57.5 -245.5t-164.5 -156t-252 -53.5t-252 53.5t-164.5 156t-57.5 245.5v691q0 34 14.5 48.5t48.5 14.5h124q34 0 48.5 -14.5t14.5 -48.5v-671q0 -119 61 -178.5t163 -59.5t163 59.5t61 178.5v671q0 34 14.5 48.5t48.5 14.5h124
q34 0 48.5 -14.5z" />
    <glyph glyph-name="Udieresis" unicode="&#xdc;" 
d="M490.5 1618.5q28.5 -14.5 28.5 -48.5v-164q0 -34 -26.5 -48.5t-96.5 -14.5t-98.5 14.5t-28.5 48.5v164q0 35 26 49t96 14q71 0 99.5 -14.5zM930.5 1618.5q28.5 -14.5 28.5 -48.5v-164q0 -34 -26.5 -48.5t-96.5 -14.5t-98.5 14.5t-28.5 48.5v164q0 35 26 49t96 14
q71 0 99.5 -14.5zM1073.5 1172.5q14.5 -14.5 14.5 -48.5v-691q0 -143 -57.5 -245.5t-164.5 -156t-252 -53.5t-252 53.5t-164.5 156t-57.5 245.5v691q0 34 14.5 48.5t48.5 14.5h124q34 0 48.5 -14.5t14.5 -48.5v-671q0 -119 61 -178.5t163 -59.5t163 59.5t61 178.5v671
q0 34 14.5 48.5t48.5 14.5h124q34 0 48.5 -14.5z" />
    <glyph glyph-name="Ugrave" unicode="&#xd9;" 
d="M779 1448q21 -15 21 -43t-22 -63q-32 -51 -68 -51q-13 0 -23 6l-407 205q-24 12 -24 44q0 39 40 93q57 75 103 75q17 0 33 -11zM1073.5 1172.5q14.5 -14.5 14.5 -48.5v-691q0 -143 -57.5 -245.5t-164.5 -156t-252 -53.5t-252 53.5t-164.5 156t-57.5 245.5v691
q0 34 14.5 48.5t48.5 14.5h124q34 0 48.5 -14.5t14.5 -48.5v-671q0 -119 61 -178.5t163 -59.5t163 59.5t61 178.5v671q0 34 14.5 48.5t48.5 14.5h124q34 0 48.5 -14.5z" />
    <glyph glyph-name="Uhungarumlaut" unicode="&#x170;" 
d="M727 1591q0 -15 -14 -27l-265 -240q-18 -16 -47 -16q-28 0 -67 15q-26 10 -39.5 22.5t-13.5 26.5q0 10 8 20l221 266q19 22 56 22q36 0 90 -24q71 -32 71 -65zM1157 1591q0 -15 -14 -27l-265 -240q-18 -16 -47 -16q-28 0 -67 15q-26 10 -39.5 22.5t-13.5 26.5q0 10 8 20
l221 266q19 22 56 22q36 0 90 -24q71 -32 71 -65zM1073.5 1172.5q14.5 -14.5 14.5 -48.5v-691q0 -143 -57.5 -245.5t-164.5 -156t-252 -53.5t-252 53.5t-164.5 156t-57.5 245.5v691q0 34 14.5 48.5t48.5 14.5h124q34 0 48.5 -14.5t14.5 -48.5v-671q0 -119 61 -178.5
t163 -59.5t163 59.5t61 178.5v671q0 34 14.5 48.5t48.5 14.5h124q34 0 48.5 -14.5z" />
    <glyph glyph-name="Umacron" unicode="&#x16a;" 
d="M922 1536.5q13 -8.5 19.5 -30.5t6.5 -64t-6.5 -64t-19.5 -30t-37 -8h-542q-24 0 -37 8t-19.5 30t-6.5 64t6.5 64t19.5 30.5t37 8.5h542q24 0 37 -8.5zM1073.5 1172.5q14.5 -14.5 14.5 -48.5v-691q0 -143 -57.5 -245.5t-164.5 -156t-252 -53.5t-252 53.5t-164.5 156
t-57.5 245.5v691q0 34 14.5 48.5t48.5 14.5h124q34 0 48.5 -14.5t14.5 -48.5v-671q0 -119 61 -178.5t163 -59.5t163 59.5t61 178.5v671q0 34 14.5 48.5t48.5 14.5h124q34 0 48.5 -14.5z" />
    <glyph glyph-name="Uogonek" unicode="&#x172;" 
d="M1073.5 1172.5q14.5 -14.5 14.5 -48.5v-691q0 -149 -62 -253.5t-177 -155.5q-187 -140 -187 -235q0 -67 88 -67q46 0 120 13q51 8 51 -97q0 -33 -10 -51t-30 -25q-102 -34 -216 -34q-118 0 -182 52t-64 151q0 73 40.5 133t115.5 115q-134 7 -231.5 62.5t-150.5 155
t-53 236.5v691q0 34 14.5 48.5t48.5 14.5h124q34 0 48.5 -14.5t14.5 -48.5v-671q0 -119 61 -178.5t163 -59.5t163 59.5t61 178.5v671q0 34 14.5 48.5t48.5 14.5h124q34 0 48.5 -14.5z" />
    <glyph glyph-name="Uring" unicode="&#x16e;" 
d="M748 1763q60 -34 94 -94t34 -134t-34 -134t-94 -94t-134 -34t-134 34t-94 94t-34 134t34 134t94 94t134 34t134 -34zM547 1602q-25 -25 -25 -67t25 -67t67 -25t67 25t25 67t-25 67t-67 25t-67 -25zM1073.5 1172.5q14.5 -14.5 14.5 -48.5v-691q0 -143 -57.5 -245.5
t-164.5 -156t-252 -53.5t-252 53.5t-164.5 156t-57.5 245.5v691q0 34 14.5 48.5t48.5 14.5h124q34 0 48.5 -14.5t14.5 -48.5v-671q0 -119 61 -178.5t163 -59.5t163 59.5t61 178.5v671q0 34 14.5 48.5t48.5 14.5h124q34 0 48.5 -14.5z" />
    <glyph glyph-name="Utilde" unicode="&#x168;" 
d="M558 1629q33 -12 77 -34q36 -18 58.5 -26.5t46.5 -8.5q61 0 129 72q14 14 30 14q29 0 66 -40q36 -40 36 -76q0 -20 -10 -34q-51 -76 -115 -118.5t-133 -42.5q-40 0 -73 12t-77 34q-36 18 -58.5 26.5t-46.5 8.5q-61 0 -129 -72q-14 -14 -30 -14q-29 0 -66 40
q-36 40 -36 76q0 20 10 34q51 76 115 118.5t133 42.5q40 0 73 -12zM1073.5 1172.5q14.5 -14.5 14.5 -48.5v-691q0 -143 -57.5 -245.5t-164.5 -156t-252 -53.5t-252 53.5t-164.5 156t-57.5 245.5v691q0 34 14.5 48.5t48.5 14.5h124q34 0 48.5 -14.5t14.5 -48.5v-671
q0 -119 61 -178.5t163 -59.5t163 59.5t61 178.5v671q0 34 14.5 48.5t48.5 14.5h124q34 0 48.5 -14.5z" />
    <glyph glyph-name="V" unicode="V" 
d="M1129.5 1159q24.5 -18 24.5 -42q0 -12 -6 -27l-407 -1047q-14 -36 -43 -50.5t-90 -14.5t-89.5 15t-41.5 50l-394 1047q-5 15 -5 26q0 24 24.5 42t79.5 31q51 12 82 12q29 0 45.5 -10t24.5 -31l278 -766l288 766q8 21 24.5 31t44.5 10q31 0 82 -12q54 -12 78.5 -30z" />
    <glyph glyph-name="W" unicode="W" 
d="M1148.5 1180.5q24.5 -16.5 20.5 -51.5l-117 -1074q-3 -26 -13.5 -39.5t-36 -19.5t-73.5 -6q-68 0 -97.5 15t-43.5 50l-176 422l-176 -422q-14 -35 -43.5 -50t-97.5 -15q-48 0 -73.5 6t-36 19.5t-13.5 39.5l-117 1074q-4 34 21.5 51t90.5 17q68 0 99.5 -13.5t34.5 -45.5
l67 -672l151 365q10 22 30 33t67 11t67 -11t30 -33l151 -365l68 672q3 32 32 45.5t96 13.5q64 0 88.5 -16.5z" />
    <glyph glyph-name="Wacute" unicode="&#x1e82;" 
d="M819 1714q46 0 103 -75q40 -54 40 -93q0 -32 -24 -44l-407 -205q-11 -6 -23 -6q-36 0 -68 51q-22 35 -22 63t21 43l347 255q16 11 33 11zM1148.5 1180.5q24.5 -16.5 20.5 -51.5l-117 -1074q-3 -26 -13.5 -39.5t-36 -19.5t-73.5 -6q-68 0 -97.5 15t-43.5 50l-176 422
l-176 -422q-14 -35 -43.5 -50t-97.5 -15q-48 0 -73.5 6t-36 19.5t-13.5 39.5l-117 1074q-4 34 21.5 51t90.5 17q68 0 99.5 -13.5t34.5 -45.5l67 -672l151 365q10 22 30 33t67 11t67 -11t30 -33l151 -365l68 672q3 32 32 45.5t96 13.5q64 0 88.5 -16.5z" />
    <glyph glyph-name="Wcircumflex" unicode="&#x174;" 
d="M660.5 1674.5q15.5 -5.5 29.5 -17.5l265 -225q22 -19 22 -42q0 -25 -25 -60q-30 -43 -60 -43q-16 0 -33 11l-240 138l-240 -138q-17 -11 -33 -11q-30 0 -60 43q-25 35 -25 60q0 23 22 42l265 225q14 12 29.5 17.5t41.5 5.5t41.5 -5.5zM1148.5 1180.5
q24.5 -16.5 20.5 -51.5l-117 -1074q-3 -26 -13.5 -39.5t-36 -19.5t-73.5 -6q-68 0 -97.5 15t-43.5 50l-176 422l-176 -422q-14 -35 -43.5 -50t-97.5 -15q-48 0 -73.5 6t-36 19.5t-13.5 39.5l-117 1074q-4 34 21.5 51t90.5 17q68 0 99.5 -13.5t34.5 -45.5l67 -672l151 365
q10 22 30 33t67 11t67 -11t30 -33l151 -365l68 672q3 32 32 45.5t96 13.5q64 0 88.5 -16.5z" />
    <glyph glyph-name="Wdieresis" unicode="&#x1e84;" 
d="M495.5 1618.5q28.5 -14.5 28.5 -48.5v-164q0 -34 -26.5 -48.5t-96.5 -14.5t-98.5 14.5t-28.5 48.5v164q0 35 26 49t96 14q71 0 99.5 -14.5zM935.5 1618.5q28.5 -14.5 28.5 -48.5v-164q0 -34 -26.5 -48.5t-96.5 -14.5t-98.5 14.5t-28.5 48.5v164q0 35 26 49t96 14
q71 0 99.5 -14.5zM1148.5 1180.5q24.5 -16.5 20.5 -51.5l-117 -1074q-3 -26 -13.5 -39.5t-36 -19.5t-73.5 -6q-68 0 -97.5 15t-43.5 50l-176 422l-176 -422q-14 -35 -43.5 -50t-97.5 -15q-48 0 -73.5 6t-36 19.5t-13.5 39.5l-117 1074q-4 34 21.5 51t90.5 17
q68 0 99.5 -13.5t34.5 -45.5l67 -672l151 365q10 22 30 33t67 11t67 -11t30 -33l151 -365l68 672q3 32 32 45.5t96 13.5q64 0 88.5 -16.5z" />
    <glyph glyph-name="Wgrave" unicode="&#x1e80;" 
d="M789 1448q21 -15 21 -43t-22 -63q-32 -51 -68 -51q-13 0 -23 6l-407 205q-24 12 -24 44q0 39 40 93q57 75 103 75q17 0 33 -11zM1148.5 1180.5q24.5 -16.5 20.5 -51.5l-117 -1074q-3 -26 -13.5 -39.5t-36 -19.5t-73.5 -6q-68 0 -97.5 15t-43.5 50l-176 422l-176 -422
q-14 -35 -43.5 -50t-97.5 -15q-48 0 -73.5 6t-36 19.5t-13.5 39.5l-117 1074q-4 34 21.5 51t90.5 17q68 0 99.5 -13.5t34.5 -45.5l67 -672l151 365q10 22 30 33t67 11t67 -11t30 -33l151 -365l68 672q3 32 32 45.5t96 13.5q64 0 88.5 -16.5z" />
    <glyph glyph-name="X" unicode="X" 
d="M1116 94q0 -43 -90 -80q-64 -27 -100 -27q-19 0 -32.5 7.5t-24.5 23.5l-259 387l-255 -387q-19 -31 -56 -31q-34 0 -99 27q-88 36 -88 79q0 17 12 35l322 475l-309 456q-13 20 -13 35q0 43 87 79q64 27 100 27q38 0 57 -31l248 -377l248 377q19 31 56 31q35 0 99 -27
q45 -19 65 -38t20 -40q0 -16 -13 -36l-310 -454l323 -477q12 -16 12 -34z" />
    <glyph glyph-name="Y" unicode="Y" 
d="M1130 1096q0 -17 -12 -37l-379 -607v-389q0 -34 -14.5 -48.5t-48.5 -14.5h-124q-34 0 -48.5 14.5t-14.5 48.5v389l-379 607q-12 18 -12 36q0 21 20.5 40t65.5 38q66 27 99 27q34 0 53 -31l280 -461l280 461q10 16 22 23.5t30 7.5q32 0 98 -27q84 -36 84 -77z" />
    <glyph glyph-name="Yacute" unicode="&#xdd;" 
d="M508 1291q-36 0 -68 51q-22 35 -22 63t21 43l347 255q16 11 33 11q46 0 103 -75q40 -54 40 -93q0 -32 -24 -44l-407 -205q-11 -6 -23 -6zM1130 1096q0 -17 -12 -37l-379 -607v-389q0 -34 -14.5 -48.5t-48.5 -14.5h-124q-34 0 -48.5 14.5t-14.5 48.5v389l-379 607
q-12 18 -12 36q0 21 20.5 40t65.5 38q66 27 99 27q34 0 53 -31l280 -461l280 461q10 16 22 23.5t30 7.5q32 0 98 -27q84 -36 84 -77z" />
    <glyph glyph-name="Ycircumflex" unicode="&#x176;" 
d="M341 1287q-30 0 -60 43q-25 35 -25 60q0 23 22 42l265 225q14 12 29.5 17.5t41.5 5.5t41.5 -5.5t29.5 -17.5l265 -225q22 -19 22 -42q0 -25 -25 -60q-30 -43 -60 -43q-16 0 -33 11l-240 138l-240 -138q-17 -11 -33 -11zM1130 1096q0 -17 -12 -37l-379 -607v-389
q0 -34 -14.5 -48.5t-48.5 -14.5h-124q-34 0 -48.5 14.5t-14.5 48.5v389l-379 607q-12 18 -12 36q0 21 20.5 40t65.5 38q66 27 99 27q34 0 53 -31l280 -461l280 461q10 16 22 23.5t30 7.5q32 0 98 -27q84 -36 84 -77z" />
    <glyph glyph-name="Ydieresis" unicode="&#x178;" 
d="M297.5 1357.5q-28.5 14.5 -28.5 48.5v164q0 35 26 49t96 14q71 0 99.5 -14.5t28.5 -48.5v-164q0 -34 -26.5 -48.5t-96.5 -14.5t-98.5 14.5zM737.5 1357.5q-28.5 14.5 -28.5 48.5v164q0 35 26 49t96 14q71 0 99.5 -14.5t28.5 -48.5v-164q0 -34 -26.5 -48.5t-96.5 -14.5
t-98.5 14.5zM1130 1096q0 -17 -12 -37l-379 -607v-389q0 -34 -14.5 -48.5t-48.5 -14.5h-124q-34 0 -48.5 14.5t-14.5 48.5v389l-379 607q-12 18 -12 36q0 21 20.5 40t65.5 38q66 27 99 27q34 0 53 -31l280 -461l280 461q10 16 22 23.5t30 7.5q32 0 98 -27q84 -36 84 -77z
" />
    <glyph glyph-name="Ygrave" unicode="&#x1ef2;" 
d="M266 1546q0 39 40 93q57 75 103 75q17 0 33 -11l347 -255q21 -15 21 -43t-22 -63q-32 -51 -68 -51q-13 0 -23 6l-407 205q-24 12 -24 44zM1130 1096q0 -17 -12 -37l-379 -607v-389q0 -34 -14.5 -48.5t-48.5 -14.5h-124q-34 0 -48.5 14.5t-14.5 48.5v389l-379 607
q-12 18 -12 36q0 21 20.5 40t65.5 38q66 27 99 27q34 0 53 -31l280 -461l280 461q10 16 22 23.5t30 7.5q32 0 98 -27q84 -36 84 -77z" />
    <glyph glyph-name="Z" unicode="Z" 
d="M1064 225q13 -10 19.5 -35.5t6.5 -72.5t-6.5 -72.5t-19.5 -35t-37 -9.5h-826q-24 0 -37 8t-19.5 30t-6.5 64q0 66 20 93l549 757h-486q-24 0 -37 9.5t-19.5 35t-6.5 72.5t6.5 72.5t19.5 35.5t37 10h786q24 0 37 -8.5t19.5 -30.5t6.5 -64q0 -61 -23 -92l-549 -757h529
q24 0 37 -10z" />
    <glyph glyph-name="Zacute" unicode="&#x179;" 
d="M496 1291q-36 0 -68 51q-22 35 -22 63t21 43l347 255q16 11 33 11q46 0 103 -75q40 -54 40 -93q0 -32 -24 -44l-407 -205q-10 -6 -23 -6zM1064 225q13 -10 19.5 -35.5t6.5 -72.5t-6.5 -72.5t-19.5 -35t-37 -9.5h-826q-24 0 -37 8t-19.5 30t-6.5 64q0 66 20 93l549 757
h-486q-24 0 -37 9.5t-19.5 35t-6.5 72.5t6.5 72.5t19.5 35.5t37 10h786q24 0 37 -8.5t19.5 -30.5t6.5 -64q0 -61 -23 -92l-549 -757h529q24 0 37 -10z" />
    <glyph glyph-name="Zcaron" unicode="&#x17d;" 
d="M264 1587q0 25 25 60q30 43 60 43q16 0 33 -11l240 -138l240 138q17 11 33 11q30 0 60 -43q25 -35 25 -60q0 -23 -22 -42l-265 -225q-14 -12 -29.5 -17.5t-41.5 -5.5t-41.5 5.5t-29.5 17.5l-265 225q-22 19 -22 42zM1064 225q13 -10 19.5 -35.5t6.5 -72.5t-6.5 -72.5
t-19.5 -35t-37 -9.5h-826q-24 0 -37 8t-19.5 30t-6.5 64q0 66 20 93l549 757h-486q-24 0 -37 9.5t-19.5 35t-6.5 72.5t6.5 72.5t19.5 35.5t37 10h786q24 0 37 -8.5t19.5 -30.5t6.5 -64q0 -61 -23 -92l-549 -757h529q24 0 37 -10z" />
    <glyph glyph-name="Zdotaccent" unicode="&#x17b;" 
d="M517.5 1357.5q-28.5 14.5 -28.5 48.5v164q0 35 26 49t96 14q71 0 99.5 -14.5t28.5 -48.5v-164q0 -34 -26.5 -48.5t-96.5 -14.5t-98.5 14.5zM1064 225q13 -10 19.5 -35.5t6.5 -72.5t-6.5 -72.5t-19.5 -35t-37 -9.5h-826q-24 0 -37 8t-19.5 30t-6.5 64q0 66 20 93l549 757
h-486q-24 0 -37 9.5t-19.5 35t-6.5 72.5t6.5 72.5t19.5 35.5t37 10h786q24 0 37 -8.5t19.5 -30.5t6.5 -64q0 -61 -23 -92l-549 -757h529q24 0 37 -10z" />
    <glyph glyph-name="a" unicode="a" 
d="M945 851q98 -95 98 -272v-516q0 -34 -14.5 -48.5t-48.5 -14.5h-94q-34 0 -48.5 14.5t-14.5 48.5v26q-156 -111 -325 -111q-112 0 -192.5 38.5t-123 110t-42.5 168.5q0 140 97.5 217t272.5 77q133 0 283 -30v29q0 67 -42 99t-148 32q-59 0 -131.5 -14.5t-143.5 -38.5
q-17 -5 -29 -5q-25 0 -44.5 18.5t-35.5 62.5q-15 43 -15 72q0 51 46 68q89 32 189 48t188 16q220 0 318 -95zM427.5 213.5q35.5 -24.5 102.5 -24.5q69 0 136.5 27.5t126.5 75.5v64q-132 27 -258 27q-70 0 -106.5 -25t-36.5 -73q0 -47 35.5 -71.5z" />
    <glyph glyph-name="aacute" unicode="&#xe1;" 
d="M498 1021q-36 0 -68 51q-22 35 -22 63t21 43l347 255q16 11 33 11q46 0 103 -75q40 -54 40 -93q0 -32 -24 -44l-407 -205q-10 -6 -23 -6zM945 851q98 -95 98 -272v-516q0 -34 -14.5 -48.5t-48.5 -14.5h-94q-34 0 -48.5 14.5t-14.5 48.5v26q-156 -111 -325 -111
q-112 0 -192.5 38.5t-123 110t-42.5 168.5q0 140 97.5 217t272.5 77q133 0 283 -30v29q0 67 -42 99t-148 32q-59 0 -131.5 -14.5t-143.5 -38.5q-17 -5 -29 -5q-25 0 -44.5 18.5t-35.5 62.5q-15 43 -15 72q0 51 46 68q89 32 189 48t188 16q220 0 318 -95zM427.5 213.5
q35.5 -24.5 102.5 -24.5q69 0 136.5 27.5t126.5 75.5v64q-132 27 -258 27q-70 0 -106.5 -25t-36.5 -73q0 -47 35.5 -71.5z" />
    <glyph glyph-name="abreve" unicode="&#x103;" 
d="M399 1114.5q-90 73.5 -114 200.5q-1 4 -1 13q0 21 16 35.5t50 23.5q24 7 43 7q33 0 43 -27q23 -64 71.5 -93t129.5 -29t129.5 29t71.5 93q11 27 43 27q19 0 43 -7q34 -9 50 -23.5t16 -35.5q0 -9 -1 -13q-24 -127 -114 -200.5t-238 -73.5t-238 73.5zM945 851
q98 -95 98 -272v-516q0 -34 -14.5 -48.5t-48.5 -14.5h-94q-34 0 -48.5 14.5t-14.5 48.5v26q-156 -111 -325 -111q-112 0 -192.5 38.5t-123 110t-42.5 168.5q0 140 97.5 217t272.5 77q133 0 283 -30v29q0 67 -42 99t-148 32q-59 0 -131.5 -14.5t-143.5 -38.5q-17 -5 -29 -5
q-25 0 -44.5 18.5t-35.5 62.5q-15 43 -15 72q0 51 46 68q89 32 189 48t188 16q220 0 318 -95zM427.5 213.5q35.5 -24.5 102.5 -24.5q69 0 136.5 27.5t126.5 75.5v64q-132 27 -258 27q-70 0 -106.5 -25t-36.5 -73q0 -47 35.5 -71.5z" />
    <glyph glyph-name="acircumflex" unicode="&#xe2;" 
d="M361 1017q-30 0 -60 43q-25 35 -25 60q0 23 22 42l265 225q14 12 29.5 17.5t41.5 5.5t41.5 -5.5t29.5 -17.5l265 -225q22 -19 22 -42q0 -25 -25 -60q-30 -43 -60 -43q-16 0 -33 11l-240 138l-240 -138q-17 -11 -33 -11zM945 851q98 -95 98 -272v-516q0 -34 -14.5 -48.5
t-48.5 -14.5h-94q-34 0 -48.5 14.5t-14.5 48.5v26q-156 -111 -325 -111q-112 0 -192.5 38.5t-123 110t-42.5 168.5q0 140 97.5 217t272.5 77q133 0 283 -30v29q0 67 -42 99t-148 32q-59 0 -131.5 -14.5t-143.5 -38.5q-17 -5 -29 -5q-25 0 -44.5 18.5t-35.5 62.5
q-15 43 -15 72q0 51 46 68q89 32 189 48t188 16q220 0 318 -95zM427.5 213.5q35.5 -24.5 102.5 -24.5q69 0 136.5 27.5t126.5 75.5v64q-132 27 -258 27q-70 0 -106.5 -25t-36.5 -73q0 -47 35.5 -71.5z" />
    <glyph glyph-name="adieresis" unicode="&#xe4;" 
d="M307.5 1087.5q-28.5 14.5 -28.5 48.5v164q0 35 26 49t96 14q71 0 99.5 -14.5t28.5 -48.5v-164q0 -34 -26.5 -48.5t-96.5 -14.5t-98.5 14.5zM747.5 1087.5q-28.5 14.5 -28.5 48.5v164q0 35 26 49t96 14q71 0 99.5 -14.5t28.5 -48.5v-164q0 -34 -26.5 -48.5t-96.5 -14.5
t-98.5 14.5zM945 851q98 -95 98 -272v-516q0 -34 -14.5 -48.5t-48.5 -14.5h-94q-34 0 -48.5 14.5t-14.5 48.5v26q-156 -111 -325 -111q-112 0 -192.5 38.5t-123 110t-42.5 168.5q0 140 97.5 217t272.5 77q133 0 283 -30v29q0 67 -42 99t-148 32q-59 0 -131.5 -14.5
t-143.5 -38.5q-17 -5 -29 -5q-25 0 -44.5 18.5t-35.5 62.5q-15 43 -15 72q0 51 46 68q89 32 189 48t188 16q220 0 318 -95zM427.5 213.5q35.5 -24.5 102.5 -24.5q69 0 136.5 27.5t126.5 75.5v64q-132 27 -258 27q-70 0 -106.5 -25t-36.5 -73q0 -47 35.5 -71.5z" />
    <glyph glyph-name="agrave" unicode="&#xe0;" 
d="M326 1276q0 39 40 93q57 75 103 75q17 0 33 -11l347 -255q21 -15 21 -43t-22 -63q-32 -51 -68 -51q-13 0 -23 6l-407 205q-24 12 -24 44zM945 851q98 -95 98 -272v-516q0 -34 -14.5 -48.5t-48.5 -14.5h-94q-34 0 -48.5 14.5t-14.5 48.5v26q-156 -111 -325 -111
q-112 0 -192.5 38.5t-123 110t-42.5 168.5q0 140 97.5 217t272.5 77q133 0 283 -30v29q0 67 -42 99t-148 32q-59 0 -131.5 -14.5t-143.5 -38.5q-17 -5 -29 -5q-25 0 -44.5 18.5t-35.5 62.5q-15 43 -15 72q0 51 46 68q89 32 189 48t188 16q220 0 318 -95zM427.5 213.5
q35.5 -24.5 102.5 -24.5q69 0 136.5 27.5t126.5 75.5v64q-132 27 -258 27q-70 0 -106.5 -25t-36.5 -73q0 -47 35.5 -71.5z" />
    <glyph glyph-name="amacron" unicode="&#x101;" 
d="M326 1078q-13 8 -19.5 30t-6.5 64t6.5 64t19.5 30.5t37 8.5h542q24 0 37 -8.5t19.5 -30.5t6.5 -64t-6.5 -64t-19.5 -30t-37 -8h-542q-24 0 -37 8zM945 851q98 -95 98 -272v-516q0 -34 -14.5 -48.5t-48.5 -14.5h-94q-34 0 -48.5 14.5t-14.5 48.5v26q-156 -111 -325 -111
q-112 0 -192.5 38.5t-123 110t-42.5 168.5q0 140 97.5 217t272.5 77q133 0 283 -30v29q0 67 -42 99t-148 32q-59 0 -131.5 -14.5t-143.5 -38.5q-17 -5 -29 -5q-25 0 -44.5 18.5t-35.5 62.5q-15 43 -15 72q0 51 46 68q89 32 189 48t188 16q220 0 318 -95zM427.5 213.5
q35.5 -24.5 102.5 -24.5q69 0 136.5 27.5t126.5 75.5v64q-132 27 -258 27q-70 0 -106.5 -25t-36.5 -73q0 -47 35.5 -71.5z" />
    <glyph glyph-name="aogonek" unicode="&#x105;" 
d="M945 851q98 -95 98 -272v-516q0 -38 -18 -52q-171 -131 -171 -222q0 -67 88 -67q46 0 120 13q51 8 51 -97q0 -33 -10 -51t-30 -25q-102 -34 -216 -34q-118 0 -182 52t-64 151q0 86 55.5 153.5t156.5 132.5v72q-156 -111 -325 -111q-112 0 -192.5 38.5t-123 110
t-42.5 168.5q0 140 97.5 217t272.5 77q133 0 283 -30v29q0 67 -42 99t-148 32q-59 0 -131.5 -14.5t-143.5 -38.5q-17 -5 -29 -5q-25 0 -44.5 18.5t-35.5 62.5q-15 43 -15 72q0 51 46 68q89 32 189 48t188 16q220 0 318 -95zM428.5 358q-36.5 -25 -36.5 -73q0 -47 35.5 -71.5
t102.5 -24.5q69 0 136.5 27.5t126.5 75.5v64q-132 27 -258 27q-70 0 -106.5 -25z" />
    <glyph glyph-name="aring" unicode="&#xe5;" 
d="M507 1067q-60 34 -94 94t-34 134t34 134t94 94t134 34t134 -34t94 -94t34 -134t-34 -134t-94 -94t-134 -34t-134 34zM574 1362q-25 -25 -25 -67t25 -67t67 -25t67 25t25 67t-25 67t-67 25t-67 -25zM945 851q98 -95 98 -272v-516q0 -34 -14.5 -48.5t-48.5 -14.5h-94
q-34 0 -48.5 14.5t-14.5 48.5v26q-156 -111 -325 -111q-112 0 -192.5 38.5t-123 110t-42.5 168.5q0 140 97.5 217t272.5 77q133 0 283 -30v29q0 67 -42 99t-148 32q-59 0 -131.5 -14.5t-143.5 -38.5q-17 -5 -29 -5q-25 0 -44.5 18.5t-35.5 62.5q-15 43 -15 72q0 51 46 68
q89 32 189 48t188 16q220 0 318 -95zM427.5 213.5q35.5 -24.5 102.5 -24.5q69 0 136.5 27.5t126.5 75.5v64q-132 27 -258 27q-70 0 -106.5 -25t-36.5 -73q0 -47 35.5 -71.5z" />
    <glyph glyph-name="atilde" unicode="&#xe3;" 
d="M349 1060q-29 0 -66 40q-36 40 -36 76q0 20 10 34q51 76 115 118.5t133 42.5q40 0 73 -12t77 -34q36 -18 58.5 -26.5t46.5 -8.5q61 0 129 72q14 14 30 14q29 0 66 -40q36 -40 36 -76q0 -20 -10 -34q-51 -76 -115 -118.5t-133 -42.5q-40 0 -73 12t-77 34
q-36 18 -58.5 26.5t-46.5 8.5q-61 0 -129 -72q-14 -14 -30 -14zM945 851q98 -95 98 -272v-516q0 -34 -14.5 -48.5t-48.5 -14.5h-94q-34 0 -48.5 14.5t-14.5 48.5v26q-156 -111 -325 -111q-112 0 -192.5 38.5t-123 110t-42.5 168.5q0 140 97.5 217t272.5 77q133 0 283 -30v29
q0 67 -42 99t-148 32q-59 0 -131.5 -14.5t-143.5 -38.5q-17 -5 -29 -5q-25 0 -44.5 18.5t-35.5 62.5q-15 43 -15 72q0 51 46 68q89 32 189 48t188 16q220 0 318 -95zM427.5 213.5q35.5 -24.5 102.5 -24.5q69 0 136.5 27.5t126.5 75.5v64q-132 27 -258 27q-70 0 -106.5 -25
t-36.5 -73q0 -47 35.5 -71.5z" />
    <glyph glyph-name="ae" unicode="&#xe6;" 
d="M1061.5 882q73.5 -64 102.5 -176.5t29 -273.5q0 -34 -14.5 -48t-48.5 -14h-406q21 -165 134 -165q55 0 105 11.5t113 38.5q15 6 28 6q24 0 41 -21t31 -61t14 -65q0 -46 -45 -65q-164 -71 -302 -71q-157 0 -240 124q-94 -124 -268 -124q-90 0 -158.5 35.5t-106.5 102.5
t-38 159q0 153 102.5 231.5t300.5 78.5q35 0 74 -3v6q0 64 -36 97.5t-108 33.5q-43 0 -85 -13.5t-91 -38.5q-16 -8 -30 -8q-44 0 -81 79q-18 39 -18 68q0 42 36 62q65 38 141.5 58t155.5 20q160 0 241 -94q83 94 224 94q130 0 203.5 -64zM766.5 681.5
q-31.5 -37.5 -42.5 -116.5h244q-5 74 -32.5 114t-77.5 40q-60 0 -91.5 -37.5zM434 393q-95 0 -134.5 -26t-39.5 -82q0 -45 25 -70.5t73 -25.5q70 0 110.5 47.5t40.5 121.5v32q-42 3 -75 3z" />
    <glyph glyph-name="b" unicode="b" 
d="M402.5 1297.5q14.5 -14.5 14.5 -48.5v-421q51 57 118 87.5t145 30.5q131 0 227 -64t147 -174t51 -246t-51 -246t-147 -174t-227 -64q-92 0 -167.5 42t-125.5 117v-74q0 -34 -14.5 -48.5t-48.5 -14.5h-94q-34 0 -48.5 14.5t-14.5 48.5v1186q0 34 14.5 48.5t48.5 14.5h124
q34 0 48.5 -14.5zM524 684.5q-52 -29.5 -83 -86.5t-31 -136t31 -136t83 -86.5t116 -29.5q94 0 148.5 68t54.5 184t-54.5 184t-148.5 68q-64 0 -116 -29.5z" />
    <glyph glyph-name="c" unicode="c" 
d="M837 920q96 -26 185 -71q45 -23 45 -71q0 -29 -16 -70q-31 -81 -78 -81q-15 0 -32 9q-151 78 -287 78q-74 0 -131.5 -30.5t-89.5 -87.5t-32 -134t32 -134t89.5 -87.5t131.5 -30.5q145 0 304 89q18 10 33 10q45 0 79 -79q18 -43 18 -73q0 -45 -43 -69q-205 -110 -391 -110
q-152 0 -269.5 62.5t-182.5 172.5t-65 249t65 249t182.5 172.5t269.5 62.5q87 0 183 -26z" />
    <glyph glyph-name="cacute" unicode="&#x107;" 
d="M806 1444q46 0 103 -75q40 -54 40 -93q0 -32 -24 -44l-407 -205q-10 -6 -23 -6q-36 0 -68 51q-22 35 -22 63t21 43l347 255q16 11 33 11zM837 920q96 -26 185 -71q45 -23 45 -71q0 -29 -16 -70q-31 -81 -78 -81q-15 0 -32 9q-151 78 -287 78q-74 0 -131.5 -30.5
t-89.5 -87.5t-32 -134t32 -134t89.5 -87.5t131.5 -30.5q145 0 304 89q18 10 33 10q45 0 79 -79q18 -43 18 -73q0 -45 -43 -69q-205 -110 -391 -110q-152 0 -269.5 62.5t-182.5 172.5t-65 249t65 249t182.5 172.5t269.5 62.5q87 0 183 -26z" />
    <glyph glyph-name="ccaron" unicode="&#x10d;" 
d="M602.5 1032.5q-15.5 5.5 -29.5 17.5l-265 225q-22 19 -22 42q0 25 25 60q30 43 60 43q16 0 33 -11l240 -138l240 138q17 11 33 11q30 0 60 -43q25 -35 25 -60q0 -23 -22 -42l-265 -225q-14 -12 -29.5 -17.5t-41.5 -5.5t-41.5 5.5zM837 920q96 -26 185 -71q45 -23 45 -71
q0 -29 -16 -70q-31 -81 -78 -81q-15 0 -32 9q-151 78 -287 78q-74 0 -131.5 -30.5t-89.5 -87.5t-32 -134t32 -134t89.5 -87.5t131.5 -30.5q145 0 304 89q18 10 33 10q45 0 79 -79q18 -43 18 -73q0 -45 -43 -69q-205 -110 -391 -110q-152 0 -269.5 62.5t-182.5 172.5t-65 249
t65 249t182.5 172.5t269.5 62.5q87 0 183 -26z" />
    <glyph glyph-name="ccedilla" unicode="&#xe7;" 
d="M1088 157q0 -45 -43 -69q-183 -98 -351 -109v-62q107 0 161.5 -52.5t54.5 -137.5q0 -96 -71.5 -147.5t-207.5 -51.5q-147 0 -256 42q-24 10 -24 39q0 19 10 45q24 64 54 64q4 0 12 -2q82 -29 161 -29q49 0 72.5 12.5t23.5 38.5t-24 36.5t-67 10.5l-23 -1q-8 -1 -24 -1
q-37 0 -37 41v170q-113 27 -197 93t-129.5 162.5t-45.5 212.5q0 139 65 249t182.5 172.5t269.5 62.5q87 0 183 -26t185 -71q45 -23 45 -71q0 -29 -16 -70q-31 -81 -78 -81q-15 0 -32 9q-151 78 -287 78q-74 0 -131.5 -30.5t-89.5 -87.5t-32 -134t32 -134t89.5 -87.5
t131.5 -30.5q145 0 304 89q18 10 33 10q45 0 79 -79q18 -43 18 -73z" />
    <glyph glyph-name="ccircumflex" unicode="&#x109;" 
d="M685.5 1404.5q15.5 -5.5 29.5 -17.5l265 -225q22 -19 22 -42q0 -25 -25 -60q-30 -43 -60 -43q-16 0 -33 11l-240 138l-240 -138q-17 -11 -33 -11q-30 0 -60 43q-25 35 -25 60q0 23 22 42l265 225q14 12 29.5 17.5t41.5 5.5t41.5 -5.5zM837 920q96 -26 185 -71
q45 -23 45 -71q0 -29 -16 -70q-31 -81 -78 -81q-15 0 -32 9q-151 78 -287 78q-74 0 -131.5 -30.5t-89.5 -87.5t-32 -134t32 -134t89.5 -87.5t131.5 -30.5q145 0 304 89q18 10 33 10q45 0 79 -79q18 -43 18 -73q0 -45 -43 -69q-205 -110 -391 -110q-152 0 -269.5 62.5
t-182.5 172.5t-65 249t65 249t182.5 172.5t269.5 62.5q87 0 183 -26z" />
    <glyph glyph-name="cdotaccent" unicode="&#x10b;" 
d="M740.5 1348.5q28.5 -14.5 28.5 -48.5v-164q0 -34 -26.5 -48.5t-96.5 -14.5t-98.5 14.5t-28.5 48.5v164q0 35 26 49t96 14q71 0 99.5 -14.5zM837 920q96 -26 185 -71q45 -23 45 -71q0 -29 -16 -70q-31 -81 -78 -81q-15 0 -32 9q-151 78 -287 78q-74 0 -131.5 -30.5
t-89.5 -87.5t-32 -134t32 -134t89.5 -87.5t131.5 -30.5q145 0 304 89q18 10 33 10q45 0 79 -79q18 -43 18 -73q0 -45 -43 -69q-205 -110 -391 -110q-152 0 -269.5 62.5t-182.5 172.5t-65 249t65 249t182.5 172.5t269.5 62.5q87 0 183 -26z" />
    <glyph glyph-name="d" unicode="d" 
d="M1046.5 1297.5q14.5 -14.5 14.5 -48.5v-1186q0 -34 -14.5 -48.5t-48.5 -14.5h-94q-34 0 -48.5 14.5t-14.5 48.5v74q-50 -75 -125.5 -117t-167.5 -42q-131 0 -227 64t-147 174t-51 246t51 246t147 174t227 64q78 0 145 -30.5t118 -87.5v421q0 34 14.5 48.5t48.5 14.5h124
q34 0 48.5 -14.5zM439.5 646q-54.5 -68 -54.5 -184t54.5 -184t148.5 -68q64 0 116 29.5t83 86.5t31 136t-31 136t-83 86.5t-116 29.5q-94 0 -148.5 -68z" />
    <glyph glyph-name="eth" unicode="&#xf0;" 
d="M1040 809q66 -162 66 -347q0 -148 -60.5 -257.5t-171.5 -168t-260 -58.5q-147 0 -258.5 56.5t-172.5 157.5t-61 230t57.5 230t162.5 157.5t242 56.5q107 0 190 -50q-59 90 -154 168l-153 -81q-20 -11 -34 -11q-17 0 -32 14.5t-33 48.5q-23 44 -23 66q0 15 8.5 26t26.5 20
l65 35l-67 35q-31 16 -31 46q0 34 38 94q25 39 46 56t43 17q16 0 36 -10q97 -49 181 -108l150 80q19 10 34 10q17 0 32 -14.5t33 -48.5q22 -43 22 -65q0 -15 -8.5 -26t-25.5 -20l-84 -45q130 -132 196 -294zM777 263q61 58 61 159t-61 159t-163 58t-163 -58t-61 -159
t61 -159t163 -58t163 58z" />
    <glyph glyph-name="dcaron" unicode="&#x10f;" 
d="M906.5 1297.5q14.5 -14.5 14.5 -48.5v-1186q0 -34 -14.5 -48.5t-48.5 -14.5h-94q-34 0 -48.5 14.5t-14.5 48.5v54q-44 -67 -107 -103t-141 -36q-118 0 -204 63.5t-131 174t-45 246.5t45 246.5t131 174t204 63.5q65 0 121 -28t97 -80v411q0 34 14.5 48.5t48.5 14.5h124
q34 0 48.5 -14.5zM1389 1284q0 -9 -5 -24l-151 -387q-12 -31 -40.5 -43.5t-78.5 -12.5q-43 0 -63.5 12t-20.5 39q0 13 2 20l85 391q8 33 43 33h201q28 0 28 -28zM377.5 646q-42.5 -68 -42.5 -184t42.5 -184t115.5 -68q51 0 93.5 29.5t67 86.5t24.5 136t-24.5 136t-67 86.5
t-93.5 29.5q-73 0 -115.5 -68z" />
    <glyph glyph-name="dcroat" unicode="&#x111;" 
d="M1185 1146.5q13 -8.5 19.5 -30.5t6.5 -64t-6.5 -64t-19.5 -30t-37 -8h-107v-887q0 -34 -14.5 -48.5t-48.5 -14.5h-94q-34 0 -48.5 14.5t-14.5 48.5v47q-47 -62 -119 -97t-154 -35q-125 0 -216.5 57.5t-140 156.5t-48.5 220q0 120 48.5 219t140 157t216.5 58
q71 0 134 -27.5t109 -76.5v208h-205q-24 0 -37 8t-19.5 30t-6.5 64t6.5 64t19.5 30.5t37 8.5h205v94q0 34 14.5 48.5t48.5 14.5h124q34 0 48.5 -14.5t14.5 -48.5v-94h107q24 0 37 -8.5zM694 233.5q48 23.5 76 69.5t28 109q0 64 -28 110t-75.5 69t-106.5 23q-85 0 -134 -54.5
t-49 -147.5t49 -147.5t134 -54.5q58 0 106 23.5z" />
    <glyph glyph-name="e" unicode="e" 
d="M886 880.5q106 -65.5 160 -181.5t54 -267q0 -34 -14.5 -48t-48.5 -14h-642q19 -81 77 -123t146 -42q175 0 356 55q12 4 24 4q22 0 38 -20t29 -68q10 -37 10 -63t-11.5 -40.5t-37.5 -23.5q-102 -34 -212.5 -52.5t-215.5 -18.5q-146 0 -250.5 62t-159 171.5t-54.5 250.5
q0 140 59.5 250t171.5 172t263 62q152 0 258 -65.5zM479 680.5q-58 -38.5 -80 -115.5h446q-17 72 -74 113t-143 41q-91 0 -149 -38.5z" />
    <glyph glyph-name="eacute" unicode="&#xe9;" 
d="M809 1444q46 0 103 -75q40 -54 40 -93q0 -32 -24 -44l-407 -205q-10 -6 -23 -6q-36 0 -68 51q-22 35 -22 63t21 43l347 255q16 11 33 11zM886 880.5q106 -65.5 160 -181.5t54 -267q0 -34 -14.5 -48t-48.5 -14h-642q19 -81 77 -123t146 -42q175 0 356 55q12 4 24 4
q22 0 38 -20t29 -68q10 -37 10 -63t-11.5 -40.5t-37.5 -23.5q-102 -34 -212.5 -52.5t-215.5 -18.5q-146 0 -250.5 62t-159 171.5t-54.5 250.5q0 140 59.5 250t171.5 172t263 62q152 0 258 -65.5zM479 680.5q-58 -38.5 -80 -115.5h446q-17 72 -74 113t-143 41
q-91 0 -149 -38.5z" />
    <glyph glyph-name="ebreve" unicode="&#x115;" 
d="M951 1363.5q16 -14.5 16 -35.5q0 -9 -1 -13q-24 -127 -114 -200.5t-238 -73.5t-238 73.5t-114 200.5q-1 4 -1 13q0 21 16 35.5t50 23.5q24 7 43 7q32 0 43 -27q23 -64 71.5 -93t129.5 -29t129.5 29t71.5 93q11 27 43 27q19 0 43 -7q34 -9 50 -23.5zM886 880.5
q106 -65.5 160 -181.5t54 -267q0 -34 -14.5 -48t-48.5 -14h-642q19 -81 77 -123t146 -42q175 0 356 55q12 4 24 4q22 0 38 -20t29 -68q10 -37 10 -63t-11.5 -40.5t-37.5 -23.5q-102 -34 -212.5 -52.5t-215.5 -18.5q-146 0 -250.5 62t-159 171.5t-54.5 250.5q0 140 59.5 250
t171.5 172t263 62q152 0 258 -65.5zM479 680.5q-58 -38.5 -80 -115.5h446q-17 72 -74 113t-143 41q-91 0 -149 -38.5z" />
    <glyph glyph-name="ecaron" unicode="&#x11b;" 
d="M572.5 1032.5q-15.5 5.5 -29.5 17.5l-265 225q-22 19 -22 42q0 25 25 60q30 43 60 43q16 0 33 -11l240 -138l240 138q17 11 33 11q30 0 60 -43q25 -35 25 -60q0 -23 -22 -42l-265 -225q-14 -12 -29.5 -17.5t-41.5 -5.5t-41.5 5.5zM886 880.5q106 -65.5 160 -181.5
t54 -267q0 -34 -14.5 -48t-48.5 -14h-642q19 -81 77 -123t146 -42q175 0 356 55q12 4 24 4q22 0 38 -20t29 -68q10 -37 10 -63t-11.5 -40.5t-37.5 -23.5q-102 -34 -212.5 -52.5t-215.5 -18.5q-146 0 -250.5 62t-159 171.5t-54.5 250.5q0 140 59.5 250t171.5 172t263 62
q152 0 258 -65.5zM479 680.5q-58 -38.5 -80 -115.5h446q-17 72 -74 113t-143 41q-91 0 -149 -38.5z" />
    <glyph glyph-name="ecircumflex" unicode="&#xea;" 
d="M665.5 1404.5q15.5 -5.5 29.5 -17.5l265 -225q22 -19 22 -42q0 -25 -25 -60q-30 -43 -60 -43q-16 0 -33 11l-240 138l-240 -138q-17 -11 -33 -11q-30 0 -60 43q-25 35 -25 60q0 23 22 42l265 225q14 12 29.5 17.5t41.5 5.5t41.5 -5.5zM886 880.5q106 -65.5 160 -181.5
t54 -267q0 -34 -14.5 -48t-48.5 -14h-642q19 -81 77 -123t146 -42q175 0 356 55q12 4 24 4q22 0 38 -20t29 -68q10 -37 10 -63t-11.5 -40.5t-37.5 -23.5q-102 -34 -212.5 -52.5t-215.5 -18.5q-146 0 -250.5 62t-159 171.5t-54.5 250.5q0 140 59.5 250t171.5 172t263 62
q152 0 258 -65.5zM479 680.5q-58 -38.5 -80 -115.5h446q-17 72 -74 113t-143 41q-91 0 -149 -38.5z" />
    <glyph glyph-name="edieresis" unicode="&#xeb;" 
d="M490.5 1348.5q28.5 -14.5 28.5 -48.5v-164q0 -34 -26.5 -48.5t-96.5 -14.5t-98.5 14.5t-28.5 48.5v164q0 35 26 49t96 14q71 0 99.5 -14.5zM930.5 1348.5q28.5 -14.5 28.5 -48.5v-164q0 -34 -26.5 -48.5t-96.5 -14.5t-98.5 14.5t-28.5 48.5v164q0 35 26 49t96 14
q71 0 99.5 -14.5zM886 880.5q106 -65.5 160 -181.5t54 -267q0 -34 -14.5 -48t-48.5 -14h-642q19 -81 77 -123t146 -42q175 0 356 55q12 4 24 4q22 0 38 -20t29 -68q10 -37 10 -63t-11.5 -40.5t-37.5 -23.5q-102 -34 -212.5 -52.5t-215.5 -18.5q-146 0 -250.5 62t-159 171.5
t-54.5 250.5q0 140 59.5 250t171.5 172t263 62q152 0 258 -65.5zM479 680.5q-58 -38.5 -80 -115.5h446q-17 72 -74 113t-143 41q-91 0 -149 -38.5z" />
    <glyph glyph-name="edotaccent" unicode="&#x117;" 
d="M710.5 1348.5q28.5 -14.5 28.5 -48.5v-164q0 -34 -26.5 -48.5t-96.5 -14.5t-98.5 14.5t-28.5 48.5v164q0 35 26 49t96 14q71 0 99.5 -14.5zM886 880.5q106 -65.5 160 -181.5t54 -267q0 -34 -14.5 -48t-48.5 -14h-642q19 -81 77 -123t146 -42q175 0 356 55q12 4 24 4
q22 0 38 -20t29 -68q10 -37 10 -63t-11.5 -40.5t-37.5 -23.5q-102 -34 -212.5 -52.5t-215.5 -18.5q-146 0 -250.5 62t-159 171.5t-54.5 250.5q0 140 59.5 250t171.5 172t263 62q152 0 258 -65.5zM479 680.5q-58 -38.5 -80 -115.5h446q-17 72 -74 113t-143 41
q-91 0 -149 -38.5z" />
    <glyph glyph-name="egrave" unicode="&#xe8;" 
d="M839 1178q21 -15 21 -43t-22 -63q-32 -51 -68 -51q-12 0 -23 6l-407 205q-24 12 -24 44q0 39 40 93q57 75 103 75q17 0 33 -11zM886 880.5q106 -65.5 160 -181.5t54 -267q0 -34 -14.5 -48t-48.5 -14h-642q19 -81 77 -123t146 -42q175 0 356 55q12 4 24 4q22 0 38 -20
t29 -68q10 -37 10 -63t-11.5 -40.5t-37.5 -23.5q-102 -34 -212.5 -52.5t-215.5 -18.5q-146 0 -250.5 62t-159 171.5t-54.5 250.5q0 140 59.5 250t171.5 172t263 62q152 0 258 -65.5zM479 680.5q-58 -38.5 -80 -115.5h446q-17 72 -74 113t-143 41q-91 0 -149 -38.5z" />
    <glyph glyph-name="emacron" unicode="&#x113;" 
d="M932 1266.5q13 -8.5 19.5 -30.5t6.5 -64t-6.5 -64t-19.5 -30t-37 -8h-542q-24 0 -37 8t-19.5 30t-6.5 64t6.5 64t19.5 30.5t37 8.5h542q24 0 37 -8.5zM886 880.5q106 -65.5 160 -181.5t54 -267q0 -34 -14.5 -48t-48.5 -14h-642q19 -81 77 -123t146 -42q175 0 356 55
q12 4 24 4q22 0 38 -20t29 -68q10 -37 10 -63t-11.5 -40.5t-37.5 -23.5q-102 -34 -212.5 -52.5t-215.5 -18.5q-146 0 -250.5 62t-159 171.5t-54.5 250.5q0 140 59.5 250t171.5 172t263 62q152 0 258 -65.5zM479 680.5q-58 -38.5 -80 -115.5h446q-17 72 -74 113t-143 41
q-91 0 -149 -38.5z" />
    <glyph glyph-name="eogonek" unicode="&#x119;" 
d="M886 880.5q106 -65.5 160 -181.5t54 -267q0 -34 -14.5 -48t-48.5 -14h-642q19 -81 77 -123t146 -42q175 0 356 55q12 4 24 4q22 0 38 -20t29 -68q10 -37 10 -63t-11.5 -40.5t-37.5 -23.5q-15 -5 -37 -21q-193 -143 -193 -239q0 -67 88 -67q46 0 120 13q51 8 51 -97
q0 -33 -10 -51t-30 -25q-102 -34 -216 -34q-118 0 -182 52t-64 151q0 75 42.5 136t120.5 117q-60 -6 -118 -6q-146 0 -250.5 62t-159 171.5t-54.5 250.5q0 140 59.5 250t171.5 172t263 62q152 0 258 -65.5zM479 680.5q-58 -38.5 -80 -115.5h446q-17 72 -74 113t-143 41
q-91 0 -149 -38.5z" />
    <glyph glyph-name="f" unicode="f" 
d="M1111 1234q12 -17 12 -46q0 -28 -10 -64q-13 -46 -31.5 -66.5t-42.5 -20.5q-13 0 -25 4q-127 39 -222 39q-63 0 -96 -37.5t-33 -118.5v-60h311q35 0 49 -23.5t14 -89.5t-14 -89t-49 -23h-311v-576q0 -34 -14.5 -48.5t-48.5 -14.5h-124q-34 0 -48.5 14.5t-14.5 48.5v576
h-183q-35 0 -49 23t-14 89t14 89.5t49 23.5h183v73q0 186 91.5 283t265.5 97q152 0 304 -57q25 -9 37 -26z" />
    <glyph glyph-name="g" unicode="g" 
d="M715 908.5q75 -37.5 126 -107.5v60q0 34 14.5 48.5t48.5 14.5h94q34 0 48.5 -14.5t14.5 -48.5v-860q0 -196 -117.5 -303.5t-351.5 -107.5q-86 0 -188 16.5t-195 45.5q-48 15 -48 69q0 24 13 70q15 47 33.5 68t43.5 21q13 0 24 -4q191 -59 307 -59q121 0 175 50.5
t54 153.5v102q-51 -51 -118 -78t-145 -27q-128 0 -224.5 59t-148.5 163.5t-52 236.5q0 135 52 241.5t148.5 167t224.5 60.5q92 0 167 -37.5zM440 652q-55 -62 -55 -175t55 -175t148 -62q64 0 116.5 26.5t83 80t30.5 130.5t-30.5 130.5t-83 80t-116.5 26.5q-93 0 -148 -62z
" />
    <glyph glyph-name="gbreve" unicode="&#x11f;" 
d="M951 1363.5q16 -14.5 16 -35.5q0 -9 -1 -13q-24 -127 -114 -200.5t-238 -73.5t-238 73.5t-114 200.5q-1 4 -1 13q0 21 16 35.5t50 23.5q24 7 43 7q32 0 43 -27q23 -64 71.5 -93t129.5 -29t129.5 29t71.5 93q11 27 43 27q19 0 43 -7q34 -9 50 -23.5zM715 908.5
q75 -37.5 126 -107.5v60q0 34 14.5 48.5t48.5 14.5h94q34 0 48.5 -14.5t14.5 -48.5v-860q0 -196 -117.5 -303.5t-351.5 -107.5q-86 0 -188 16.5t-195 45.5q-48 15 -48 69q0 24 13 70q15 47 33.5 68t43.5 21q13 0 24 -4q191 -59 307 -59q121 0 175 50.5t54 153.5v102
q-51 -51 -118 -78t-145 -27q-128 0 -224.5 59t-148.5 163.5t-52 236.5q0 135 52 241.5t148.5 167t224.5 60.5q92 0 167 -37.5zM440 652q-55 -62 -55 -175t55 -175t148 -62q64 0 116.5 26.5t83 80t30.5 130.5t-30.5 130.5t-83 80t-116.5 26.5q-93 0 -148 -62z" />
    <glyph glyph-name="gcircumflex" unicode="&#x11d;" 
d="M665.5 1404.5q15.5 -5.5 29.5 -17.5l265 -225q22 -19 22 -42q0 -25 -25 -60q-30 -43 -60 -43q-16 0 -33 11l-240 138l-240 -138q-17 -11 -33 -11q-30 0 -60 43q-25 35 -25 60q0 23 22 42l265 225q14 12 29.5 17.5t41.5 5.5t41.5 -5.5zM715 908.5q75 -37.5 126 -107.5v60
q0 34 14.5 48.5t48.5 14.5h94q34 0 48.5 -14.5t14.5 -48.5v-860q0 -196 -117.5 -303.5t-351.5 -107.5q-86 0 -188 16.5t-195 45.5q-48 15 -48 69q0 24 13 70q15 47 33.5 68t43.5 21q13 0 24 -4q191 -59 307 -59q121 0 175 50.5t54 153.5v102q-51 -51 -118 -78t-145 -27
q-128 0 -224.5 59t-148.5 163.5t-52 236.5q0 135 52 241.5t148.5 167t224.5 60.5q92 0 167 -37.5zM440 652q-55 -62 -55 -175t55 -175t148 -62q64 0 116.5 26.5t83 80t30.5 130.5t-30.5 130.5t-83 80t-116.5 26.5q-93 0 -148 -62z" />
    <glyph glyph-name="gcommaaccent" unicode="&#x123;" 
d="M468 1087q0 11 4 20l124 306q10 25 33.5 37t67.5 12q50 0 73.5 -12.5t23.5 -39.5q0 -8 -1 -13l-59 -306q-2 -13 -12 -20t-24 -7h-206q-24 0 -24 23zM715 908.5q75 -37.5 126 -107.5v60q0 34 14.5 48.5t48.5 14.5h94q34 0 48.5 -14.5t14.5 -48.5v-860
q0 -196 -117.5 -303.5t-351.5 -107.5q-86 0 -188 16.5t-195 45.5q-48 15 -48 69q0 24 13 70q15 47 33.5 68t43.5 21q13 0 24 -4q191 -59 307 -59q121 0 175 50.5t54 153.5v102q-51 -51 -118 -78t-145 -27q-128 0 -224.5 59t-148.5 163.5t-52 236.5q0 135 52 241.5t148.5 167
t224.5 60.5q92 0 167 -37.5zM440 652q-55 -62 -55 -175t55 -175t148 -62q64 0 116.5 26.5t83 80t30.5 130.5t-30.5 130.5t-83 80t-116.5 26.5q-93 0 -148 -62z" />
    <glyph glyph-name="gdotaccent" unicode="&#x121;" 
d="M710.5 1348.5q28.5 -14.5 28.5 -48.5v-164q0 -34 -26.5 -48.5t-96.5 -14.5t-98.5 14.5t-28.5 48.5v164q0 35 26 49t96 14q71 0 99.5 -14.5zM715 908.5q75 -37.5 126 -107.5v60q0 34 14.5 48.5t48.5 14.5h94q34 0 48.5 -14.5t14.5 -48.5v-860q0 -196 -117.5 -303.5
t-351.5 -107.5q-86 0 -188 16.5t-195 45.5q-48 15 -48 69q0 24 13 70q15 47 33.5 68t43.5 21q13 0 24 -4q191 -59 307 -59q121 0 175 50.5t54 153.5v102q-51 -51 -118 -78t-145 -27q-128 0 -224.5 59t-148.5 163.5t-52 236.5q0 135 52 241.5t148.5 167t224.5 60.5
q92 0 167 -37.5zM440 652q-55 -62 -55 -175t55 -175t148 -62q64 0 116.5 26.5t83 80t30.5 130.5t-30.5 130.5t-83 80t-116.5 26.5q-93 0 -148 -62z" />
    <glyph glyph-name="h" unicode="h" 
d="M405.5 1297.5q14.5 -14.5 14.5 -48.5v-471q68 80 152 124t178 44q98 0 171 -42t112 -118t39 -176v-547q0 -34 -14.5 -48.5t-48.5 -14.5h-124q-34 0 -48.5 14.5t-14.5 48.5v488q0 158 -137 158q-64 0 -125.5 -49t-100.5 -130t-39 -172v-295q0 -34 -14.5 -48.5t-48.5 -14.5
h-124q-34 0 -48.5 14.5t-14.5 48.5v1186q0 34 14.5 48.5t48.5 14.5h124q34 0 48.5 -14.5z" />
    <glyph glyph-name="hbar" unicode="&#x127;" 
d="M910.5 806q68.5 -40 105 -114t36.5 -172v-457q0 -34 -14.5 -48.5t-48.5 -14.5h-124q-34 0 -48.5 14.5t-14.5 48.5v408q0 66 -28.5 102t-88.5 36q-59 0 -116 -41.5t-93 -111t-36 -148.5v-245q0 -34 -14.5 -48.5t-48.5 -14.5h-124q-34 0 -48.5 14.5t-14.5 48.5v887h-107
q-24 0 -37 8t-19.5 30t-6.5 64t6.5 64t19.5 30.5t37 8.5h107v94q0 34 14.5 48.5t48.5 14.5h124q34 0 48.5 -14.5t14.5 -48.5v-94h205q24 0 37 -8.5t19.5 -30.5t6.5 -64t-6.5 -64t-19.5 -30t-37 -8h-205v-262q64 75 143 116.5t167 41.5q92 0 160.5 -40z" />
    <glyph glyph-name="hcircumflex" unicode="&#x125;" 
d="M645.5 1774.5q15.5 -5.5 29.5 -17.5l265 -225q22 -19 22 -42q0 -25 -25 -60q-30 -43 -60 -43q-16 0 -33 11l-240 138l-240 -138q-17 -11 -33 -11q-30 0 -60 43q-25 35 -25 60q0 23 22 42l265 225q14 12 29.5 17.5t41.5 5.5t41.5 -5.5zM395.5 1297.5
q14.5 -14.5 14.5 -48.5v-471q68 80 152 124t178 44q98 0 171 -42t112 -118t39 -176v-547q0 -34 -14.5 -48.5t-48.5 -14.5h-124q-34 0 -48.5 14.5t-14.5 48.5v488q0 158 -137 158q-64 0 -125.5 -49t-100.5 -130t-39 -172v-295q0 -34 -14.5 -48.5t-48.5 -14.5h-124
q-34 0 -48.5 14.5t-14.5 48.5v1186q0 34 14.5 48.5t48.5 14.5h124q34 0 48.5 -14.5z" />
    <glyph glyph-name="i" unicode="i" 
d="M724.5 1348.5q28.5 -14.5 28.5 -48.5v-164q0 -34 -26.5 -48.5t-96.5 -14.5t-98.5 14.5t-28.5 48.5v164q0 35 26 49t96 14q71 0 99.5 -14.5zM738.5 909.5q14.5 -14.5 14.5 -48.5v-636h281q35 0 49 -23.5t14 -89.5t-14 -89t-49 -23h-804q-35 0 -49 23t-14 89t14 89.5
t49 23.5h273v474h-213q-35 0 -49 23t-14 89t14 89.5t49 23.5h400q34 0 48.5 -14.5z" />
    <glyph glyph-name="dotlessi" unicode="&#x131;" 
d="M738.5 909.5q14.5 -14.5 14.5 -48.5v-636h281q35 0 49 -23.5t14 -89.5t-14 -89t-49 -23h-804q-35 0 -49 23t-14 89t14 89.5t49 23.5h273v474h-213q-35 0 -49 23t-14 89t14 89.5t49 23.5h400q34 0 48.5 -14.5z" />
    <glyph glyph-name="iacute" unicode="&#xed;" 
d="M789 1444q46 0 103 -75q40 -54 40 -93q0 -32 -24 -44l-407 -205q-11 -6 -23 -6q-36 0 -68 51q-22 35 -22 63t21 43l347 255q16 11 33 11zM738.5 909.5q14.5 -14.5 14.5 -48.5v-636h281q35 0 49 -23.5t14 -89.5t-14 -89t-49 -23h-804q-35 0 -49 23t-14 89t14 89.5t49 23.5
h273v474h-213q-35 0 -49 23t-14 89t14 89.5t49 23.5h400q34 0 48.5 -14.5z" />
    <glyph glyph-name="ibreve" unicode="&#x12d;" 
d="M941 1363.5q16 -14.5 16 -35.5q0 -9 -1 -13q-24 -127 -114 -200.5t-238 -73.5t-238 73.5t-114 200.5q-1 4 -1 13q0 21 16 35.5t50 23.5q24 7 43 7q33 0 43 -27q23 -64 71.5 -93t129.5 -29t129.5 29t71.5 93q10 27 43 27q19 0 43 -7q34 -9 50 -23.5zM738.5 909.5
q14.5 -14.5 14.5 -48.5v-636h281q35 0 49 -23.5t14 -89.5t-14 -89t-49 -23h-804q-35 0 -49 23t-14 89t14 89.5t49 23.5h273v474h-213q-35 0 -49 23t-14 89t14 89.5t49 23.5h400q34 0 48.5 -14.5z" />
    <glyph glyph-name="icircumflex" unicode="&#xee;" 
d="M655.5 1404.5q15.5 -5.5 29.5 -17.5l265 -225q22 -19 22 -42q0 -25 -25 -60q-30 -43 -60 -43q-16 0 -33 11l-240 138l-240 -138q-17 -11 -33 -11q-30 0 -60 43q-25 35 -25 60q0 23 22 42l265 225q14 12 29.5 17.5t41.5 5.5t41.5 -5.5zM738.5 909.5q14.5 -14.5 14.5 -48.5
v-636h281q35 0 49 -23.5t14 -89.5t-14 -89t-49 -23h-804q-35 0 -49 23t-14 89t14 89.5t49 23.5h273v474h-213q-35 0 -49 23t-14 89t14 89.5t49 23.5h400q34 0 48.5 -14.5z" />
    <glyph glyph-name="idieresis" unicode="&#xef;" 
d="M480.5 1348.5q28.5 -14.5 28.5 -48.5v-164q0 -34 -26.5 -48.5t-96.5 -14.5t-98.5 14.5t-28.5 48.5v164q0 35 26 49t96 14q71 0 99.5 -14.5zM920.5 1348.5q28.5 -14.5 28.5 -48.5v-164q0 -34 -26.5 -48.5t-96.5 -14.5t-98.5 14.5t-28.5 48.5v164q0 35 26 49t96 14
q71 0 99.5 -14.5zM738.5 909.5q14.5 -14.5 14.5 -48.5v-636h281q35 0 49 -23.5t14 -89.5t-14 -89t-49 -23h-804q-35 0 -49 23t-14 89t14 89.5t49 23.5h273v474h-213q-35 0 -49 23t-14 89t14 89.5t49 23.5h400q34 0 48.5 -14.5z" />
    <glyph glyph-name="i.loclTRK" 
d="M724.5 1348.5q28.5 -14.5 28.5 -48.5v-164q0 -34 -26.5 -48.5t-96.5 -14.5t-98.5 14.5t-28.5 48.5v164q0 35 26 49t96 14q71 0 99.5 -14.5zM738.5 909.5q14.5 -14.5 14.5 -48.5v-636h281q35 0 49 -23.5t14 -89.5t-14 -89t-49 -23h-804q-35 0 -49 23t-14 89t14 89.5
t49 23.5h273v474h-213q-35 0 -49 23t-14 89t14 89.5t49 23.5h400q34 0 48.5 -14.5z" />
    <glyph glyph-name="igrave" unicode="&#xec;" 
d="M761 1178q21 -15 21 -43t-22 -63q-32 -51 -68 -51q-13 0 -23 6l-407 205q-24 12 -24 44q0 39 40 93q57 75 103 75q17 0 33 -11zM738.5 909.5q14.5 -14.5 14.5 -48.5v-636h281q35 0 49 -23.5t14 -89.5t-14 -89t-49 -23h-804q-35 0 -49 23t-14 89t14 89.5t49 23.5h273v474
h-213q-35 0 -49 23t-14 89t14 89.5t49 23.5h400q34 0 48.5 -14.5z" />
    <glyph glyph-name="ij" unicode="&#x133;" 
d="M415.5 1348.5q28.5 -14.5 28.5 -48.5v-164q0 -34 -26.5 -48.5t-96.5 -14.5t-98.5 14.5t-28.5 48.5v164q0 35 26 49t96 14q71 0 99.5 -14.5zM1005.5 1348.5q28.5 -14.5 28.5 -48.5v-164q0 -34 -26.5 -48.5t-96.5 -14.5t-98.5 14.5t-28.5 48.5v164q0 35 26 49t96 14
q71 0 99.5 -14.5zM429.5 909.5q14.5 -14.5 14.5 -48.5v-798q0 -34 -14.5 -48.5t-48.5 -14.5h-124q-34 0 -48.5 14.5t-14.5 48.5v798q0 34 14.5 48.5t48.5 14.5h124q34 0 48.5 -14.5zM1019.5 909.5q14.5 -14.5 14.5 -48.5v-916q0 -177 -91 -266t-271 -89q-49 0 -104 10.5
t-105 29.5q-22 8 -33 24t-11 42q0 25 11 69q12 49 30 70.5t42 21.5q6 0 22 -4q37 -12 75.5 -19t65.5 -7q62 0 90.5 31.5t28.5 102.5v900q0 34 14.5 48.5t48.5 14.5h124q34 0 48.5 -14.5z" />
    <glyph glyph-name="imacron" unicode="&#x12b;" 
d="M912 1266.5q13 -8.5 19.5 -30.5t6.5 -64t-6.5 -64t-19.5 -30t-37 -8h-542q-24 0 -37 8t-19.5 30t-6.5 64t6.5 64t19.5 30.5t37 8.5h542q24 0 37 -8.5zM738.5 909.5q14.5 -14.5 14.5 -48.5v-636h281q35 0 49 -23.5t14 -89.5t-14 -89t-49 -23h-804q-35 0 -49 23t-14 89
t14 89.5t49 23.5h273v474h-213q-35 0 -49 23t-14 89t14 89.5t49 23.5h400q34 0 48.5 -14.5z" />
    <glyph glyph-name="iogonek" unicode="&#x12f;" 
d="M531.5 1087.5q-28.5 14.5 -28.5 48.5v164q0 35 26 49t96 14q71 0 99.5 -14.5t28.5 -48.5v-164q0 -34 -26.5 -48.5t-96.5 -14.5t-98.5 14.5zM1083 201.5q14 -23.5 14 -89.5t-14 -89t-49 -23h-296q-156 -124 -156 -211q0 -67 88 -67q46 0 120 13q51 8 51 -97q0 -33 -10 -51
t-30 -25q-102 -34 -216 -34q-118 0 -182 52t-64 151q0 80 48.5 144.5t137.5 124.5h-295q-35 0 -49 23t-14 89t14 89.5t49 23.5h273v474h-213q-35 0 -49 23t-14 89t14 89.5t49 23.5h400q34 0 48.5 -14.5t14.5 -48.5v-636h281q35 0 49 -23.5z" />
    <glyph glyph-name="itilde" unicode="&#x129;" 
d="M535 1359q33 -12 77 -34q36 -18 58.5 -26.5t46.5 -8.5q61 0 129 72q14 14 30 14q29 0 66 -40q36 -40 36 -76q0 -20 -10 -34q-51 -76 -115 -118.5t-133 -42.5q-40 0 -73 12t-77 34q-36 18 -58.5 26.5t-46.5 8.5q-61 0 -129 -72q-14 -14 -30 -14q-29 0 -66 40
q-36 40 -36 76q0 20 10 34q51 76 115 118.5t133 42.5q40 0 73 -12zM738.5 909.5q14.5 -14.5 14.5 -48.5v-636h281q35 0 49 -23.5t14 -89.5t-14 -89t-49 -23h-804q-35 0 -49 23t-14 89t14 89.5t49 23.5h273v474h-213q-35 0 -49 23t-14 89t14 89.5t49 23.5h400
q34 0 48.5 -14.5z" />
    <glyph glyph-name="j" unicode="j" 
d="M894.5 1348.5q28.5 -14.5 28.5 -48.5v-164q0 -34 -26.5 -48.5t-96.5 -14.5t-98.5 14.5t-28.5 48.5v164q0 35 26 49t96 14q71 0 99.5 -14.5zM908.5 909.5q14.5 -14.5 14.5 -48.5v-891q0 -186 -91.5 -283t-265.5 -97q-82 0 -176 24t-181 68q-22 11 -32.5 26.5t-10.5 39.5
q0 27 17 73q32 83 80 83q13 0 30 -7q159 -70 251 -70q63 0 96 37.5t33 118.5v716h-383q-35 0 -49 23t-14 89t14 89.5t49 23.5h570q34 0 48.5 -14.5z" />
    <glyph glyph-name="uni0237" unicode="&#x237;" 
d="M908.5 909.5q14.5 -14.5 14.5 -48.5v-891q0 -186 -91.5 -283t-265.5 -97q-82 0 -176 24t-181 68q-22 11 -32.5 26.5t-10.5 39.5q0 27 17 73q32 83 80 83q13 0 30 -7q159 -70 251 -70q63 0 96 37.5t33 118.5v716h-383q-35 0 -49 23t-14 89t14 89.5t49 23.5h570
q34 0 48.5 -14.5z" />
    <glyph glyph-name="jcircumflex" unicode="&#x135;" 
d="M1082 1120q0 -25 -25 -60q-30 -43 -60 -43q-16 0 -33 11l-240 138l-240 -138q-17 -11 -33 -11q-30 0 -60 43q-25 35 -25 60q0 23 22 42l265 225q14 12 29.5 17.5t41.5 5.5t41.5 -5.5t29.5 -17.5l265 -225q22 -19 22 -42zM908.5 909.5q14.5 -14.5 14.5 -48.5v-891
q0 -186 -91.5 -283t-265.5 -97q-82 0 -176 24t-181 68q-22 11 -32.5 26.5t-10.5 39.5q0 27 17 73q32 83 80 83q13 0 30 -7q159 -70 251 -70q63 0 96 37.5t33 118.5v716h-383q-35 0 -49 23t-14 89t14 89.5t49 23.5h570q34 0 48.5 -14.5z" />
    <glyph glyph-name="k" unicode="k" 
d="M1090 112q0 -42 -75 -88q-63 -39 -100 -39q-33 0 -54 29l-287 355l-121 -98v-208q0 -34 -14.5 -48.5t-48.5 -14.5h-124q-34 0 -48.5 14.5t-14.5 48.5v1186q0 34 14.5 48.5t48.5 14.5h124q34 0 48.5 -14.5t14.5 -48.5v-668l399 335q23 20 51 20q40 0 98 -47q72 -60 72 -97
q0 -21 -24 -41l-278 -224l298 -365q21 -27 21 -50z" />
    <glyph glyph-name="kcommaaccent" unicode="&#x137;" 
d="M1090 112q0 -42 -75 -88q-63 -39 -100 -39q-33 0 -54 29l-287 355l-121 -98v-208q0 -34 -14.5 -48.5t-48.5 -14.5h-124q-34 0 -48.5 14.5t-14.5 48.5v1186q0 34 14.5 48.5t48.5 14.5h124q34 0 48.5 -14.5t14.5 -48.5v-668l399 335q23 20 51 20q40 0 98 -47q72 -60 72 -97
q0 -21 -24 -41l-278 -224l298 -365q21 -27 21 -50zM761 -169q0 -11 -4 -20l-124 -306q-10 -25 -33.5 -37t-67.5 -12q-50 0 -73.5 12.5t-23.5 39.5q0 8 1 13l59 306q2 13 12 20t24 7h206q24 0 24 -23z" />
    <glyph glyph-name="l" unicode="l" 
d="M1073 201.5q14 -23.5 14 -89.5t-14 -89t-49 -23h-804q-35 0 -49 23t-14 89t14 89.5t49 23.5h273v862h-233q-35 0 -49 23t-14 89t14 89.5t49 23.5h420q34 0 48.5 -14.5t14.5 -48.5v-1024h281q35 0 49 -23.5z" />
    <glyph glyph-name="lacute" unicode="&#x13a;" 
d="M466 1391q-36 0 -68 51q-22 35 -22 63t21 43l347 255q16 11 33 11q46 0 103 -75q40 -54 40 -93q0 -32 -24 -44l-407 -205q-11 -6 -23 -6zM1073 201.5q14 -23.5 14 -89.5t-14 -89t-49 -23h-804q-35 0 -49 23t-14 89t14 89.5t49 23.5h273v862h-233q-35 0 -49 23t-14 89
t14 89.5t49 23.5h420q34 0 48.5 -14.5t14.5 -48.5v-1024h281q35 0 49 -23.5z" />
    <glyph glyph-name="lcaron" unicode="&#x13e;" 
d="M1033 201.5q14 -23.5 14 -89.5t-14 -89t-49 -23h-804q-35 0 -49 23t-14 89t14 89.5t49 23.5h273v862h-233q-35 0 -49 23t-14 89t14 89.5t49 23.5h420q34 0 48.5 -14.5t14.5 -48.5v-1024h281q35 0 49 -23.5zM1219 1284q0 -9 -5 -24l-151 -387q-12 -31 -40.5 -43.5
t-78.5 -12.5q-43 0 -63.5 12t-20.5 39q0 13 2 20l85 391q8 33 43 33h201q28 0 28 -28z" />
    <glyph glyph-name="lcommaaccent" unicode="&#x13c;" 
d="M1073 201.5q14 -23.5 14 -89.5t-14 -89t-49 -23h-804q-35 0 -49 23t-14 89t14 89.5t49 23.5h273v862h-233q-35 0 -49 23t-14 89t14 89.5t49 23.5h420q34 0 48.5 -14.5t14.5 -48.5v-1024h281q35 0 49 -23.5zM751 -169q0 -11 -4 -20l-124 -306q-10 -25 -33.5 -37t-67.5 -12
q-50 0 -73.5 12.5t-23.5 39.5q0 8 1 13l59 306q2 13 12 20t24 7h206q24 0 24 -23z" />
    <glyph glyph-name="ldot" unicode="&#x140;" 
d="M1033 201.5q14 -23.5 14 -89.5t-14 -89t-49 -23h-804q-35 0 -49 23t-14 89t14 89.5t49 23.5h273v862h-233q-35 0 -49 23t-14 89t14 89.5t49 23.5h420q34 0 48.5 -14.5t14.5 -48.5v-1024h281q35 0 49 -23.5zM1120.5 868.5q28.5 -14.5 28.5 -48.5v-164q0 -34 -26.5 -48.5
t-96.5 -14.5t-98.5 14.5t-28.5 48.5v164q0 35 26 49t96 14q71 0 99.5 -14.5z" />
    <glyph glyph-name="lslash" unicode="&#x142;" 
d="M1073 201.5q14 -23.5 14 -89.5t-14 -89t-49 -23h-804q-35 0 -49 23t-14 89t14 89.5t49 23.5h273v268l-154 -91q-19 -12 -34 -12q-17 0 -34 15.5t-38 51.5q-30 53 -30 77q0 25 32 44l258 153v356h-233q-35 0 -49 23t-14 89t14 89.5t49 23.5h420q34 0 48.5 -14.5
t14.5 -48.5v-369l147 87q20 12 35 12q16 0 32.5 -15.5t39.5 -52.5q29 -49 29 -76q0 -25 -31 -44l-252 -149v-417h281q35 0 49 -23.5z" />
    <glyph glyph-name="m" unicode="m" 
d="M1093 871q53 -75 53 -228v-580q0 -34 -14.5 -48.5t-48.5 -14.5h-124q-34 0 -48.5 14.5t-14.5 48.5v523q0 53 -12.5 78t-39.5 25q-47 0 -74.5 -73t-27.5 -213v-340q0 -34 -14.5 -48.5t-48.5 -14.5h-124q-34 0 -48.5 14.5t-14.5 48.5v523q0 53 -12.5 78t-39.5 25
q-47 0 -74.5 -73t-27.5 -213v-340q0 -34 -14.5 -48.5t-48.5 -14.5h-124q-34 0 -48.5 14.5t-14.5 48.5v798q0 34 14.5 48.5t48.5 14.5h74q34 0 48.5 -14.5t14.5 -48.5v-124q43 102 102.5 155.5t127.5 53.5q148 0 191 -203q46 100 107 151.5t132 51.5q92 0 145 -75z" />
    <glyph glyph-name="n" unicode="n" 
d="M921 904q73 -42 112 -118t39 -176v-547q0 -34 -14.5 -48.5t-48.5 -14.5h-124q-34 0 -48.5 14.5t-14.5 48.5v488q0 158 -137 158q-64 0 -125.5 -49t-100.5 -130t-39 -172v-295q0 -34 -14.5 -48.5t-48.5 -14.5h-124q-34 0 -48.5 14.5t-14.5 48.5v798q0 34 14.5 48.5
t48.5 14.5h94q34 0 48.5 -14.5t14.5 -48.5v-125q70 99 162 154.5t198 55.5q98 0 171 -42z" />
    <glyph glyph-name="nacute" unicode="&#x144;" 
d="M817 1444q46 0 103 -75q40 -54 40 -93q0 -32 -24 -44l-407 -205q-11 -6 -23 -6q-36 0 -68 51q-22 35 -22 63t21 43l347 255q16 11 33 11zM921 904q73 -42 112 -118t39 -176v-547q0 -34 -14.5 -48.5t-48.5 -14.5h-124q-34 0 -48.5 14.5t-14.5 48.5v488q0 158 -137 158
q-64 0 -125.5 -49t-100.5 -130t-39 -172v-295q0 -34 -14.5 -48.5t-48.5 -14.5h-124q-34 0 -48.5 14.5t-14.5 48.5v798q0 34 14.5 48.5t48.5 14.5h94q34 0 48.5 -14.5t14.5 -48.5v-125q70 99 162 154.5t198 55.5q98 0 171 -42z" />
    <glyph glyph-name="ncaron" unicode="&#x148;" 
d="M592.5 1032.5q-15.5 5.5 -29.5 17.5l-265 225q-22 19 -22 42q0 25 25 60q30 43 60 43q16 0 33 -11l240 -138l240 138q17 11 33 11q30 0 60 -43q25 -35 25 -60q0 -23 -22 -42l-265 -225q-14 -12 -29.5 -17.5t-41.5 -5.5t-41.5 5.5zM921 904q73 -42 112 -118t39 -176v-547
q0 -34 -14.5 -48.5t-48.5 -14.5h-124q-34 0 -48.5 14.5t-14.5 48.5v488q0 158 -137 158q-64 0 -125.5 -49t-100.5 -130t-39 -172v-295q0 -34 -14.5 -48.5t-48.5 -14.5h-124q-34 0 -48.5 14.5t-14.5 48.5v798q0 34 14.5 48.5t48.5 14.5h94q34 0 48.5 -14.5t14.5 -48.5v-125
q70 99 162 154.5t198 55.5q98 0 171 -42z" />
    <glyph glyph-name="ncommaaccent" unicode="&#x146;" 
d="M921 904q73 -42 112 -118t39 -176v-547q0 -34 -14.5 -48.5t-48.5 -14.5h-124q-34 0 -48.5 14.5t-14.5 48.5v488q0 158 -137 158q-64 0 -125.5 -49t-100.5 -130t-39 -172v-295q0 -34 -14.5 -48.5t-48.5 -14.5h-124q-34 0 -48.5 14.5t-14.5 48.5v798q0 34 14.5 48.5
t48.5 14.5h94q34 0 48.5 -14.5t14.5 -48.5v-125q70 99 162 154.5t198 55.5q98 0 171 -42zM761 -169q0 -11 -4 -20l-124 -306q-10 -25 -33.5 -37t-67.5 -12q-50 0 -73.5 12.5t-23.5 39.5q0 8 1 13l59 306q2 13 12 20t24 7h206q24 0 24 -23z" />
    <glyph glyph-name="eng" unicode="&#x14b;" 
d="M921 904q73 -42 112 -118t39 -176v-665q0 -177 -91 -266t-271 -89q-49 0 -104 10.5t-105 29.5q-22 8 -33 24t-11 42q0 25 11 69q12 49 30 70.5t42 21.5q6 0 22 -4q37 -12 75.5 -19t65.5 -7q62 0 90.5 31.5t28.5 102.5v590q0 158 -137 158q-64 0 -125.5 -49t-100.5 -130
t-39 -172v-295q0 -34 -14.5 -48.5t-48.5 -14.5h-124q-34 0 -48.5 14.5t-14.5 48.5v798q0 34 14.5 48.5t48.5 14.5h94q34 0 48.5 -14.5t14.5 -48.5v-125q70 99 162 154.5t198 55.5q98 0 171 -42z" />
    <glyph glyph-name="ntilde" unicode="&#xf1;" 
d="M568 1359q33 -12 77 -34q36 -18 58.5 -26.5t46.5 -8.5q61 0 129 72q14 14 30 14q29 0 66 -40q36 -40 36 -76q0 -20 -10 -34q-51 -76 -115 -118.5t-133 -42.5q-40 0 -73 12t-77 34q-36 18 -58.5 26.5t-46.5 8.5q-61 0 -129 -72q-14 -14 -30 -14q-29 0 -66 40
q-36 40 -36 76q0 20 10 34q51 76 115 118.5t133 42.5q40 0 73 -12zM921 904q73 -42 112 -118t39 -176v-547q0 -34 -14.5 -48.5t-48.5 -14.5h-124q-34 0 -48.5 14.5t-14.5 48.5v488q0 158 -137 158q-64 0 -125.5 -49t-100.5 -130t-39 -172v-295q0 -34 -14.5 -48.5
t-48.5 -14.5h-124q-34 0 -48.5 14.5t-14.5 48.5v798q0 34 14.5 48.5t48.5 14.5h94q34 0 48.5 -14.5t14.5 -48.5v-125q70 99 162 154.5t198 55.5q98 0 171 -42z" />
    <glyph glyph-name="o" unicode="o" 
d="M878.5 884q113.5 -62 175 -172t61.5 -250t-61.5 -250t-175 -172t-264.5 -62t-264.5 62t-175 172t-61.5 250t61.5 250t175 172t264.5 62t264.5 -62zM488 683q-54 -31 -83.5 -88t-29.5 -133t29.5 -133t83.5 -88t126 -31t126 31t83.5 88t29.5 133t-29.5 133t-83.5 88
t-126 31t-126 -31z" />
    <glyph glyph-name="oacute" unicode="&#xf3;" 
d="M787 1444q46 0 103 -75q40 -54 40 -93q0 -32 -24 -44l-407 -205q-11 -6 -23 -6q-36 0 -68 51q-22 35 -22 63t21 43l347 255q16 11 33 11zM878.5 884q113.5 -62 175 -172t61.5 -250t-61.5 -250t-175 -172t-264.5 -62t-264.5 62t-175 172t-61.5 250t61.5 250t175 172
t264.5 62t264.5 -62zM488 683q-54 -31 -83.5 -88t-29.5 -133t29.5 -133t83.5 -88t126 -31t126 31t83.5 88t29.5 133t-29.5 133t-83.5 88t-126 31t-126 -31z" />
    <glyph glyph-name="obreve" unicode="&#x14f;" 
d="M951 1363.5q16 -14.5 16 -35.5q0 -9 -1 -13q-24 -127 -114 -200.5t-238 -73.5t-238 73.5t-114 200.5q-1 4 -1 13q0 21 16 35.5t50 23.5q24 7 43 7q32 0 43 -27q23 -64 71.5 -93t129.5 -29t129.5 29t71.5 93q11 27 43 27q19 0 43 -7q34 -9 50 -23.5zM878.5 884
q113.5 -62 175 -172t61.5 -250t-61.5 -250t-175 -172t-264.5 -62t-264.5 62t-175 172t-61.5 250t61.5 250t175 172t264.5 62t264.5 -62zM488 683q-54 -31 -83.5 -88t-29.5 -133t29.5 -133t83.5 -88t126 -31t126 31t83.5 88t29.5 133t-29.5 133t-83.5 88t-126 31t-126 -31z
" />
    <glyph glyph-name="ocircumflex" unicode="&#xf4;" 
d="M655.5 1404.5q15.5 -5.5 29.5 -17.5l265 -225q22 -19 22 -42q0 -25 -25 -60q-30 -43 -60 -43q-16 0 -33 11l-240 138l-240 -138q-17 -11 -33 -11q-30 0 -60 43q-25 35 -25 60q0 23 22 42l265 225q14 12 29.5 17.5t41.5 5.5t41.5 -5.5zM878.5 884q113.5 -62 175 -172
t61.5 -250t-61.5 -250t-175 -172t-264.5 -62t-264.5 62t-175 172t-61.5 250t61.5 250t175 172t264.5 62t264.5 -62zM488 683q-54 -31 -83.5 -88t-29.5 -133t29.5 -133t83.5 -88t126 -31t126 31t83.5 88t29.5 133t-29.5 133t-83.5 88t-126 31t-126 -31z" />
    <glyph glyph-name="odieresis" unicode="&#xf6;" 
d="M490.5 1348.5q28.5 -14.5 28.5 -48.5v-164q0 -34 -26.5 -48.5t-96.5 -14.5t-98.5 14.5t-28.5 48.5v164q0 35 26 49t96 14q71 0 99.5 -14.5zM930.5 1348.5q28.5 -14.5 28.5 -48.5v-164q0 -34 -26.5 -48.5t-96.5 -14.5t-98.5 14.5t-28.5 48.5v164q0 35 26 49t96 14
q71 0 99.5 -14.5zM878.5 884q113.5 -62 175 -172t61.5 -250t-61.5 -250t-175 -172t-264.5 -62t-264.5 62t-175 172t-61.5 250t61.5 250t175 172t264.5 62t264.5 -62zM488 683q-54 -31 -83.5 -88t-29.5 -133t29.5 -133t83.5 -88t126 -31t126 31t83.5 88t29.5 133t-29.5 133
t-83.5 88t-126 31t-126 -31z" />
    <glyph glyph-name="ograve" unicode="&#xf2;" 
d="M821 1178q21 -15 21 -43t-22 -63q-32 -51 -68 -51q-13 0 -23 6l-407 205q-24 12 -24 44q0 39 40 93q57 75 103 75q17 0 33 -11zM878.5 884q113.5 -62 175 -172t61.5 -250t-61.5 -250t-175 -172t-264.5 -62t-264.5 62t-175 172t-61.5 250t61.5 250t175 172t264.5 62
t264.5 -62zM488 683q-54 -31 -83.5 -88t-29.5 -133t29.5 -133t83.5 -88t126 -31t126 31t83.5 88t29.5 133t-29.5 133t-83.5 88t-126 31t-126 -31z" />
    <glyph glyph-name="ohungarumlaut" unicode="&#x151;" 
d="M727 1321q0 -15 -14 -27l-265 -240q-18 -16 -47 -16q-28 0 -67 15q-26 10 -39.5 22.5t-13.5 26.5q0 10 8 20l221 266q19 22 56 22q36 0 90 -24q71 -32 71 -65zM1157 1321q0 -15 -14 -27l-265 -240q-18 -16 -47 -16q-28 0 -67 15q-26 10 -39.5 22.5t-13.5 26.5q0 10 8 20
l221 266q19 22 56 22q36 0 90 -24q71 -32 71 -65zM878.5 884q113.5 -62 175 -172t61.5 -250t-61.5 -250t-175 -172t-264.5 -62t-264.5 62t-175 172t-61.5 250t61.5 250t175 172t264.5 62t264.5 -62zM488 683q-54 -31 -83.5 -88t-29.5 -133t29.5 -133t83.5 -88t126 -31
t126 31t83.5 88t29.5 133t-29.5 133t-83.5 88t-126 31t-126 -31z" />
    <glyph glyph-name="omacron" unicode="&#x14d;" 
d="M922 1266.5q13 -8.5 19.5 -30.5t6.5 -64t-6.5 -64t-19.5 -30t-37 -8h-542q-24 0 -37 8t-19.5 30t-6.5 64t6.5 64t19.5 30.5t37 8.5h542q24 0 37 -8.5zM878.5 884q113.5 -62 175 -172t61.5 -250t-61.5 -250t-175 -172t-264.5 -62t-264.5 62t-175 172t-61.5 250t61.5 250
t175 172t264.5 62t264.5 -62zM488 683q-54 -31 -83.5 -88t-29.5 -133t29.5 -133t83.5 -88t126 -31t126 31t83.5 88t29.5 133t-29.5 133t-83.5 88t-126 31t-126 -31z" />
    <glyph glyph-name="oslash" unicode="&#xf8;" 
d="M1145 895q0 -18 -21 -41l-97 -100q43 -60 65.5 -134.5t22.5 -157.5q0 -140 -61.5 -250t-175 -172t-264.5 -62q-158 0 -274 68l-102 -105q-21 -23 -42 -23q-26 0 -69 42q-44 43 -44 69q0 18 21 41l97 100q-43 60 -65.5 134.5t-22.5 157.5q0 140 61.5 250t175 172t264.5 62
q158 0 274 -68l102 105q21 23 42 23q26 0 69 -42q44 -43 44 -69zM390 364l322 332q-44 18 -98 18q-72 0 -126 -31t-83.5 -88t-29.5 -133q0 -53 15 -98zM838 560l-322 -332q44 -18 98 -18q72 0 126 31t83.5 88t29.5 133q0 53 -15 98z" />
    <glyph glyph-name="otilde" unicode="&#xf5;" 
d="M558 1359q33 -12 77 -34q36 -18 58.5 -26.5t46.5 -8.5q61 0 129 72q14 14 30 14q29 0 66 -40q36 -40 36 -76q0 -20 -10 -34q-51 -76 -115 -118.5t-133 -42.5q-40 0 -73 12t-77 34q-36 18 -58.5 26.5t-46.5 8.5q-61 0 -129 -72q-14 -14 -30 -14q-29 0 -66 40
q-36 40 -36 76q0 20 10 34q51 76 115 118.5t133 42.5q40 0 73 -12zM878.5 884q113.5 -62 175 -172t61.5 -250t-61.5 -250t-175 -172t-264.5 -62t-264.5 62t-175 172t-61.5 250t61.5 250t175 172t264.5 62t264.5 -62zM488 683q-54 -31 -83.5 -88t-29.5 -133t29.5 -133
t83.5 -88t126 -31t126 31t83.5 88t29.5 133t-29.5 133t-83.5 88t-126 31t-126 -31z" />
    <glyph glyph-name="oe" unicode="&#x153;" 
d="M1061.5 882q73.5 -64 102.5 -176.5t29 -273.5q0 -34 -14.5 -48t-48.5 -14h-406q21 -165 134 -165q55 0 104.5 11.5t113.5 38.5q15 6 28 6q24 0 41 -21t31 -61t14 -65q0 -46 -45 -65q-164 -71 -302 -71q-146 0 -227 106q-82 -106 -232 -106q-185 0 -271 130t-86 354
t86 354t271 130q153 0 236 -110q88 110 238 110q130 0 203.5 -64zM292.5 657.5q-27.5 -61.5 -27.5 -195.5t27.5 -195.5t91.5 -61.5t91.5 61.5t27.5 195.5t-27.5 195.5t-91.5 61.5t-91.5 -61.5zM766.5 681.5q-31.5 -37.5 -42.5 -116.5h244q-5 74 -32.5 114t-77.5 40
q-60 0 -91.5 -37.5z" />
    <glyph glyph-name="p" unicode="p" 
d="M907 882q96 -64 147 -174t51 -246t-51 -246t-147 -174t-227 -64q-78 0 -145 30.5t-118 87.5v-421q0 -34 -14.5 -48.5t-48.5 -14.5h-124q-34 0 -48.5 14.5t-14.5 48.5v1186q0 34 14.5 48.5t48.5 14.5h94q34 0 48.5 -14.5t14.5 -48.5v-74q50 75 125.5 117t167.5 42
q131 0 227 -64zM524 684.5q-52 -29.5 -83 -86.5t-31 -136t31 -136t83 -86.5t116 -29.5q94 0 148.5 68t54.5 184t-54.5 184t-148.5 68q-64 0 -116 -29.5z" />
    <glyph glyph-name="thorn" unicode="&#xfe;" 
d="M402.5 1297.5q14.5 -14.5 14.5 -48.5v-421q51 57 118 87.5t145 30.5q131 0 227 -64t147 -174t51 -246t-51 -246t-147 -174t-227 -64q-78 0 -145 30.5t-118 87.5v-421q0 -34 -14.5 -48.5t-48.5 -14.5h-124q-34 0 -48.5 14.5t-14.5 48.5v1574q0 34 14.5 48.5t48.5 14.5h124
q34 0 48.5 -14.5zM524 684.5q-52 -29.5 -83 -86.5t-31 -136t31 -136t83 -86.5t116 -29.5q94 0 148.5 68t54.5 184t-54.5 184t-148.5 68q-64 0 -116 -29.5z" />
    <glyph glyph-name="q" unicode="q" 
d="M715.5 904q75.5 -42 125.5 -117v74q0 34 14.5 48.5t48.5 14.5h94q34 0 48.5 -14.5t14.5 -48.5v-1186q0 -34 -14.5 -48.5t-48.5 -14.5h-124q-34 0 -48.5 14.5t-14.5 48.5v421q-51 -57 -118 -87.5t-145 -30.5q-131 0 -227 64t-147 174t-51 246t51 246t147 174t227 64
q92 0 167.5 -42zM439.5 646q-54.5 -68 -54.5 -184t54.5 -184t148.5 -68q64 0 116 29.5t83 86.5t31 136t-31 136t-83 86.5t-116 29.5q-94 0 -148.5 -68z" />
    <glyph glyph-name="r" unicode="r" 
d="M1030 916q54 -21 54 -87q0 -25 -8 -62q-25 -108 -82 -108q-10 0 -19 3q-54 16 -108 16q-98 0 -180.5 -50t-131 -138.5t-48.5 -199.5v-227q0 -34 -14.5 -48.5t-48.5 -14.5h-124q-34 0 -48.5 14.5t-14.5 48.5v798q0 34 14.5 48.5t48.5 14.5h104q34 0 48.5 -14.5t14.5 -48.5
v-171q69 120 172.5 188t220.5 68q75 0 150 -30z" />
    <glyph glyph-name="racute" unicode="&#x155;" 
d="M869 1444q46 0 103 -75q40 -54 40 -93q0 -32 -24 -44l-407 -205q-10 -6 -23 -6q-36 0 -68 51q-22 35 -22 63t21 43l347 255q16 11 33 11zM1030 916q54 -21 54 -87q0 -25 -8 -62q-25 -108 -82 -108q-10 0 -19 3q-54 16 -108 16q-98 0 -180.5 -50t-131 -138.5t-48.5 -199.5
v-227q0 -34 -14.5 -48.5t-48.5 -14.5h-124q-34 0 -48.5 14.5t-14.5 48.5v798q0 34 14.5 48.5t48.5 14.5h104q34 0 48.5 -14.5t14.5 -48.5v-171q69 120 172.5 188t220.5 68q75 0 150 -30z" />
    <glyph glyph-name="rcaron" unicode="&#x159;" 
d="M622.5 1032.5q-15.5 5.5 -29.5 17.5l-265 225q-22 19 -22 42q0 25 25 60q30 43 60 43q16 0 33 -11l240 -138l240 138q17 11 33 11q30 0 60 -43q25 -35 25 -60q0 -23 -22 -42l-265 -225q-14 -12 -29.5 -17.5t-41.5 -5.5t-41.5 5.5zM1030 916q54 -21 54 -87q0 -25 -8 -62
q-25 -108 -82 -108q-10 0 -19 3q-54 16 -108 16q-98 0 -180.5 -50t-131 -138.5t-48.5 -199.5v-227q0 -34 -14.5 -48.5t-48.5 -14.5h-124q-34 0 -48.5 14.5t-14.5 48.5v798q0 34 14.5 48.5t48.5 14.5h104q34 0 48.5 -14.5t14.5 -48.5v-171q69 120 172.5 188t220.5 68
q75 0 150 -30z" />
    <glyph glyph-name="rcommaaccent" unicode="&#x157;" 
d="M1030 916q54 -21 54 -87q0 -25 -8 -62q-25 -108 -82 -108q-10 0 -19 3q-54 16 -108 16q-98 0 -180.5 -50t-131 -138.5t-48.5 -199.5v-227q0 -34 -14.5 -48.5t-48.5 -14.5h-124q-34 0 -48.5 14.5t-14.5 48.5v798q0 34 14.5 48.5t48.5 14.5h104q34 0 48.5 -14.5t14.5 -48.5
v-171q69 120 172.5 188t220.5 68q75 0 150 -30zM661 -169q0 -11 -4 -20l-124 -306q-10 -25 -33.5 -37t-67.5 -12q-50 0 -73.5 12.5t-23.5 39.5q0 8 1 13l59 306q2 13 12 20t24 7h206q24 0 24 -23z" />
    <glyph glyph-name="s" unicode="s" 
d="M430.5 -3.5q-111.5 18.5 -214.5 53.5q-51 18 -51 72q0 23 9 54q24 84 75 84q10 0 25 -5q182 -65 350 -65q101 0 144.5 22t43.5 64q0 23 -22.5 36.5t-65.5 21.5q-35 7 -115 14q-104 9 -177 22.5t-133 44.5q-135 70 -135 230q0 93 48.5 161t137 104t206.5 36
q104 0 215.5 -18.5t214.5 -53.5q51 -18 51 -72q0 -22 -9 -54q-24 -84 -75 -84q-10 0 -25 5q-182 65 -350 65q-81 0 -118.5 -21.5t-37.5 -63.5q0 -21 18 -33.5t53 -19.5q44 -9 130 -14q93 -7 157 -16.5t120 -30.5q80 -29 125.5 -86t45.5 -152q0 -96 -47.5 -167.5
t-142.5 -111.5t-235 -40q-104 0 -215.5 18.5z" />
    <glyph glyph-name="sacute" unicode="&#x15b;" 
d="M787 1444q46 0 103 -75q40 -54 40 -93q0 -32 -24 -44l-407 -205q-11 -6 -23 -6q-36 0 -68 51q-22 35 -22 63t21 43l347 255q16 11 33 11zM430.5 -3.5q-111.5 18.5 -214.5 53.5q-51 18 -51 72q0 23 9 54q24 84 75 84q10 0 25 -5q182 -65 350 -65q101 0 144.5 22t43.5 64
q0 23 -22.5 36.5t-65.5 21.5q-35 7 -115 14q-104 9 -177 22.5t-133 44.5q-135 70 -135 230q0 93 48.5 161t137 104t206.5 36q104 0 215.5 -18.5t214.5 -53.5q51 -18 51 -72q0 -22 -9 -54q-24 -84 -75 -84q-10 0 -25 5q-182 65 -350 65q-81 0 -118.5 -21.5t-37.5 -63.5
q0 -21 18 -33.5t53 -19.5q44 -9 130 -14q93 -7 157 -16.5t120 -30.5q80 -29 125.5 -86t45.5 -152q0 -96 -47.5 -167.5t-142.5 -111.5t-235 -40q-104 0 -215.5 18.5z" />
    <glyph glyph-name="scaron" unicode="&#x161;" 
d="M572.5 1032.5q-15.5 5.5 -29.5 17.5l-265 225q-22 19 -22 42q0 25 25 60q30 43 60 43q16 0 33 -11l240 -138l240 138q17 11 33 11q30 0 60 -43q25 -35 25 -60q0 -23 -22 -42l-265 -225q-14 -12 -29.5 -17.5t-41.5 -5.5t-41.5 5.5zM430.5 -3.5q-111.5 18.5 -214.5 53.5
q-51 18 -51 72q0 23 9 54q24 84 75 84q10 0 25 -5q182 -65 350 -65q101 0 144.5 22t43.5 64q0 23 -22.5 36.5t-65.5 21.5q-35 7 -115 14q-104 9 -177 22.5t-133 44.5q-135 70 -135 230q0 93 48.5 161t137 104t206.5 36q104 0 215.5 -18.5t214.5 -53.5q51 -18 51 -72
q0 -22 -9 -54q-24 -84 -75 -84q-10 0 -25 5q-182 65 -350 65q-81 0 -118.5 -21.5t-37.5 -63.5q0 -21 18 -33.5t53 -19.5q44 -9 130 -14q93 -7 157 -16.5t120 -30.5q80 -29 125.5 -86t45.5 -152q0 -96 -47.5 -167.5t-142.5 -111.5t-235 -40q-104 0 -215.5 18.5z" />
    <glyph glyph-name="scedilla" unicode="&#x15f;" 
d="M975 74q-96 -85 -281 -95v-62q107 0 161.5 -52.5t54.5 -137.5q0 -96 -71.5 -147.5t-207.5 -51.5q-147 0 -256 42q-24 10 -24 39q0 19 10 45q24 64 54 64q4 0 12 -2q82 -29 161 -29q49 0 72.5 12.5t23.5 38.5t-24 36.5t-67 10.5l-23 -1q-8 -1 -24 -1q-37 0 -37 41v162
q-150 15 -293 64q-51 18 -51 72q0 23 9 54q24 84 75 84q10 0 25 -5q182 -65 350 -65q101 0 144.5 22t43.5 64q0 23 -22.5 36.5t-65.5 21.5q-35 7 -115 14q-104 9 -177 22.5t-133 44.5q-135 70 -135 230q0 93 48.5 161t137 104t206.5 36q104 0 215.5 -18.5t214.5 -53.5
q51 -18 51 -72q0 -22 -9 -54q-24 -84 -75 -84q-10 0 -25 5q-182 65 -350 65q-81 0 -118.5 -21.5t-37.5 -63.5q0 -21 18 -33.5t53 -19.5q44 -9 130 -14q93 -7 157 -16.5t120 -30.5q80 -29 125.5 -86t45.5 -152q0 -138 -96 -223z" />
    <glyph glyph-name="scircumflex" unicode="&#x15d;" 
d="M655.5 1404.5q15.5 -5.5 29.5 -17.5l265 -225q22 -19 22 -42q0 -25 -25 -60q-30 -43 -60 -43q-16 0 -33 11l-240 138l-240 -138q-17 -11 -33 -11q-30 0 -60 43q-25 35 -25 60q0 23 22 42l265 225q14 12 29.5 17.5t41.5 5.5t41.5 -5.5zM430.5 -3.5
q-111.5 18.5 -214.5 53.5q-51 18 -51 72q0 23 9 54q24 84 75 84q10 0 25 -5q182 -65 350 -65q101 0 144.5 22t43.5 64q0 23 -22.5 36.5t-65.5 21.5q-35 7 -115 14q-104 9 -177 22.5t-133 44.5q-135 70 -135 230q0 93 48.5 161t137 104t206.5 36q104 0 215.5 -18.5
t214.5 -53.5q51 -18 51 -72q0 -22 -9 -54q-24 -84 -75 -84q-10 0 -25 5q-182 65 -350 65q-81 0 -118.5 -21.5t-37.5 -63.5q0 -21 18 -33.5t53 -19.5q44 -9 130 -14q93 -7 157 -16.5t120 -30.5q80 -29 125.5 -86t45.5 -152q0 -96 -47.5 -167.5t-142.5 -111.5t-235 -40
q-104 0 -215.5 18.5z" />
    <glyph glyph-name="scommaaccent" unicode="&#x219;" 
d="M430.5 -3.5q-111.5 18.5 -214.5 53.5q-51 18 -51 72q0 23 9 54q24 84 75 84q10 0 25 -5q182 -65 350 -65q101 0 144.5 22t43.5 64q0 23 -22.5 36.5t-65.5 21.5q-35 7 -115 14q-104 9 -177 22.5t-133 44.5q-135 70 -135 230q0 93 48.5 161t137 104t206.5 36
q104 0 215.5 -18.5t214.5 -53.5q51 -18 51 -72q0 -22 -9 -54q-24 -84 -75 -84q-10 0 -25 5q-182 65 -350 65q-81 0 -118.5 -21.5t-37.5 -63.5q0 -21 18 -33.5t53 -19.5q44 -9 130 -14q93 -7 157 -16.5t120 -30.5q80 -29 125.5 -86t45.5 -152q0 -96 -47.5 -167.5
t-142.5 -111.5t-235 -40q-104 0 -215.5 18.5zM761 -169q0 -11 -4 -20l-124 -306q-10 -25 -33.5 -37t-67.5 -12q-50 0 -73.5 12.5t-23.5 39.5q0 8 1 13l59 306q2 13 12 20t24 7h206q24 0 24 -23z" />
    <glyph glyph-name="germandbls" unicode="&#xdf;" 
d="M843 1270q94 -47 142 -131t48 -193q0 -94 -39 -159.5t-119 -108.5q102 -39 156.5 -118t54.5 -193q0 -127 -54 -214.5t-152 -131t-231 -43.5q-40 0 -58.5 25.5t-18.5 87.5q0 65 12 89.5t45 24.5q97 0 146 46t49 136q0 77 -48.5 119.5t-133.5 42.5q-34 0 -48.5 24.5
t-14.5 87.5q0 62 14 86t49 27q141 14 141 162q0 69 -42 111.5t-126 42.5q-86 0 -131.5 -55.5t-45.5 -160.5v-811q0 -34 -14.5 -48.5t-48.5 -14.5h-124q-34 0 -48.5 14.5t-14.5 48.5v814q0 133 51 232.5t147.5 153.5t230.5 54q132 0 226 -47z" />
    <glyph glyph-name="t" unicode="t" 
d="M1109 142q0 -23 -10.5 -38.5t-31.5 -26.5q-196 -99 -357 -99q-174 0 -265.5 97t-91.5 283v281h-193q-35 0 -49 23t-14 89t14 89.5t49 23.5h193v282q0 34 30.5 48.5t101.5 14.5q47 0 72.5 -6.5t35.5 -19.5t10 -37v-282h371q35 0 49 -23.5t14 -89.5t-14 -89t-49 -23h-371
v-263q0 -161 129 -161q86 0 251 73q18 8 32 8q45 0 76 -79q18 -45 18 -75z" />
    <glyph glyph-name="tbar" unicode="&#x167;" 
d="M1109 142q0 -23 -10.5 -38.5t-31.5 -26.5q-196 -99 -357 -99q-170 0 -261.5 92.5t-95.5 269.5h-100q-24 0 -37 8t-19.5 30t-6.5 64t6.5 64t19.5 30.5t37 8.5h100v94h-193q-35 0 -49 23t-14 89t14 89.5t49 23.5h193v282q0 34 30.5 48.5t101.5 14.5q47 0 72.5 -6.5
t35.5 -19.5t10 -37v-282h371q35 0 49 -23.5t14 -89.5t-14 -89t-49 -23h-371v-94h192q24 0 37 -8.5t19.5 -30.5t6.5 -64t-6.5 -64t-19.5 -30t-37 -8h-190q13 -125 127 -125q86 0 251 73q18 8 32 8q45 0 76 -79q18 -45 18 -75z" />
    <glyph glyph-name="tcaron" unicode="&#x165;" 
d="M768.5 1014.5q-23.5 12.5 -23.5 38.5q0 9 1 14l59 306q2 13 12 20t24 7h206q24 0 24 -23q0 -11 -4 -20l-124 -306q-10 -25 -33.5 -37t-67.5 -12q-50 0 -73.5 12.5zM1109 142q0 -23 -10.5 -38.5t-31.5 -26.5q-196 -99 -357 -99q-174 0 -265.5 97t-91.5 283v281h-193
q-35 0 -49 23t-14 89t14 89.5t49 23.5h193v282q0 34 30.5 48.5t101.5 14.5q47 0 72.5 -6.5t35.5 -19.5t10 -37v-282h371q35 0 49 -23.5t14 -89.5t-14 -89t-49 -23h-371v-263q0 -161 129 -161q86 0 251 73q18 8 32 8q45 0 76 -79q18 -45 18 -75z" />
    <glyph glyph-name="uni0163" unicode="&#x163;" 
d="M1109 142q0 -23 -10.5 -38.5t-31.5 -26.5q-183 -92 -333 -98v-62q107 0 161.5 -52.5t54.5 -137.5q0 -96 -71.5 -147.5t-207.5 -51.5q-147 0 -256 42q-24 10 -24 39q0 19 10 45q24 64 54 64q4 0 12 -2q82 -29 161 -29q49 0 72.5 12.5t23.5 38.5t-24 36.5t-67 10.5l-23 -1
q-8 -1 -24 -1q-37 0 -37 41v181q-96 38 -146 127t-50 226v281h-193q-35 0 -49 23t-14 89t14 89.5t49 23.5h193v282q0 34 30.5 48.5t101.5 14.5q47 0 72.5 -6.5t35.5 -19.5t10 -37v-282h371q35 0 49 -23.5t14 -89.5t-14 -89t-49 -23h-371v-263q0 -161 129 -161q86 0 251 73
q18 8 32 8q45 0 76 -79q18 -45 18 -75z" />
    <glyph glyph-name="uni021B" unicode="&#x21b;" 
d="M1109 142q0 -23 -10.5 -38.5t-31.5 -26.5q-196 -99 -357 -99q-174 0 -265.5 97t-91.5 283v281h-193q-35 0 -49 23t-14 89t14 89.5t49 23.5h193v282q0 34 30.5 48.5t101.5 14.5q47 0 72.5 -6.5t35.5 -19.5t10 -37v-282h371q35 0 49 -23.5t14 -89.5t-14 -89t-49 -23h-371
v-263q0 -161 129 -161q86 0 251 73q18 8 32 8q45 0 76 -79q18 -45 18 -75zM801 -169q0 -11 -4 -20l-124 -306q-10 -25 -33.5 -37t-67.5 -12q-50 0 -73.5 12.5t-23.5 39.5q0 8 1 13l59 306q2 13 12 20t24 7h206q24 0 24 -23z" />
    <glyph glyph-name="u" unicode="u" 
d="M1043.5 909.5q14.5 -14.5 14.5 -48.5v-798q0 -34 -14.5 -48.5t-48.5 -14.5h-94q-34 0 -48.5 14.5t-14.5 48.5v125q-70 -99 -162 -154.5t-198 -55.5q-98 0 -171 42t-112 118t-39 176v547q0 34 14.5 48.5t48.5 14.5h124q34 0 48.5 -14.5t14.5 -48.5v-488q0 -158 137 -158
q64 0 125.5 49t100.5 130t39 172v295q0 34 14.5 48.5t48.5 14.5h124q34 0 48.5 -14.5z" />
    <glyph glyph-name="uacute" unicode="&#xfa;" 
d="M807 1444q46 0 103 -75q40 -54 40 -93q0 -32 -24 -44l-407 -205q-10 -6 -23 -6q-36 0 -68 51q-22 35 -22 63t21 43l347 255q16 11 33 11zM1043.5 909.5q14.5 -14.5 14.5 -48.5v-798q0 -34 -14.5 -48.5t-48.5 -14.5h-94q-34 0 -48.5 14.5t-14.5 48.5v125
q-70 -99 -162 -154.5t-198 -55.5q-98 0 -171 42t-112 118t-39 176v547q0 34 14.5 48.5t48.5 14.5h124q34 0 48.5 -14.5t14.5 -48.5v-488q0 -158 137 -158q64 0 125.5 49t100.5 130t39 172v295q0 34 14.5 48.5t48.5 14.5h124q34 0 48.5 -14.5z" />
    <glyph glyph-name="ubreve" unicode="&#x16d;" 
d="M951 1363.5q16 -14.5 16 -35.5q0 -9 -1 -13q-24 -127 -114 -200.5t-238 -73.5t-238 73.5t-114 200.5q-1 4 -1 13q0 21 16 35.5t50 23.5q24 7 43 7q32 0 43 -27q23 -64 71.5 -93t129.5 -29t129.5 29t71.5 93q11 27 43 27q19 0 43 -7q34 -9 50 -23.5zM1043.5 909.5
q14.5 -14.5 14.5 -48.5v-798q0 -34 -14.5 -48.5t-48.5 -14.5h-94q-34 0 -48.5 14.5t-14.5 48.5v125q-70 -99 -162 -154.5t-198 -55.5q-98 0 -171 42t-112 118t-39 176v547q0 34 14.5 48.5t48.5 14.5h124q34 0 48.5 -14.5t14.5 -48.5v-488q0 -158 137 -158q64 0 125.5 49
t100.5 130t39 172v295q0 34 14.5 48.5t48.5 14.5h124q34 0 48.5 -14.5z" />
    <glyph glyph-name="ucircumflex" unicode="&#xfb;" 
d="M648.5 1404.5q15.5 -5.5 29.5 -17.5l265 -225q22 -19 22 -42q0 -25 -25 -60q-30 -43 -60 -43q-16 0 -33 11l-240 138l-240 -138q-17 -11 -33 -11q-30 0 -60 43q-25 35 -25 60q0 23 22 42l265 225q14 12 29.5 17.5t41.5 5.5t41.5 -5.5zM1043.5 909.5
q14.5 -14.5 14.5 -48.5v-798q0 -34 -14.5 -48.5t-48.5 -14.5h-94q-34 0 -48.5 14.5t-14.5 48.5v125q-70 -99 -162 -154.5t-198 -55.5q-98 0 -171 42t-112 118t-39 176v547q0 34 14.5 48.5t48.5 14.5h124q34 0 48.5 -14.5t14.5 -48.5v-488q0 -158 137 -158q64 0 125.5 49
t100.5 130t39 172v295q0 34 14.5 48.5t48.5 14.5h124q34 0 48.5 -14.5z" />
    <glyph glyph-name="udieresis" unicode="&#xfc;" 
d="M483.5 1348.5q28.5 -14.5 28.5 -48.5v-164q0 -34 -26.5 -48.5t-96.5 -14.5t-98.5 14.5t-28.5 48.5v164q0 35 26 49t96 14q71 0 99.5 -14.5zM923.5 1348.5q28.5 -14.5 28.5 -48.5v-164q0 -34 -26.5 -48.5t-96.5 -14.5t-98.5 14.5t-28.5 48.5v164q0 35 26 49t96 14
q71 0 99.5 -14.5zM1043.5 909.5q14.5 -14.5 14.5 -48.5v-798q0 -34 -14.5 -48.5t-48.5 -14.5h-94q-34 0 -48.5 14.5t-14.5 48.5v125q-70 -99 -162 -154.5t-198 -55.5q-98 0 -171 42t-112 118t-39 176v547q0 34 14.5 48.5t48.5 14.5h124q34 0 48.5 -14.5t14.5 -48.5v-488
q0 -158 137 -158q64 0 125.5 49t100.5 130t39 172v295q0 34 14.5 48.5t48.5 14.5h124q34 0 48.5 -14.5z" />
    <glyph glyph-name="ugrave" unicode="&#xf9;" 
d="M811 1178q21 -15 21 -43t-22 -63q-32 -51 -68 -51q-12 0 -23 6l-407 205q-24 12 -24 44q0 39 40 93q57 75 103 75q17 0 33 -11zM1043.5 909.5q14.5 -14.5 14.5 -48.5v-798q0 -34 -14.5 -48.5t-48.5 -14.5h-94q-34 0 -48.5 14.5t-14.5 48.5v125q-70 -99 -162 -154.5
t-198 -55.5q-98 0 -171 42t-112 118t-39 176v547q0 34 14.5 48.5t48.5 14.5h124q34 0 48.5 -14.5t14.5 -48.5v-488q0 -158 137 -158q64 0 125.5 49t100.5 130t39 172v295q0 34 14.5 48.5t48.5 14.5h124q34 0 48.5 -14.5z" />
    <glyph glyph-name="uhungarumlaut" unicode="&#x171;" 
d="M707 1321q0 -15 -14 -27l-265 -240q-18 -16 -47 -16q-28 0 -67 15q-26 10 -39.5 22.5t-13.5 26.5q0 10 8 20l221 266q19 22 56 22q36 0 90 -24q71 -32 71 -65zM1137 1321q0 -15 -14 -27l-265 -240q-18 -16 -47 -16q-28 0 -67 15q-26 10 -39.5 22.5t-13.5 26.5q0 10 8 20
l221 266q19 22 56 22q36 0 90 -24q71 -32 71 -65zM1043.5 909.5q14.5 -14.5 14.5 -48.5v-798q0 -34 -14.5 -48.5t-48.5 -14.5h-94q-34 0 -48.5 14.5t-14.5 48.5v125q-70 -99 -162 -154.5t-198 -55.5q-98 0 -171 42t-112 118t-39 176v547q0 34 14.5 48.5t48.5 14.5h124
q34 0 48.5 -14.5t14.5 -48.5v-488q0 -158 137 -158q64 0 125.5 49t100.5 130t39 172v295q0 34 14.5 48.5t48.5 14.5h124q34 0 48.5 -14.5z" />
    <glyph glyph-name="umacron" unicode="&#x16b;" 
d="M922 1266.5q13 -8.5 19.5 -30.5t6.5 -64t-6.5 -64t-19.5 -30t-37 -8h-542q-24 0 -37 8t-19.5 30t-6.5 64t6.5 64t19.5 30.5t37 8.5h542q24 0 37 -8.5zM1043.5 909.5q14.5 -14.5 14.5 -48.5v-798q0 -34 -14.5 -48.5t-48.5 -14.5h-94q-34 0 -48.5 14.5t-14.5 48.5v125
q-70 -99 -162 -154.5t-198 -55.5q-98 0 -171 42t-112 118t-39 176v547q0 34 14.5 48.5t48.5 14.5h124q34 0 48.5 -14.5t14.5 -48.5v-488q0 -158 137 -158q64 0 125.5 49t100.5 130t39 172v295q0 34 14.5 48.5t48.5 14.5h124q34 0 48.5 -14.5z" />
    <glyph glyph-name="uogonek" unicode="&#x173;" 
d="M1043.5 909.5q14.5 -14.5 14.5 -48.5v-798q0 -38 -18 -52q-171 -131 -171 -222q0 -67 88 -67q46 0 120 13q51 8 51 -97q0 -33 -10 -51t-30 -25q-102 -34 -216 -34q-118 0 -182 52t-64 151q0 86 55.5 153.5t156.5 132.5v171q-70 -99 -162 -154.5t-198 -55.5q-98 0 -171 42
t-112 118t-39 176v547q0 34 14.5 48.5t48.5 14.5h124q34 0 48.5 -14.5t14.5 -48.5v-488q0 -158 137 -158q64 0 125.5 49t100.5 130t39 172v295q0 34 14.5 48.5t48.5 14.5h124q34 0 48.5 -14.5z" />
    <glyph glyph-name="uring" unicode="&#x16f;" 
d="M738 1523q60 -34 94 -94t34 -134t-34 -134t-94 -94t-134 -34t-134 34t-94 94t-34 134t34 134t94 94t134 34t134 -34zM537 1362q-25 -25 -25 -67t25 -67t67 -25t67 25t25 67t-25 67t-67 25t-67 -25zM1043.5 909.5q14.5 -14.5 14.5 -48.5v-798q0 -34 -14.5 -48.5
t-48.5 -14.5h-94q-34 0 -48.5 14.5t-14.5 48.5v125q-70 -99 -162 -154.5t-198 -55.5q-98 0 -171 42t-112 118t-39 176v547q0 34 14.5 48.5t48.5 14.5h124q34 0 48.5 -14.5t14.5 -48.5v-488q0 -158 137 -158q64 0 125.5 49t100.5 130t39 172v295q0 34 14.5 48.5t48.5 14.5
h124q34 0 48.5 -14.5z" />
    <glyph glyph-name="utilde" unicode="&#x169;" 
d="M558 1359q33 -12 77 -34q36 -18 58.5 -26.5t46.5 -8.5q61 0 129 72q14 14 30 14q29 0 66 -40q36 -40 36 -76q0 -20 -10 -34q-51 -76 -115 -118.5t-133 -42.5q-40 0 -73 12t-77 34q-36 18 -58.5 26.5t-46.5 8.5q-61 0 -129 -72q-14 -14 -30 -14q-29 0 -66 40
q-36 40 -36 76q0 20 10 34q51 76 115 118.5t133 42.5q40 0 73 -12zM1043.5 909.5q14.5 -14.5 14.5 -48.5v-798q0 -34 -14.5 -48.5t-48.5 -14.5h-94q-34 0 -48.5 14.5t-14.5 48.5v125q-70 -99 -162 -154.5t-198 -55.5q-98 0 -171 42t-112 118t-39 176v547q0 34 14.5 48.5
t48.5 14.5h124q34 0 48.5 -14.5t14.5 -48.5v-488q0 -158 137 -158q64 0 125.5 49t100.5 130t39 172v295q0 34 14.5 48.5t48.5 14.5h124q34 0 48.5 -14.5z" />
    <glyph glyph-name="v" unicode="v" 
d="M1121 855q0 -10 -7 -28l-350 -784q-15 -35 -49 -50t-104 -15t-103 15t-48 50l-346 784q-6 14 -6 27q0 48 105 72q51 12 82 12q28 0 45 -10t26 -31l251 -599l250 599q8 21 24.5 31t44.5 10q30 0 81 -12q104 -24 104 -71z" />
    <glyph glyph-name="w" unicode="w" 
d="M1152 908.5q23 -14.5 23 -41.5q0 -6 -2 -18l-158 -806q-7 -36 -33.5 -50.5t-87.5 -14.5q-60 0 -91.5 15.5t-45.5 49.5l-146 352l-150 -352q-15 -34 -47 -49.5t-92 -15.5t-86 14.5t-33 50.5l-153 806q-2 12 -2 17q0 27 23.5 42t79.5 22q38 4 51 4q38 0 57.5 -12t23.5 -39
l87 -510l145 337q12 29 33.5 43t62.5 14q43 0 64.5 -12t32.5 -38l143 -344l94 510q5 27 23 39t55 12q13 0 51 -4q55 -7 78 -21.5z" />
    <glyph glyph-name="wacute" unicode="&#x1e83;" 
d="M829 1444q46 0 103 -75q40 -54 40 -93q0 -32 -24 -44l-407 -205q-10 -6 -23 -6q-36 0 -68 51q-22 35 -22 63t21 43l347 255q16 11 33 11zM1152 908.5q23 -14.5 23 -41.5q0 -6 -2 -18l-158 -806q-7 -36 -33.5 -50.5t-87.5 -14.5q-60 0 -91.5 15.5t-45.5 49.5l-146 352
l-150 -352q-15 -34 -47 -49.5t-92 -15.5t-86 14.5t-33 50.5l-153 806q-2 12 -2 17q0 27 23.5 42t79.5 22q38 4 51 4q38 0 57.5 -12t23.5 -39l87 -510l145 337q12 29 33.5 43t62.5 14q43 0 64.5 -12t32.5 -38l143 -344l94 510q5 27 23 39t55 12q13 0 51 -4q55 -7 78 -21.5z
" />
    <glyph glyph-name="wcircumflex" unicode="&#x175;" 
d="M655.5 1404.5q15.5 -5.5 29.5 -17.5l265 -225q22 -19 22 -42q0 -25 -25 -60q-30 -43 -60 -43q-16 0 -33 11l-240 138l-240 -138q-17 -11 -33 -11q-30 0 -60 43q-25 35 -25 60q0 23 22 42l265 225q14 12 29.5 17.5t41.5 5.5t41.5 -5.5zM1152 908.5q23 -14.5 23 -41.5
q0 -6 -2 -18l-158 -806q-7 -36 -33.5 -50.5t-87.5 -14.5q-60 0 -91.5 15.5t-45.5 49.5l-146 352l-150 -352q-15 -34 -47 -49.5t-92 -15.5t-86 14.5t-33 50.5l-153 806q-2 12 -2 17q0 27 23.5 42t79.5 22q38 4 51 4q38 0 57.5 -12t23.5 -39l87 -510l145 337q12 29 33.5 43
t62.5 14q43 0 64.5 -12t32.5 -38l143 -344l94 510q5 27 23 39t55 12q13 0 51 -4q55 -7 78 -21.5z" />
    <glyph glyph-name="wdieresis" unicode="&#x1e85;" 
d="M490.5 1348.5q28.5 -14.5 28.5 -48.5v-164q0 -34 -26.5 -48.5t-96.5 -14.5t-98.5 14.5t-28.5 48.5v164q0 35 26 49t96 14q71 0 99.5 -14.5zM930.5 1348.5q28.5 -14.5 28.5 -48.5v-164q0 -34 -26.5 -48.5t-96.5 -14.5t-98.5 14.5t-28.5 48.5v164q0 35 26 49t96 14
q71 0 99.5 -14.5zM1152 908.5q23 -14.5 23 -41.5q0 -6 -2 -18l-158 -806q-7 -36 -33.5 -50.5t-87.5 -14.5q-60 0 -91.5 15.5t-45.5 49.5l-146 352l-150 -352q-15 -34 -47 -49.5t-92 -15.5t-86 14.5t-33 50.5l-153 806q-2 12 -2 17q0 27 23.5 42t79.5 22q38 4 51 4
q38 0 57.5 -12t23.5 -39l87 -510l145 337q12 29 33.5 43t62.5 14q43 0 64.5 -12t32.5 -38l143 -344l94 510q5 27 23 39t55 12q13 0 51 -4q55 -7 78 -21.5z" />
    <glyph glyph-name="wgrave" unicode="&#x1e81;" 
d="M779 1178q21 -15 21 -43t-22 -63q-32 -51 -68 -51q-13 0 -23 6l-407 205q-24 12 -24 44q0 39 40 93q57 75 103 75q17 0 33 -11zM1152 908.5q23 -14.5 23 -41.5q0 -6 -2 -18l-158 -806q-7 -36 -33.5 -50.5t-87.5 -14.5q-60 0 -91.5 15.5t-45.5 49.5l-146 352l-150 -352
q-15 -34 -47 -49.5t-92 -15.5t-86 14.5t-33 50.5l-153 806q-2 12 -2 17q0 27 23.5 42t79.5 22q38 4 51 4q38 0 57.5 -12t23.5 -39l87 -510l145 337q12 29 33.5 43t62.5 14q43 0 64.5 -12t32.5 -38l143 -344l94 510q5 27 23 39t55 12q13 0 51 -4q55 -7 78 -21.5z" />
    <glyph glyph-name="x" unicode="x" 
d="M1086 113q0 -21 -19 -42.5t-58 -46.5q-61 -38 -98 -38q-31 0 -56 28l-241 283l-241 -283q-25 -28 -56 -28q-37 0 -98 38q-39 25 -58 46.5t-19 42.5q0 23 23 49l274 306l-264 294q-23 26 -23 49q0 21 19 42.5t58 46.5q61 38 98 38q31 0 56 -28l231 -271l231 271
q25 28 56 28q37 0 98 -38q39 -25 58 -46.5t19 -42.5q0 -23 -23 -49l-264 -294l274 -306q23 -26 23 -49z" />
    <glyph glyph-name="y" unicode="y" 
d="M1121 855q0 -10 -7 -28l-537 -1193q-18 -39 -65 -39q-31 0 -90 17q-53 16 -77.5 34t-24.5 41q0 12 8 28l149 291l-363 821q-6 14 -6 27q0 48 105 72q51 12 82 12q28 0 45 -10t26 -31l251 -599l250 599q8 21 24.5 31t44.5 10q30 0 81 -12q104 -24 104 -71z" />
    <glyph glyph-name="yacute" unicode="&#xfd;" 
d="M531 1021q-36 0 -68 51q-22 35 -22 63t21 43l347 255q16 11 33 11q46 0 103 -75q40 -54 40 -93q0 -32 -24 -44l-407 -205q-10 -6 -23 -6zM1121 855q0 -10 -7 -28l-537 -1193q-18 -39 -65 -39q-31 0 -90 17q-53 16 -77.5 34t-24.5 41q0 12 8 28l149 291l-363 821
q-6 14 -6 27q0 48 105 72q51 12 82 12q28 0 45 -10t26 -31l251 -599l250 599q8 21 24.5 31t44.5 10q30 0 81 -12q104 -24 104 -71z" />
    <glyph glyph-name="ycircumflex" unicode="&#x177;" 
d="M347 1017q-30 0 -60 43q-25 35 -25 60q0 23 22 42l265 225q14 12 29.5 17.5t41.5 5.5t41.5 -5.5t29.5 -17.5l265 -225q22 -19 22 -42q0 -25 -25 -60q-30 -43 -60 -43q-16 0 -33 11l-240 138l-240 -138q-17 -11 -33 -11zM1121 855q0 -10 -7 -28l-537 -1193
q-18 -39 -65 -39q-31 0 -90 17q-53 16 -77.5 34t-24.5 41q0 12 8 28l149 291l-363 821q-6 14 -6 27q0 48 105 72q51 12 82 12q28 0 45 -10t26 -31l251 -599l250 599q8 21 24.5 31t44.5 10q30 0 81 -12q104 -24 104 -71z" />
    <glyph glyph-name="ydieresis" unicode="&#xff;" 
d="M302.5 1087.5q-28.5 14.5 -28.5 48.5v164q0 35 26 49t96 14q71 0 99.5 -14.5t28.5 -48.5v-164q0 -34 -26.5 -48.5t-96.5 -14.5t-98.5 14.5zM742.5 1087.5q-28.5 14.5 -28.5 48.5v164q0 35 26 49t96 14q71 0 99.5 -14.5t28.5 -48.5v-164q0 -34 -26.5 -48.5t-96.5 -14.5
t-98.5 14.5zM1121 855q0 -10 -7 -28l-537 -1193q-18 -39 -65 -39q-31 0 -90 17q-53 16 -77.5 34t-24.5 41q0 12 8 28l149 291l-363 821q-6 14 -6 27q0 48 105 72q51 12 82 12q28 0 45 -10t26 -31l251 -599l250 599q8 21 24.5 31t44.5 10q30 0 81 -12q104 -24 104 -71z" />
    <glyph glyph-name="ygrave" unicode="&#x1ef3;" 
d="M266 1276q0 39 40 93q57 75 103 75q17 0 33 -11l347 -255q21 -15 21 -43t-22 -63q-32 -51 -68 -51q-13 0 -23 6l-407 205q-24 12 -24 44zM1121 855q0 -10 -7 -28l-537 -1193q-18 -39 -65 -39q-31 0 -90 17q-53 16 -77.5 34t-24.5 41q0 12 8 28l149 291l-363 821
q-6 14 -6 27q0 48 105 72q51 12 82 12q28 0 45 -10t26 -31l251 -599l250 599q8 21 24.5 31t44.5 10q30 0 81 -12q104 -24 104 -71z" />
    <glyph glyph-name="z" unicode="z" 
d="M1076 202q14 -23 14 -89t-14 -89.5t-49 -23.5h-826q-24 0 -37 8t-19.5 30t-6.5 64q0 27 7 45t25 37l503 515h-462q-35 0 -49 23t-14 89t14 89.5t49 23.5h806q24 0 37 -8t19.5 -30t6.5 -64q0 -27 -7 -45t-25 -37l-503 -515h482q35 0 49 -23z" />
    <glyph glyph-name="zacute" unicode="&#x17a;" 
d="M486 1021q-36 0 -68 51q-22 35 -22 63t21 43l347 255q16 11 33 11q46 0 103 -75q40 -54 40 -93q0 -32 -24 -44l-407 -205q-10 -6 -23 -6zM1076 202q14 -23 14 -89t-14 -89.5t-49 -23.5h-826q-24 0 -37 8t-19.5 30t-6.5 64q0 27 7 45t25 37l503 515h-462q-35 0 -49 23
t-14 89t14 89.5t49 23.5h806q24 0 37 -8t19.5 -30t6.5 -64q0 -27 -7 -45t-25 -37l-503 -515h482q35 0 49 -23z" />
    <glyph glyph-name="zcaron" unicode="&#x17e;" 
d="M266 1317q0 25 25 60q30 43 60 43q16 0 33 -11l240 -138l240 138q17 11 33 11q30 0 60 -43q25 -35 25 -60q0 -23 -22 -42l-265 -225q-14 -12 -29.5 -17.5t-41.5 -5.5t-41.5 5.5t-29.5 17.5l-265 225q-22 19 -22 42zM1076 202q14 -23 14 -89t-14 -89.5t-49 -23.5h-826
q-24 0 -37 8t-19.5 30t-6.5 64q0 27 7 45t25 37l503 515h-462q-35 0 -49 23t-14 89t14 89.5t49 23.5h806q24 0 37 -8t19.5 -30t6.5 -64q0 -27 -7 -45t-25 -37l-503 -515h482q35 0 49 -23z" />
    <glyph glyph-name="zdotaccent" unicode="&#x17c;" 
d="M527.5 1087.5q-28.5 14.5 -28.5 48.5v164q0 35 26 49t96 14q71 0 99.5 -14.5t28.5 -48.5v-164q0 -34 -26.5 -48.5t-96.5 -14.5t-98.5 14.5zM1076 202q14 -23 14 -89t-14 -89.5t-49 -23.5h-826q-24 0 -37 8t-19.5 30t-6.5 64q0 27 7 45t25 37l503 515h-462q-35 0 -49 23
t-14 89t14 89.5t49 23.5h806q24 0 37 -8t19.5 -30t6.5 -64q0 -27 -7 -45t-25 -37l-503 -515h482q35 0 49 -23z" />
    <glyph glyph-name="uniFB01" unicode="&#xfb01;" horiz-adv-x="2456" 
d="M1759.5 1087.5q-28.5 14.5 -28.5 48.5v164q0 35 26 49t96 14q71 0 99.5 -14.5t28.5 -48.5v-164q0 -34 -26.5 -48.5t-96.5 -14.5t-98.5 14.5zM1111 1234q12 -17 12 -46q0 -28 -10 -64q-13 -46 -31.5 -66.5t-42.5 -20.5q-13 0 -25 4q-127 39 -222 39q-63 0 -96 -37.5
t-33 -118.5v-60h311q35 0 49 -23.5t14 -89.5t-14 -89t-49 -23h-311v-576q0 -34 -14.5 -48.5t-48.5 -14.5h-124q-34 0 -48.5 14.5t-14.5 48.5v576h-183q-35 0 -49 23t-14 89t14 89.5t49 23.5h183v73q0 186 91.5 283t265.5 97q152 0 304 -57q25 -9 37 -26zM2311 201.5
q14 -23.5 14 -89.5t-14 -89t-49 -23h-804q-35 0 -49 23t-14 89t14 89.5t49 23.5h273v474h-213q-35 0 -49 23t-14 89t14 89.5t49 23.5h400q34 0 48.5 -14.5t14.5 -48.5v-636h281q35 0 49 -23.5z" />
    <glyph glyph-name="uniFB02" unicode="&#xfb02;" horiz-adv-x="2456" 
d="M1111 1234q12 -17 12 -46q0 -28 -10 -64q-13 -46 -31.5 -66.5t-42.5 -20.5q-13 0 -25 4q-127 39 -222 39q-63 0 -96 -37.5t-33 -118.5v-60h311q35 0 49 -23.5t14 -89.5t-14 -89t-49 -23h-311v-576q0 -34 -14.5 -48.5t-48.5 -14.5h-124q-34 0 -48.5 14.5t-14.5 48.5v576
h-183q-35 0 -49 23t-14 89t14 89.5t49 23.5h183v73q0 186 91.5 283t265.5 97q152 0 304 -57q25 -9 37 -26zM2301 201.5q14 -23.5 14 -89.5t-14 -89t-49 -23h-804q-35 0 -49 23t-14 89t14 89.5t49 23.5h273v862h-233q-35 0 -49 23t-14 89t14 89.5t49 23.5h420
q34 0 48.5 -14.5t14.5 -48.5v-1024h281q35 0 49 -23.5z" />
    <glyph glyph-name="ordfeminine" unicode="&#xaa;" 
d="M868.5 1136q75.5 -73 75.5 -209v-396q0 -26 -11.5 -37.5t-37.5 -11.5h-74q-26 0 -37.5 11.5t-11.5 37.5v25q-119 -91 -248 -91q-131 0 -204 65.5t-73 178.5q0 107 75.5 166.5t211.5 59.5q99 0 217 -23v22q0 50 -34 75.5t-115 25.5q-83 0 -208 -41q-11 -4 -22 -4
q-21 0 -36 17t-27 53q-10 28 -10 47q0 36 35 49q70 26 147.5 39.5t142.5 13.5q169 0 244.5 -73zM471 756.5q-28 -19.5 -28 -55.5t27.5 -55t78.5 -19q53 0 105 21.5t97 57.5v50q-101 20 -198 20q-54 0 -82 -19.5z" />
    <glyph glyph-name="ordmasculine" unicode="&#xba;" 
d="M819 1161q88 -48 135.5 -132.5t47.5 -191.5t-47.5 -191.5t-135.5 -132.5t-205 -48q-116 0 -204 48t-136 132.5t-48 191.5t48 191.5t136 132.5t204 48q117 0 205 -48zM479 976.5q-51 -50.5 -51 -139.5t50.5 -139t135.5 -50t135.5 50t50.5 139t-50.5 139.5t-135.5 50.5
q-84 0 -135 -50.5z" />
    <glyph glyph-name="Delta" unicode="&#x394;" 
d="M721 1194q35 -15 46 -50l309 -975q7 -21 7 -67q0 -42 -6.5 -64t-19.5 -30t-37 -8h-812q-24 0 -37 8t-19.5 30t-6.5 64q0 46 7 67l313 975q11 36 46 50.5t106 14.5q69 0 104 -15zM614 852l-186 -627h372l-182 627h-4z" />
    <glyph glyph-name="Omega" unicode="&#x3a9;" 
d="M903 1140.5q125 -68.5 193.5 -196t68.5 -300.5q0 -125 -51 -228t-146 -181h153q24 0 37 -10t19.5 -35.5t6.5 -72.5t-6.5 -72.5t-19.5 -35t-37 -9.5h-370q-24 0 -37 12.5t-19.5 45.5t-6.5 95q0 52 5.5 76t22.5 35q95 63 138 156t43 224q0 164 -72 251t-211 87t-211 -87
t-72 -251q0 -131 43 -224t138 -156q17 -11 22.5 -35t5.5 -76q0 -62 -6.5 -95t-19.5 -45.5t-37 -12.5h-370q-24 0 -37 9.5t-19.5 35t-6.5 72.5t6.5 72.5t19.5 35.5t37 10h153q-95 78 -146 181t-51 228q0 173 68.5 300.5t193.5 196t289 68.5t289 -68.5z" />
    <glyph glyph-name="mu" unicode="&#x3bc;" 
d="M1041.5 909.5q14.5 -14.5 14.5 -48.5v-798q0 -34 -14.5 -48.5t-48.5 -14.5h-94q-34 0 -48.5 14.5t-14.5 48.5v105q-64 -89 -148.5 -139.5t-181.5 -50.5q-34 0 -72 10v-313q0 -34 -14.5 -48.5t-48.5 -14.5h-124q-34 0 -48.5 14.5t-14.5 48.5v1186q0 34 14.5 48.5
t48.5 14.5h124q34 0 48.5 -14.5t14.5 -48.5v-488q0 -158 137 -158q57 0 111.5 40t89 107.5t34.5 143.5v355q0 34 14.5 48.5t48.5 14.5h124q34 0 48.5 -14.5z" />
    <glyph glyph-name="pi" unicode="&#x3c0;" 
d="M1144 900.5q14 -23.5 14 -89.5t-14 -89t-49 -23h-83v-636q0 -34 -14.5 -48.5t-48.5 -14.5h-124q-34 0 -48.5 14.5t-14.5 48.5v636h-296v-636q0 -34 -14.5 -48.5t-48.5 -14.5h-124q-34 0 -48.5 14.5t-14.5 48.5v636h-83q-35 0 -49 23t-14 89t14 89.5t49 23.5h962
q35 0 49 -23.5z" />
    <glyph glyph-name="zero" unicode="0" 
d="M869 1131q108 -78 165.5 -218t57.5 -320t-57.5 -319.5t-165.5 -217.5t-255 -78t-255 78t-165.5 217.5t-57.5 319.5t57.5 320t165.5 218t255 78t255 -78zM454 876.5q-56 -95.5 -56 -283.5t56 -283t160 -95t160 95t56 283t-56 283.5t-160 95.5t-160 -95.5z" />
    <glyph glyph-name="one" unicode="1" 
d="M1054 201.5q14 -23.5 14 -89.5q0 -45 -6.5 -69t-19.5 -33.5t-37 -9.5h-732q-24 0 -37 9.5t-19.5 33.5t-6.5 69q0 66 14 89.5t49 23.5h246v644l-209 -119q-15 -9 -29 -9q-19 0 -37 20t-38 64t-20 73q0 21 9.5 35t29.5 25l422 238q28 16 57 16t47 -16t18 -48v-923h236
q35 0 49 -23.5z" />
    <glyph glyph-name="two" unicode="2" 
d="M1028 225q13 -10 19.5 -35.5t6.5 -72.5t-6.5 -72.5t-19.5 -35t-37 -9.5h-740q-24 0 -37 8.5t-19.5 30.5t-6.5 64q0 40 5 60t19 33l393 390q61 62 91.5 97t48 69.5t17.5 71.5q0 70 -41.5 109t-119.5 39q-129 0 -281 -75q-16 -8 -30 -8q-48 0 -78 85q-12 36 -12 62
q0 27 12 45t35 31q175 97 363 97q131 0 222 -46t137.5 -130.5t46.5 -198.5q0 -101 -51 -191.5t-151 -187.5l-225 -220h402q24 0 37 -10z" />
    <glyph glyph-name="three" unicode="3" 
d="M891.5 1121.5q109.5 -87.5 109.5 -252.5q0 -171 -141 -245q83 -38 129.5 -105.5t46.5 -162.5q0 -187 -127 -282.5t-355 -95.5q-198 0 -343 77q-37 19 -37 64q0 29 16 76q32 88 75 88q9 0 21 -5q64 -30 133.5 -46.5t134.5 -16.5q106 0 160 37t54 108q0 69 -43 103.5
t-127 34.5h-133q-35 0 -49 23.5t-14 88.5t14 89t49 24h106q89 0 132.5 31.5t43.5 98.5q0 63 -44.5 93.5t-128.5 30.5q-65 0 -134 -16.5t-134 -47.5q-10 -5 -19 -5q-42 0 -76 86q-17 43 -17 74q0 45 37 64q145 77 349 77q202 0 311.5 -87.5z" />
    <glyph glyph-name="four" unicode="4" 
d="M1072 485q13 -10 19.5 -35.5t6.5 -72.5t-6.5 -72.5t-19.5 -35t-37 -9.5h-152v-197q0 -34 -14.5 -48.5t-48.5 -14.5h-124q-34 0 -48.5 14.5t-14.5 48.5v197h-450q-24 0 -37 9.5t-19.5 35t-6.5 72.5q0 75 17 99l472 664q28 35 62.5 52t86.5 17q63 0 94 -24t31 -66v-624h152
q24 0 37 -10zM409 495h232l19 361z" />
    <glyph glyph-name="five" unicode="5" 
d="M868.5 726.5q87.5 -49.5 132.5 -138.5t45 -207q0 -200 -125 -301.5t-347 -101.5q-95 0 -188.5 23.5t-171.5 65.5q-37 21 -37 65q0 32 17 76q33 87 75 87q10 0 20 -5q70 -35 143.5 -55t141.5 -20q94 0 149 42.5t55 126.5q0 79 -45.5 122t-128.5 43q-94 0 -192 -36
q-42 -16 -82 -16q-64 0 -90.5 15t-24.5 50l33 560q2 35 16.5 50t48.5 15h608q24 0 37 -10t19.5 -35.5t6.5 -72.5t-6.5 -72.5t-19.5 -35t-37 -9.5h-443l-13 -213q96 37 192 37q124 0 211.5 -49.5z" />
    <glyph glyph-name="six" unicode="6" 
d="M1024.5 1168q14.5 -42 14.5 -111q0 -87 -41 -90q-184 -9 -304.5 -47t-187 -110t-86.5 -186q54 60 121 88.5t154 28.5q111 0 197.5 -47.5t134.5 -132.5t48 -195q0 -112 -56.5 -200.5t-158 -138t-229.5 -49.5q-126 0 -222 51t-161 147q-41 61 -63 147.5t-22 188.5
q0 211 92.5 363.5t275 238t446.5 95.5q33 1 47.5 -41zM535 509q-45 -20 -70 -56t-25 -82t22.5 -85t66 -62t101.5 -23q86 0 139.5 44.5t53.5 119.5q0 77 -50 120.5t-135 43.5q-58 0 -103 -20z" />
    <glyph glyph-name="seven" unicode="7" 
d="M1034 1178.5q13 -8.5 19.5 -30.5t6.5 -64q0 -49 -9 -72l-417 -988q-19 -46 -80 -46q-26 0 -64 9q-54 13 -79.5 31.5t-25.5 46.5q0 15 7 32l363 855h-524q-24 0 -37 9.5t-19.5 35t-6.5 72.5t6.5 72.5t19.5 35.5t37 10h766q24 0 37 -8.5z" />
    <glyph glyph-name="eight" unicode="8" 
d="M827 1164q91 -45 139.5 -122.5t48.5 -170.5q0 -92 -42 -155t-118 -97q95 -35 147 -105.5t52 -178.5q0 -110 -54.5 -191t-154 -123.5t-231.5 -42.5t-231.5 42.5t-154 123.5t-54.5 191q0 108 52 178.5t147 105.5q-77 34 -118.5 96.5t-41.5 155.5t48.5 170.5t139.5 122.5
t213 45t213 -45zM500 952.5q-43 -38.5 -43 -101.5t42 -101t115 -38t115 38t42 101t-43 101.5t-114 38.5t-114 -38.5zM481 474q-47 -44 -47 -118q0 -73 47 -116.5t133 -43.5t133 43.5t47 116.5q0 74 -47 118t-133 44t-133 -44z" />
    <glyph glyph-name="nine" unicode="9" 
d="M819 1158q96 -51 161 -147q41 -61 63 -147.5t22 -188.5q0 -326 -182.5 -504t-571.5 -193q-26 -1 -40.5 25t-19.5 82q-2 17 -2 45q0 87 41 90q182 9 289.5 46.5t160.5 108.5t68 188q-54 -60 -121 -88.5t-154 -28.5q-111 0 -197.5 47.5t-134.5 132.5t-48 195
q0 112 56.5 200.5t158 138t229.5 49.5q126 0 222 -51zM458.5 941.5q-53.5 -44.5 -53.5 -119.5q0 -77 50 -120.5t135 -43.5q58 0 103 20t70 56t25 82t-22.5 85t-66 62t-101.5 23q-86 0 -139.5 -44.5z" />
    <glyph glyph-name="fraction" unicode="&#x2044;" 
d="M1062 855q27 0 56 -45q24 -36 24 -58q0 -19 -20 -31l-937 -521q-12 -5 -20 -5q-27 0 -56 45q-24 36 -24 58q0 19 20 31l937 521q12 5 20 5z" />
    <glyph glyph-name="onehalf" unicode="&#xbd;" 
d="M536 701q-10 -17 -33 -17h-471q-24 0 -33.5 16.5t-9.5 54.5q0 37 10 54t33 17h157v367l-116 -60q-13 -7 -26 -7q-30 0 -53 49q-13 26 -13 48q0 27 27 40l257 124q14 7 31 7q23 0 39 -13.5t16 -36.5v-518h152q22 0 32.5 -17t10.5 -54t-10 -54zM1142 792q0 -19 -20 -31
l-937 -521q-12 -5 -20 -5q-27 0 -56 45q-24 36 -24 58q0 19 20 31l937 521q12 5 20 5q27 0 56 -45q24 -36 24 -58zM1229 -89q9 -15 9 -56q0 -42 -9 -56.5t-31 -14.5h-495q-44 0 -44 83q0 46 23 64l273 211q48 35 69.5 62.5t21.5 58.5q0 40 -26 63t-72 23q-77 0 -187 -50
q-8 -4 -19 -4q-32 0 -51 54q-8 21 -8 41q0 32 30 49q56 26 119.5 40.5t128.5 14.5q121 0 187 -61t66 -162q0 -65 -39.5 -118t-115.5 -108l-165 -119h304q22 0 31 -15z" />
    <glyph glyph-name="onequarter" unicode="&#xbc;" 
d="M536 701q-10 -17 -33 -17h-471q-24 0 -33.5 16.5t-9.5 54.5q0 37 10 54t33 17h157v367l-116 -60q-13 -7 -26 -7q-30 0 -53 49q-13 26 -13 48q0 27 27 40l257 124q14 7 31 7q23 0 39 -13.5t16 -36.5v-518h152q22 0 32.5 -17t10.5 -54t-10 -54zM1142 742q0 -19 -20 -31
l-937 -521q-12 -5 -20 -5q-27 0 -56 45q-24 36 -24 58q0 19 20 31l937 521q12 5 20 5q27 0 56 -45q24 -36 24 -58zM1244.5 62q10.5 -17 10.5 -54q0 -38 -10.5 -54.5t-33.5 -16.5h-76v-121q0 -21 -15.5 -30.5t-58.5 -9.5q-48 0 -69.5 10t-21.5 30v121h-294q-19 0 -36.5 32.5
t-17.5 68.5q0 15 3 24.5t11 20.5l314 383q15 19 37 28t57 9q45 0 68 -13t23 -35v-376h76q23 0 33.5 -17zM970 79l5 202l-158 -202h153z" />
    <glyph glyph-name="threequarters" unicode="&#xbe;" 
d="M476.5 722.5q-76.5 -53.5 -216.5 -53.5q-62 0 -128.5 12.5t-113.5 32.5q-29 13 -29 46q0 17 9 41q10 28 23 42.5t27 14.5q4 0 10 -2q47 -19 98.5 -31t95.5 -12q124 0 124 72q0 38 -23 57.5t-67 19.5h-102q-20 0 -30.5 16.5t-10.5 54.5q0 39 10.5 55.5t30.5 16.5h86
q104 0 104 72q0 34 -28.5 53t-82.5 19q-86 0 -193 -44q-12 -4 -18 -4q-33 0 -50 57q-6 21 -6 37q0 37 33 52q114 47 246 47q129 0 198.5 -55.5t69.5 -153.5q0 -99 -102 -148q53 -19 82.5 -59.5t29.5 -97.5q0 -104 -76.5 -157.5zM1142 752q0 -19 -20 -31l-937 -521
q-12 -5 -20 -5q-27 0 -56 45q-24 36 -24 58q0 19 20 31l937 521q12 5 20 5q27 0 56 -45q24 -36 24 -58zM1244.5 62q10.5 -17 10.5 -54q0 -38 -10.5 -54.5t-33.5 -16.5h-76v-121q0 -21 -15.5 -30.5t-58.5 -9.5q-48 0 -69.5 10t-21.5 30v121h-294q-19 0 -36.5 32.5t-17.5 68.5
q0 15 3 24.5t11 20.5l314 383q15 19 37 28t57 9q45 0 68 -13t23 -35v-376h76q23 0 33.5 -17zM970 79l5 202l-158 -202h153z" />
    <glyph glyph-name="uni00B9" unicode="&#xb9;" 
d="M958 633q12 -20 12 -65t-12 -65t-40 -20h-564q-28 0 -39.5 19.5t-11.5 65.5q0 45 12 65t39 20h188v441l-139 -72q-17 -9 -31 -9q-36 0 -63 59q-16 35 -16 58q0 32 33 48l308 148q18 8 37 8q27 0 46.5 -15.5t19.5 -43.5v-622h181q28 0 40 -20z" />
    <glyph glyph-name="uni00B2" unicode="&#xb2;" 
d="M806 1300.5q68 -33.5 103 -93.5t35 -140q0 -78 -47 -141.5t-139 -129.5l-198 -143h365q26 0 37 -18t11 -67t-11 -67t-37 -18h-593q-25 0 -39 24.5t-14 75.5q0 55 28 76l327 253q56 42 82 75.5t26 70.5q0 48 -31 75.5t-86 27.5q-92 0 -224 -60q-12 -6 -23 -6q-37 0 -61 66
q-10 27 -10 49q0 40 37 58q67 32 143 49t154 17q97 0 165 -33.5z" />
    <glyph glyph-name="uni00B3" unicode="&#xb3;" 
d="M859 1268q83 -66 83 -184t-122 -177q64 -24 99 -72t35 -117q0 -125 -91.5 -189t-259.5 -64q-74 0 -153 15t-136 39q-34 14 -34 54q0 23 10 50q12 34 28 51.5t32 17.5q8 0 12 -2q55 -23 116.5 -37.5t115.5 -14.5q148 0 148 86q0 45 -27.5 68.5t-79.5 23.5h-123
q-24 0 -36 20t-12 66t12 66t36 20h104q124 0 124 86q0 41 -34 64t-99 23q-51 0 -110.5 -13.5t-120.5 -39.5q-12 -5 -21 -5q-39 0 -60 69q-7 25 -7 45q0 45 39 61q136 56 295 56q154 0 237 -66z" />
    <glyph glyph-name="uni2074" unicode="&#x2074;" 
d="M965 813q12 -20 12 -64t-12 -64t-39 -20h-90v-142q0 -25 -18.5 -36.5t-68.5 -11.5q-57 0 -82.5 12t-25.5 36v142h-347q-15 0 -30 18t-24.5 46.5t-9.5 55.5q0 17 4 29t13 24l371 453q17 22 43 32.5t67 10.5q53 0 80.5 -15t27.5 -41v-445h90q27 0 39 -20zM641 833l6 239
l-186 -239h180z" />
    <glyph glyph-name="colon.alt" 
d="M1040 919.5q39 -14.5 39 -48.5v-214q0 -34 -39 -48.5t-126 -14.5t-126 14.5t-39 48.5v214q0 34 39 48.5t126 14.5t126 -14.5zM1040 315.5q39 -14.5 39 -48.5v-214q0 -34 -39 -48.5t-126 -14.5t-126 14.5t-39 48.5v214q0 34 39 48.5t126 14.5t126 -14.5z" />
    <glyph glyph-name="comma.alt" 
d="M1075 345q9 -9 9 -24t-7 -30l-237 -537q-20 -48 -106 -48q-38 0 -59.5 14t-21.5 39q0 9 1 13l100 542q4 19 17.5 29.5t34.5 10.5h243q17 0 26 -9z" />
    <glyph glyph-name="period.alt" 
d="M1040 355.5q39 -14.5 39 -48.5v-254q0 -34 -39 -48.5t-126 -14.5t-126 14.5t-39 48.5v254q0 34 39 48.5t126 14.5t126 -14.5z" />
    <glyph glyph-name="semicolon.alt" 
d="M1040 919.5q39 -14.5 39 -48.5v-214q0 -34 -39 -48.5t-126 -14.5t-126 14.5t-39 48.5v214q0 34 39 48.5t126 14.5t126 -14.5zM1095 345q9 -9 9 -24t-7 -30l-237 -537q-20 -48 -106 -48q-38 0 -59.5 14t-21.5 39q0 9 1 13l100 542q4 19 17.5 29.5t34.5 10.5h243
q17 0 26 -9z" />
    <glyph glyph-name="ellipsis.alt1" 
d="M-466 290.5q28 47.5 75.5 75.5t104.5 28t104.5 -28t75.5 -75.5t28 -104.5t-28 -104.5t-75.5 -75.5t-104.5 -28t-104.5 28t-75.5 75.5t-28 104.5t28 104.5zM434 290.5q28 47.5 75.5 75.5t104.5 28t104.5 -28t75.5 -75.5t28 -104.5t-28 -104.5t-75.5 -75.5t-104.5 -28
t-104.5 28t-75.5 75.5t-28 104.5t28 104.5zM1334 290.5q28 47.5 75.5 75.5t104.5 28t104.5 -28t75.5 -75.5t28 -104.5t-28 -104.5t-75.5 -75.5t-104.5 -28t-104.5 28t-75.5 75.5t-28 104.5t28 104.5z" />
    <glyph glyph-name="ellipsis.alt2" horiz-adv-x="3684" 
d="M762 290.5q28 47.5 75.5 75.5t104.5 28t104.5 -28t75.5 -75.5t28 -104.5t-28 -104.5t-75.5 -75.5t-104.5 -28t-104.5 28t-75.5 75.5t-28 104.5t28 104.5zM1662 290.5q28 47.5 75.5 75.5t104.5 28t104.5 -28t75.5 -75.5t28 -104.5t-28 -104.5t-75.5 -75.5t-104.5 -28
t-104.5 28t-75.5 75.5t-28 104.5t28 104.5zM2562 290.5q28 47.5 75.5 75.5t104.5 28t104.5 -28t75.5 -75.5t28 -104.5t-28 -104.5t-75.5 -75.5t-104.5 -28t-104.5 28t-75.5 75.5t-28 104.5t28 104.5z" />
    <glyph glyph-name="ellipsis.alt3" 
d="M484 243q33 -19 52 -52t19 -71t-19 -71t-52 -52t-71 -19t-71 19t-52 52t-19 71t19 71t52 52t71 19t71 -19zM1025 243q33 -19 52 -52t19 -71t-19 -71t-52 -52t-71 -19t-71 19t-52 52t-19 71t19 71t52 52t71 19t71 -19zM1566 243q33 -19 52 -52t19 -71t-19 -71t-52 -52
t-71 -19t-71 19t-52 52t-19 71t19 71t52 52t71 19t71 -19z" />
    <glyph glyph-name="ellipsis.alt4" 
d="M-262.5 293q38.5 -23 61.5 -61.5t23 -84.5t-23 -84.5t-61.5 -61.5t-84.5 -23t-84.5 23t-61.5 61.5t-23 84.5t23 84.5t61.5 61.5t84.5 23t84.5 -23zM418.5 293q38.5 -23 61.5 -61.5t23 -84.5t-23 -84.5t-61.5 -61.5t-84.5 -23t-84.5 23t-61.5 61.5t-23 84.5t23 84.5
t61.5 61.5t84.5 23t84.5 -23zM1099.5 293q38.5 -23 61.5 -61.5t23 -84.5t-23 -84.5t-61.5 -61.5t-84.5 -23t-84.5 23t-61.5 61.5t-23 84.5t23 84.5t61.5 61.5t84.5 23t84.5 -23z" />
    <glyph glyph-name="ellipsis.alt5" horiz-adv-x="3684" 
d="M762 290.5q28 47.5 75.5 75.5t104.5 28t104.5 -28t75.5 -75.5t28 -104.5t-28 -104.5t-75.5 -75.5t-104.5 -28t-104.5 28t-75.5 75.5t-28 104.5t28 104.5zM1812 290.5q28 47.5 75.5 75.5t104.5 28t104.5 -28t75.5 -75.5t28 -104.5t-28 -104.5t-75.5 -75.5t-104.5 -28
t-104.5 28t-75.5 75.5t-28 104.5t28 104.5zM2862 290.5q28 47.5 75.5 75.5t104.5 28t104.5 -28t75.5 -75.5t28 -104.5t-28 -104.5t-75.5 -75.5t-104.5 -28t-104.5 28t-75.5 75.5t-28 104.5t28 104.5z" />
    <glyph glyph-name="asterisk" unicode="*" 
d="M1039 858q0 -44 -29 -72.5t-76 -32.5l-208 -19l158 -137q21 -19 32.5 -41.5t11.5 -45.5q0 -54 -55 -95q-38 -28 -77 -28q-32 0 -58.5 19.5t-40.5 53.5l-83 193l-83 -193q-14 -34 -40.5 -53.5t-58.5 -19.5q-39 0 -77 28q-55 41 -55 95q0 23 11.5 45.5t32.5 41.5l158 137
l-208 19q-47 4 -76 32.5t-29 72.5q0 25 8 48q14 43 41.5 65t61.5 22t66 -20l179 -108l-47 204q-4 15 -4 32q0 47 31.5 77.5t88.5 30.5t88.5 -30.5t31.5 -77.5q0 -17 -4 -32l-47 -204l179 108q32 20 66 20t61.5 -22t41.5 -65q8 -23 8 -48z" />
    <glyph glyph-name="backslash" unicode="\" 
d="M399 1356l666 -1618q4 -9 4 -20q0 -34 -45.5 -56t-112.5 -22q-64 0 -82 43l-666 1618q-4 9 -4 20q0 34 45.5 56t112.5 22q64 0 82 -43z" />
    <glyph glyph-name="periodcentered" unicode="&#xb7;" 
d="M740 755.5q39 -14.5 39 -48.5v-254q0 -34 -39 -48.5t-126 -14.5t-126 14.5t-39 48.5v254q0 34 39 48.5t126 14.5t126 -14.5z" />
    <glyph glyph-name="bullet" unicode="&#x2022;" 
d="M809 833q60 -25 60 -83v-332q0 -58 -60 -83t-195 -25t-195 25t-60 83v332q0 58 60 83t195 25t195 -25z" />
    <glyph glyph-name="colon" unicode=":" 
d="M740 919.5q39 -14.5 39 -48.5v-214q0 -34 -39 -48.5t-126 -14.5t-126 14.5t-39 48.5v214q0 34 39 48.5t126 14.5t126 -14.5zM740 315.5q39 -14.5 39 -48.5v-214q0 -34 -39 -48.5t-126 -14.5t-126 14.5t-39 48.5v214q0 34 39 48.5t126 14.5t126 -14.5z" />
    <glyph glyph-name="comma" unicode="," 
d="M775 345q9 -9 9 -24t-7 -30l-237 -537q-20 -48 -106 -48q-38 0 -59.5 14t-21.5 39q0 9 1 13l100 542q4 19 17.5 29.5t34.5 10.5h243q17 0 26 -9z" />
    <glyph glyph-name="ellipsis" unicode="&#x2026;" 
d="M309.5 275.5q29.5 -14.5 29.5 -48.5v-174q0 -34 -29.5 -48.5t-95.5 -14.5t-95.5 14.5t-29.5 48.5v174q0 34 29.5 48.5t95.5 14.5t95.5 -14.5zM709.5 275.5q29.5 -14.5 29.5 -48.5v-174q0 -34 -29.5 -48.5t-95.5 -14.5t-95.5 14.5t-29.5 48.5v174q0 34 29.5 48.5
t95.5 14.5t95.5 -14.5zM1109.5 275.5q29.5 -14.5 29.5 -48.5v-174q0 -34 -29.5 -48.5t-95.5 -14.5t-95.5 14.5t-29.5 48.5v174q0 34 29.5 48.5t95.5 14.5t95.5 -14.5z" />
    <glyph glyph-name="exclam" unicode="!" 
d="M762 1257q10 -12 8 -38l-57 -657q-5 -58 -99 -58t-99 58l-57 657q-2 26 8 38t33 12h230q23 0 33 -12zM732.5 315.5q36.5 -14.5 36.5 -48.5v-214q0 -34 -36.5 -48.5t-118.5 -14.5t-118.5 14.5t-36.5 48.5v214q0 34 36.5 48.5t118.5 14.5t118.5 -14.5z" />
    <glyph glyph-name="exclamdown" unicode="&#xa1;" 
d="M495.5 608.5q-36.5 14.5 -36.5 48.5v214q0 34 36.5 48.5t118.5 14.5t118.5 -14.5t36.5 -48.5v-214q0 -34 -36.5 -48.5t-118.5 -14.5t-118.5 14.5zM466 -333q-10 12 -8 38l57 657q5 58 99 58t99 -58l57 -657q2 -26 -8 -38t-33 -12h-230q-23 0 -33 12z" />
    <glyph glyph-name="numbersign" unicode="#" 
d="M1152 931q13 -9 19.5 -33t6.5 -71t-6.5 -71t-19.5 -32.5t-37 -8.5h-156l-61 -233h127q24 0 37 -9t19.5 -33t6.5 -71t-6.5 -71t-19.5 -32.5t-37 -8.5h-185l-64 -246q-4 -16 -25.5 -24.5t-51.5 -8.5q-45 0 -81.5 16t-36.5 42q0 6 1 9l55 212h-221l-64 -246
q-4 -16 -25.5 -24.5t-51.5 -8.5q-45 0 -81.5 16t-36.5 42q0 6 1 9l55 212h-100q-24 0 -37 8.5t-19.5 32.5t-6.5 71t6.5 71t19.5 33t37 9h159l60 233h-129q-24 0 -37 8.5t-19.5 32.5t-6.5 71t6.5 71t19.5 33t37 9h188l61 236q4 16 25.5 24.5t51.5 8.5q45 0 81.5 -16t36.5 -42
q0 -6 -1 -9l-53 -202h222l61 236q4 16 25.5 24.5t51.5 8.5q45 0 81.5 -16t36.5 -42q0 -6 -1 -9l-53 -202h98q24 0 37 -9zM756 715h-221l-61 -233h222z" />
    <glyph glyph-name="period" unicode="." 
d="M740 355.5q39 -14.5 39 -48.5v-254q0 -34 -39 -48.5t-126 -14.5t-126 14.5t-39 48.5v254q0 34 39 48.5t126 14.5t126 -14.5z" />
    <glyph glyph-name="question" unicode="?" 
d="M895.5 1175q102.5 -94 102.5 -261q0 -139 -75.5 -218.5t-231.5 -122.5l-6 -86q-2 -25 -24 -36.5t-77 -11.5t-77 11.5t-24 36.5l-12 209q-2 44 31 51l103 20q72 14 107 48.5t35 94.5q0 65 -40.5 98.5t-118.5 33.5q-99 0 -212 -46q-9 -4 -20 -4q-20 0 -37.5 19t-34.5 62
q-18 45 -18 73q0 41 38 58q67 30 144.5 47.5t151.5 17.5q193 0 295.5 -94zM695 275.5q34 -14.5 34 -48.5v-174q0 -34 -34 -48.5t-111 -14.5t-111 14.5t-34 48.5v174q0 34 34 48.5t111 14.5t111 -14.5z" />
    <glyph glyph-name="questiondown" unicode="&#xbf;" 
d="M533 648.5q-34 14.5 -34 48.5v174q0 34 34 48.5t111 14.5t111 -14.5t34 -48.5v-174q0 -34 -34 -48.5t-111 -14.5t-111 14.5zM332.5 -251q-102.5 94 -102.5 261q0 139 75.5 218.5t231.5 122.5l6 86q2 25 24 36.5t77 11.5t77 -11.5t24 -36.5l12 -209q2 -44 -31 -51
l-103 -20q-72 -14 -107 -48.5t-35 -94.5q0 -65 40.5 -98.5t118.5 -33.5q99 0 212 46q9 4 20 4q20 0 37.5 -19t34.5 -62q18 -45 18 -73q0 -41 -38 -58q-67 -30 -144.5 -47.5t-151.5 -17.5q-193 0 -295.5 94z" />
    <glyph glyph-name="quotedbl" unicode="&#x22;" 
d="M503 1230l-1 -11l-55 -480q-4 -33 -28 -50.5t-75 -17.5t-75 17.5t-28 50.5l-55 480q-6 50 41 50h234q42 0 42 -39zM1043 1230l-1 -11l-55 -480q-4 -33 -28 -50.5t-75 -17.5t-75 17.5t-28 50.5l-55 480q-6 50 41 50h234q42 0 42 -39z" />
    <glyph glyph-name="quotesingle" unicode="'" 
d="M773 1230l-1 -11l-55 -480q-4 -33 -28 -50.5t-75 -17.5t-75 17.5t-28 50.5l-55 480q-6 50 41 50h234q42 0 42 -39z" />
    <glyph glyph-name="semicolon" unicode=";" 
d="M740 919.5q39 -14.5 39 -48.5v-214q0 -34 -39 -48.5t-126 -14.5t-126 14.5t-39 48.5v214q0 34 39 48.5t126 14.5t126 -14.5zM795 345q9 -9 9 -24t-7 -30l-237 -537q-20 -48 -106 -48q-38 0 -59.5 14t-21.5 39q0 9 1 13l100 542q4 19 17.5 29.5t34.5 10.5h243q17 0 26 -9z
" />
    <glyph glyph-name="slash" unicode="/" 
d="M1023.5 1377q45.5 -22 45.5 -56q0 -11 -4 -20l-666 -1618q-18 -43 -82 -43q-67 0 -112.5 22t-45.5 56q0 11 4 20l666 1618q18 43 82 43q67 0 112.5 -22z" />
    <glyph glyph-name="underscore" unicode="_" 
d="M-25 -504.5q-7 8.5 -10 32t-3 71.5t3 72t10 32.5t20 8.5h1238q13 0 20 -8.5t10 -32.5t3 -72t-3 -71.5t-10 -32t-20 -8.5h-1238q-13 0 -20 8.5z" />
    <glyph glyph-name="braceleft" unicode="{" 
d="M984 1350.5q14 -21.5 14 -83.5q0 -46 -6 -69t-19.5 -31t-37.5 -8q-92 0 -144 -19t-74.5 -58.5t-22.5 -106.5q0 -18 1 -28l5 -97l1 -26q0 -105 -54 -173.5t-177 -103.5v-10q123 -34 178.5 -103t55.5 -171q0 -20 -1 -30l-9 -131q-1 -12 -1 -36q0 -67 23 -107t76 -59.5
t143 -19.5q24 0 37.5 -7.5t19.5 -30.5t6 -69q0 -62 -14 -84t-49 -22q-251 0 -372 88.5t-121 274.5q0 29 3 60l13 143q1 8 1 24q0 85 -59.5 131.5t-171.5 46.5q-24 0 -37 8.5t-19.5 31.5t-6.5 67t6.5 66.5t19.5 31t37 8.5q112 0 169.5 46t57.5 131q0 16 -1 25l-10 109
q-3 30 -3 58q0 181 121 268t373 87q35 0 49 -21.5z" />
    <glyph glyph-name="braceright" unicode="}" 
d="M666 1285q121 -87 121 -268q0 -28 -3 -58l-10 -109q-1 -9 -1 -25q0 -85 57.5 -131t169.5 -46q24 0 37 -8.5t19.5 -31t6.5 -66.5t-6.5 -67t-19.5 -31.5t-37 -8.5q-112 0 -171.5 -46.5t-59.5 -131.5q0 -16 1 -24l13 -143q3 -31 3 -60q0 -186 -121 -274.5t-372 -88.5
q-35 0 -49 22t-14 84q0 46 6 69t19.5 30.5t37.5 7.5q90 0 143 19.5t76 59.5t23 107q0 24 -1 36l-9 131q-1 10 -1 30q0 102 55.5 171t178.5 103v10q-123 35 -177 103.5t-54 173.5l1 26l5 97q1 10 1 28q0 67 -22.5 106.5t-74.5 58.5t-144 19q-24 0 -37.5 8t-19.5 31t-6 69
q0 62 14 83.5t49 21.5q252 0 373 -87z" />
    <glyph glyph-name="bracketleft" unicode="[" 
d="M912 -131.5q14 -23.5 14 -89.5t-14 -89t-49 -23h-510q-34 0 -48.5 14.5t-14.5 48.5v1579q0 34 14.5 48.5t48.5 14.5h510q35 0 49 -23.5t14 -89.5t-14 -89t-49 -23h-323v-1255h323q35 0 49 -23.5z" />
    <glyph glyph-name="bracketright" unicode="]" 
d="M923.5 1357.5q14.5 -14.5 14.5 -48.5v-1579q0 -34 -14.5 -48.5t-48.5 -14.5h-510q-35 0 -49 23t-14 89t14 89.5t49 23.5h323v1255h-323q-35 0 -49 23t-14 89t14 89.5t49 23.5h510q34 0 48.5 -14.5z" />
    <glyph glyph-name="parenleft" unicode="(" 
d="M799 1383q23 0 47.5 -18.5t44.5 -49.5q36 -54 36 -95q0 -27 -18 -39q-200 -125 -302 -286.5t-102 -375.5t102 -375.5t302 -286.5q18 -12 18 -39q0 -41 -36 -95q-20 -31 -44.5 -49.5t-47.5 -18.5q-14 0 -28 8q-139 79 -254.5 198t-187.5 286t-72 372t72 372t187.5 286
t254.5 198q14 8 28 8z" />
    <glyph glyph-name="parenright" unicode=")" 
d="M711.5 1177q115.5 -119 187.5 -286t72 -372t-72 -372t-187.5 -286t-254.5 -198q-14 -8 -28 -8q-23 0 -47.5 18.5t-44.5 49.5q-36 54 -36 95q0 27 18 39q200 125 302 286.5t102 375.5t-102 375.5t-302 286.5q-18 12 -18 39q0 41 36 95q20 31 44.5 49.5t47.5 18.5
q14 0 28 -8q139 -79 254.5 -198z" />
    <glyph glyph-name="hyphen.alt" 
d="M954 691q14 -28 14 -105q0 -52 -6.5 -80.5t-20 -40t-36.5 -11.5h-582q-23 0 -36.5 11.5t-20 40t-6.5 80.5q0 77 14 105t49 28h582q35 0 49 -28z" />
    <glyph glyph-name="emdash.alt1" 
d="M1632 686q13 -9 19.5 -33t6.5 -71t-6.5 -71t-19.5 -32.5t-37 -8.5h-1962q-24 0 -37 8.5t-19.5 32.5t-6.5 71t6.5 71t19.5 33t37 9h1962q24 0 37 -9z" />
    <glyph glyph-name="emdash.alt2" horiz-adv-x="2456" 
d="M2446 686q13 -9 19.5 -33t6.5 -71t-6.5 -71t-19.5 -32.5t-37 -8.5h-2362q-24 0 -37 8.5t-19.5 32.5t-6.5 71t6.5 71t19.5 33t37 9h2362q24 0 37 -9z" />
    <glyph glyph-name="emdash.alt3" horiz-adv-x="2456" 
d="M2146 686q13 -9 19.5 -33t6.5 -71t-6.5 -71t-19.5 -32.5t-37 -8.5h-1762q-24 0 -37 8.5t-19.5 32.5t-6.5 71t6.5 71t19.5 33t37 9h1762q24 0 37 -9z" />
    <glyph glyph-name="emdash.alt4" 
d="M1432 686q13 -9 19.5 -33t6.5 -71t-6.5 -71t-19.5 -32.5t-37 -8.5h-1562q-24 0 -37 8.5t-19.5 32.5t-6.5 71t6.5 71t19.5 33t37 9h1562q24 0 37 -9z" />
    <glyph glyph-name="emdash" unicode="&#x2014;" 
d="M1232 686q13 -9 19.5 -33t6.5 -71t-6.5 -71t-19.5 -32.5t-37 -8.5h-1162q-24 0 -37 8.5t-19.5 32.5t-6.5 71t6.5 71t19.5 33t37 9h1162q24 0 37 -9z" />
    <glyph glyph-name="endash" unicode="&#x2013;" 
d="M1032 686q13 -9 19.5 -33t6.5 -71t-6.5 -71t-19.5 -32.5t-37 -8.5h-762q-24 0 -37 8.5t-19.5 32.5t-6.5 71t6.5 71t19.5 33t37 9h762q24 0 37 -9z" />
    <glyph glyph-name="hyphen" unicode="-" 
d="M1032 686q13 -9 19.5 -33t6.5 -71t-6.5 -71t-19.5 -32.5t-37 -8.5h-762q-24 0 -37 8.5t-19.5 32.5t-6.5 71t6.5 71t19.5 33t37 9h762q24 0 37 -9z" />
    <glyph glyph-name="uni2011" unicode="&#x2011;" 
d="M1032 686q13 -9 19.5 -33t6.5 -71t-6.5 -71t-19.5 -32.5t-37 -8.5h-762q-24 0 -37 8.5t-19.5 32.5t-6.5 71t6.5 71t19.5 33t37 9h762q24 0 37 -9z" />
    <glyph glyph-name="uni00AD" unicode="&#xad;" horiz-adv-x="0" 
 />
    <glyph glyph-name="guillemotleft" unicode="&#xab;" 
d="M578 822q0 -20 -13 -36l-199 -250l199 -251q13 -16 13 -36q0 -42 -64 -85q-57 -39 -92 -39q-25 0 -40 19l-279 366q-9 12 -9 26q0 15 9 25l279 366q15 19 40 19q35 0 92 -39q64 -43 64 -85zM1098 822q0 -20 -13 -36l-199 -250l199 -251q13 -16 13 -36q0 -42 -64 -85
q-57 -39 -92 -39q-25 0 -40 19l-279 366q-9 12 -9 26q0 15 9 25l279 366q15 19 40 19q35 0 92 -39q64 -43 64 -85z" />
    <glyph glyph-name="guillemotright" unicode="&#xbb;" 
d="M286 946q25 0 40 -19l279 -366q9 -10 9 -25q0 -14 -9 -26l-279 -366q-15 -19 -40 -19q-35 0 -92 39q-64 43 -64 85q0 20 13 36l199 251l-199 250q-13 16 -13 36q0 42 64 85q57 39 92 39zM806 946q25 0 40 -19l279 -366q9 -10 9 -25q0 -14 -9 -26l-279 -366
q-15 -19 -40 -19q-35 0 -92 39q-64 43 -64 85q0 20 13 36l199 251l-199 250q-13 16 -13 36q0 42 64 85q57 39 92 39z" />
    <glyph glyph-name="guilsinglleft" unicode="&#x2039;" 
d="M838 822q0 -20 -13 -36l-199 -250l199 -251q13 -16 13 -36q0 -42 -64 -85q-57 -39 -92 -39q-25 0 -40 19l-279 366q-9 12 -9 26q0 15 9 25l279 366q15 19 40 19q35 0 92 -39q64 -43 64 -85z" />
    <glyph glyph-name="guilsinglright" unicode="&#x203a;" 
d="M546 946q25 0 40 -19l279 -366q9 -10 9 -25q0 -14 -9 -26l-279 -366q-15 -19 -40 -19q-35 0 -92 39q-64 43 -64 85q0 20 13 36l199 251l-199 250q-13 16 -13 36q0 42 64 85q57 39 92 39z" />
    <glyph glyph-name="quotedblbase" unicode="&#x201e;" 
d="M545 295q9 -9 9 -24t-7 -30l-207 -467q-16 -37 -46 -52.5t-80 -15.5q-43 0 -63 14t-20 46q0 11 3 26l90 472q4 19 17.5 29.5t34.5 10.5h243q17 0 26 -9zM1105 295q9 -9 9 -24t-7 -30l-207 -467q-16 -37 -46 -52.5t-80 -15.5q-43 0 -63 14t-20 46q0 11 3 26l90 472
q4 19 17.5 29.5t34.5 10.5h243q17 0 26 -9z" />
    <glyph glyph-name="quotedblleft" unicode="&#x201c;" 
d="M108 718q-9 9 -9 24t7 30l207 467q16 37 46 52.5t80 15.5q43 0 63 -14t20 -46q0 -11 -3 -26l-90 -472q-4 -19 -17.5 -29.5t-34.5 -10.5h-243q-17 0 -26 9zM668 718q-9 9 -9 24t7 30l207 467q16 37 46 52.5t80 15.5q43 0 63 -14t20 -46q0 -11 -3 -26l-90 -472
q-4 -19 -17.5 -29.5t-34.5 -10.5h-243q-17 0 -26 9z" />
    <glyph glyph-name="quotedblright" unicode="&#x201d;" 
d="M545 1260q9 -9 9 -24t-7 -30l-207 -467q-16 -37 -46 -52.5t-80 -15.5q-43 0 -63 14t-20 46q0 11 3 26l90 472q4 19 17.5 29.5t34.5 10.5h243q17 0 26 -9zM1105 1260q9 -9 9 -24t-7 -30l-207 -467q-16 -37 -46 -52.5t-80 -15.5q-43 0 -63 14t-20 46q0 11 3 26l90 472
q4 19 17.5 29.5t34.5 10.5h243q17 0 26 -9z" />
    <glyph glyph-name="quoteleft" unicode="&#x2018;" 
d="M388 718q-9 9 -9 24t7 30l207 467q16 37 46 52.5t80 15.5q43 0 63 -14t20 -46q0 -11 -3 -26l-90 -472q-4 -19 -17.5 -29.5t-34.5 -10.5h-243q-17 0 -26 9z" />
    <glyph glyph-name="quoteright" unicode="&#x2019;" 
d="M825 1260q9 -9 9 -24t-7 -30l-207 -467q-16 -37 -46 -52.5t-80 -15.5q-43 0 -63 14t-20 46q0 11 3 26l90 472q4 19 17.5 29.5t34.5 10.5h243q17 0 26 -9z" />
    <glyph glyph-name="quotesinglbase" unicode="&#x201a;" 
d="M825 295q9 -9 9 -24t-7 -30l-207 -467q-16 -37 -46 -52.5t-80 -15.5q-43 0 -63 14t-20 46q0 11 3 26l90 472q4 19 17.5 29.5t34.5 10.5h243q17 0 26 -9z" />
    <glyph glyph-name="uni00A0" unicode="&#xa0;" 
 />
    <glyph glyph-name="cent" unicode="&#xa2;" 
d="M1088 297q0 -45 -43 -69q-156 -85 -304 -104v-186q0 -35 -19 -49t-74 -14t-74 14t-19 49v187q-126 19 -220.5 85t-146 167.5t-51.5 224.5t51.5 224.5t146 167.5t220.5 85v170q0 35 19 49t74 14t74 -14t19 -49v-169q141 -20 281 -91q45 -23 45 -71q0 -29 -16 -70
q-31 -81 -78 -81q-15 0 -32 9q-106 55 -200 70v-488q105 19 217 81q18 10 33 10q45 0 79 -79q18 -43 18 -73zM442 453.5q41 -61.5 113 -87.5v472q-72 -26 -113 -87.5t-41 -148.5t41 -148.5z" />
    <glyph glyph-name="currency" unicode="&#xa4;" 
d="M1126 232q0 -15 -13.5 -35t-43.5 -50q-29 -30 -49 -43t-35 -13q-18 0 -39 21l-133 133q-91 -47 -199 -47t-199 47l-133 -133q-21 -21 -39 -21q-15 0 -35 13t-49 43q-30 30 -43.5 50t-13.5 35q0 18 21 39l131 131q-50 91 -50 200q0 110 50 202l-130 130q-21 21 -21 39
q0 15 13 35t43 49q30 30 50 43.5t35 13.5q18 0 39 -21l133 -133q89 46 198 46t198 -46l133 133q21 21 39 21q15 0 35 -13.5t50 -43.5q30 -29 43 -49t13 -35q0 -18 -21 -39l-131 -130q51 -90 51 -202q0 -109 -50 -200l131 -131q21 -21 21 -39zM449.5 505q23.5 -43 66.5 -67
t98 -24t98 24t66.5 67t23.5 97t-23.5 97t-66.5 67t-98 24t-98 -24t-66.5 -67t-23.5 -97t23.5 -97z" />
    <glyph glyph-name="dollar" unicode="$" 
d="M688 1298q19 -14 19 -49v-172q141 -17 279 -63q51 -18 51 -72q0 -22 -9 -54q-24 -84 -75 -84q-10 0 -25 5q-112 40 -221 56v-151q124 -13 193 -39q171 -63 171 -238q0 -135 -92.5 -220t-271.5 -97v-182q0 -35 -19 -49t-74 -14t-74 14t-19 49v186q-156 15 -305 66
q-51 18 -51 72q0 23 9 54q24 84 75 84q10 0 25 -5q122 -44 247 -59v161q-143 16 -222 58q-135 70 -135 230q0 88 44 153.5t124.5 103.5t188.5 43v164q0 35 19 49t74 14t74 -14zM422 789q0 -27 25 -41t74 -20v143q-99 -13 -99 -82zM707 335q56 8 80.5 28.5t24.5 52.5
q0 53 -105 64v-145z" />
    <glyph glyph-name="Euro" unicode="&#x20ac;" 
d="M1045 287q23 0 43.5 -20.5t34.5 -63.5q14 -42 14 -69q0 -52 -46 -74q-166 -82 -357 -82q-175 0 -300.5 94.5t-180.5 264.5h-110q-35 0 -49 20t-14 77q0 58 14 78t49 20h75q-2 40 -2 62q0 21 2 61h-75q-35 0 -49 20t-14 77q0 58 14 78t49 20h110q54 171 180 265t301 94
q191 0 357 -82q46 -22 46 -74q0 -27 -14 -69q-14 -43 -34.5 -63.5t-43.5 -20.5q-16 0 -30 7q-69 33 -134 49t-137 16t-125.5 -30.5t-87.5 -91.5h244q35 0 49 -20t14 -78q0 -57 -14 -77t-49 -20h-295q-2 -38 -2 -61q0 -22 2 -62h295q35 0 49 -20t14 -78q0 -57 -14 -77
t-49 -20h-243q68 -122 212 -122q72 0 137 16t134 49q14 7 30 7z" />
    <glyph glyph-name="florin" unicode="&#x192;" 
d="M1148 1259.5q13 -16.5 13 -48.5q0 -22 -8 -60q-11 -48 -29.5 -68t-45.5 -20q-7 0 -25 4q-86 23 -166 23q-130 0 -144 -166l-5 -60h236q35 0 49 -23t14 -85t-14 -84.5t-49 -22.5h-255l-49 -548q-16 -186 -116.5 -283t-274.5 -97q-115 0 -224 33q-26 8 -39 24.5t-13 48.5
q0 22 8 60q11 48 29.5 68t45.5 20q7 0 25 -4q86 -23 166 -23q130 0 144 166l47 535h-198q-35 0 -49 22.5t-14 84.5t14 85t49 23h218l6 73q16 186 116.5 283t274.5 97q115 0 224 -33q26 -8 39 -24.5z" />
    <glyph glyph-name="franc" unicode="&#x20a3;" 
d="M1024 1177q13 -10 19.5 -35.5t6.5 -72.5t-6.5 -72.5t-19.5 -35t-37 -9.5h-517v-215h434q24 0 37 -10t19.5 -35.5t6.5 -72.5t-6.5 -72.5t-19.5 -35t-37 -9.5h-434v-118h255q24 0 37 -7t19.5 -27t6.5 -59t-6.5 -58.5t-19.5 -26.5t-37 -7h-255v-136q0 -34 -14.5 -48.5
t-48.5 -14.5h-124q-34 0 -48.5 14.5t-14.5 48.5v136h-137q-24 0 -37 7t-19.5 26.5t-6.5 58.5t6.5 59t19.5 27t37 7h137v740q0 34 14.5 48.5t48.5 14.5h704q24 0 37 -10z" />
    <glyph glyph-name="sterling" unicode="&#xa3;" 
d="M992 216q13 -9 19.5 -33t6.5 -71t-6.5 -71t-19.5 -32.5t-37 -8.5h-654q-15 0 -30.5 21.5t-26 54.5t-10.5 65q0 22 6.5 36.5t20.5 26.5q65 57 95 112t30 129q0 13 -1 20h-132q-24 0 -37 8.5t-19.5 32.5t-6.5 71t6.5 71t19.5 33t37 9h69q-15 43 -23 83t-8 84q0 101 45 181
t130.5 125.5t203.5 45.5q78 0 152 -16t134 -45q38 -19 38 -62q0 -31 -17 -72q-32 -82 -73 -82q-11 0 -20 4q-108 46 -206 46q-62 0 -97.5 -36.5t-35.5 -97.5q0 -42 9.5 -75.5t29.5 -82.5h281q24 0 37 -9t19.5 -33t6.5 -71t-6.5 -71t-19.5 -32.5t-37 -8.5h-228
q-1 -66 -27 -124.5t-75 -115.5h420q24 0 37 -9z" />
    <glyph glyph-name="uni20A9" unicode="&#x20a9;" 
d="M1242 906q13 -8 19.5 -30t6.5 -65t-6.5 -64.5t-19.5 -29.5t-37 -8h-82l-71 -654q-3 -26 -13.5 -39.5t-36 -19.5t-73.5 -6q-68 0 -97.5 15t-43.5 50l-176 422l-176 -422q-14 -35 -43.5 -50t-97.5 -15q-48 0 -73.5 6t-36 19.5t-13.5 39.5l-71 654h-78q-24 0 -37 8
t-19.5 29.5t-6.5 64.5t6.5 65t19.5 30t37 8h55l-23 215q-4 34 21.5 51t90.5 17q68 0 99.5 -13.5t34.5 -45.5l22 -224h586l23 224q3 32 32 45.5t96 13.5q64 0 88.5 -16.5t20.5 -51.5l-23 -215h59q24 0 37 -8zM469 709h-125l24 -243zM889 709h-126l101 -243z" />
    <glyph glyph-name="yen" unicode="&#xa5;" 
d="M1062 483q13 -9 19.5 -33t6.5 -71t-6.5 -71t-19.5 -32.5t-37 -8.5h-286v-204q0 -34 -14.5 -48.5t-48.5 -14.5h-124q-34 0 -48.5 14.5t-14.5 48.5v204h-286q-24 0 -37 8.5t-19.5 32.5t-6.5 71t6.5 71t19.5 33t37 9h286v8l-78 125h-228q-24 0 -37 8.5t-19.5 32.5t-6.5 71
t6.5 71t19.5 33t37 9h87l-130 209q-12 18 -12 36q0 21 20.5 40t65.5 38q66 27 99 27q34 0 53 -31l250 -412l250 412q10 16 22 23.5t30 7.5q32 0 98 -27q84 -36 84 -77q0 -17 -12 -37l-130 -209h87q24 0 37 -9t19.5 -33t6.5 -71t-6.5 -71t-19.5 -32.5t-37 -8.5h-228l-78 -125
v-8h286q24 0 37 -9z" />
    <glyph glyph-name="approxequal" unicode="&#x2248;" 
d="M530 977.5q47 -17.5 113 -51.5q53 -28 90 -42.5t73 -14.5q39 0 69.5 16t62.5 50q18 19 40 19q33 0 74 -37q47 -41 47 -78q0 -17 -13 -38q-59 -87 -128.5 -131t-159.5 -44q-54 0 -102.5 18t-112.5 52q-54 28 -90 42t-71 14q-39 0 -69.5 -16t-62.5 -50q-18 -19 -40 -19
q-33 0 -74 37q-47 41 -47 78q0 17 13 38q59 87 128.5 131t159.5 44q53 0 100 -17.5zM530 517.5q47 -17.5 113 -51.5q53 -28 90 -42.5t73 -14.5q39 0 69.5 16t62.5 50q18 19 40 19q33 0 74 -37q47 -41 47 -78q0 -17 -13 -38q-59 -87 -128.5 -131t-159.5 -44q-54 0 -102.5 18
t-112.5 52q-54 28 -90 42t-71 14q-39 0 -69.5 -16t-62.5 -50q-18 -19 -40 -19q-33 0 -74 37q-47 41 -47 78q0 17 13 38q59 87 128.5 131t159.5 44q53 0 100 -17.5z" />
    <glyph glyph-name="asciitilde" unicode="~" 
d="M530 747.5q47 -17.5 113 -51.5q53 -28 90 -42.5t73 -14.5q39 0 69.5 16t62.5 50q18 19 40 19q33 0 74 -37q47 -41 47 -78q0 -17 -13 -38q-59 -87 -128.5 -131t-159.5 -44q-54 0 -102.5 18t-112.5 52q-54 28 -90 42t-71 14q-39 0 -69.5 -16t-62.5 -50q-18 -19 -40 -19
q-33 0 -74 37q-47 41 -47 78q0 17 13 38q59 87 128.5 131t159.5 44q53 0 100 -17.5z" />
    <glyph glyph-name="divide" unicode="&#xf7;" 
d="M709.5 1080.5q29.5 -14.5 29.5 -48.5v-144q0 -34 -29.5 -48.5t-95.5 -14.5t-95.5 14.5t-29.5 48.5v144q0 34 29.5 48.5t95.5 14.5t95.5 -14.5zM1032 686q13 -9 19.5 -33t6.5 -71t-6.5 -71t-19.5 -32.5t-37 -8.5h-762q-24 0 -37 8.5t-19.5 32.5t-6.5 71t6.5 71t19.5 33
t37 9h762q24 0 37 -9zM709.5 325.5q29.5 -14.5 29.5 -48.5v-144q0 -34 -29.5 -48.5t-95.5 -14.5t-95.5 14.5t-29.5 48.5v144q0 34 29.5 48.5t95.5 14.5t95.5 -14.5z" />
    <glyph glyph-name="equal" unicode="=" 
d="M1032 915q13 -9 19.5 -33t6.5 -71t-6.5 -71t-19.5 -32.5t-37 -8.5h-762q-24 0 -37 8.5t-19.5 32.5t-6.5 71t6.5 71t19.5 33t37 9h762q24 0 37 -9zM1032 457q13 -9 19.5 -33t6.5 -71t-6.5 -71t-19.5 -32.5t-37 -8.5h-762q-24 0 -37 8.5t-19.5 32.5t-6.5 71t6.5 71t19.5 33
t37 9h762q24 0 37 -9z" />
    <glyph glyph-name="greater" unicode="&#x3e;" 
d="M146 928q0 31 26 83q21 42 39 60t38 18q13 0 33 -10l780 -402q25 -13 35.5 -33t10.5 -61t-10.5 -61t-35.5 -33l-780 -402q-20 -10 -33 -10q-20 0 -38 18t-39 60q-26 52 -26 83q0 34 36 53l585 292l-585 292q-36 19 -36 53z" />
    <glyph glyph-name="greaterequal" unicode="&#x2265;" 
d="M1012 839q25 -11 35.5 -31.5t10.5 -62.5t-10.5 -62.5t-35.5 -31.5l-729 -300q-13 -6 -26 -6q-22 0 -40 22t-36 72q-17 45 -17 73q0 21 10 33t31 20l492 180l-492 180q-21 8 -31 20t-10 33q0 28 17 73q18 50 36 72t40 22q13 0 26 -6zM1032 216q13 -9 19.5 -33t6.5 -71
t-6.5 -71t-19.5 -32.5t-37 -8.5h-762q-24 0 -37 8.5t-19.5 32.5t-6.5 71t6.5 71t19.5 33t37 9h762q24 0 37 -9z" />
    <glyph glyph-name="infinity" unicode="&#x221e;" 
d="M1068.5 850.5q66.5 -40.5 104 -111t37.5 -157.5t-37.5 -157.5t-104 -111t-148.5 -40.5q-98 0 -170 45t-136 125q-65 -80 -136.5 -125t-169.5 -45q-82 0 -148.5 40.5t-104 111t-37.5 157.5t37.5 157.5t104 111t148.5 40.5q98 0 169 -45t137 -125q64 79 136 124.5t170 45.5
q82 0 148.5 -40.5zM230 664q-34 -33 -34 -82t34 -82t91 -33q54 0 97.5 29.5t88.5 85.5q-45 55 -89 85t-97 30q-57 0 -91 -33zM810 667.5q-44 -29.5 -90 -85.5q46 -56 89.5 -85.5t97.5 -29.5q57 0 91 33t34 82t-34 82t-91 33q-53 0 -97 -29.5z" />
    <glyph glyph-name="integral" unicode="&#x222b;" 
d="M1018 1493.5q88 -23.5 163 -64.5q42 -23 42 -67q0 -24 -14 -61q-31 -81 -80 -81q-13 0 -32 8q-134 62 -229 62q-129 0 -129 -166v-1154q0 -186 -91.5 -283t-265.5 -97q-85 0 -173 23.5t-162 64.5q-42 23 -42 67q0 24 14 61q31 81 80 81q13 0 32 -8q132 -62 229 -62
q129 0 129 166v1154q0 186 91.5 283t265.5 97q84 0 172 -23.5z" />
    <glyph glyph-name="less" unicode="&#x3c;" 
d="M1082 238q0 -31 -26 -83q-21 -42 -39 -60t-38 -18q-13 0 -33 10l-780 402q-25 13 -35.5 33t-10.5 61t10.5 61t35.5 33l780 402q20 10 33 10q20 0 38 -18t39 -60q26 -52 26 -83q0 -34 -36 -53l-585 -292l585 -292q36 -19 36 -53z" />
    <glyph glyph-name="lessequal" unicode="&#x2264;" 
d="M971 1145q22 0 40 -22t36 -72q17 -45 17 -73q0 -21 -10 -33t-31 -20l-492 -180l492 -180q21 -8 31 -20t10 -33q0 -28 -17 -73q-18 -50 -36 -72t-40 -22q-12 0 -26 6l-729 300q-25 11 -35.5 31.5t-10.5 62.5t10.5 62.5t35.5 31.5l729 300q14 6 26 6zM1032 216
q13 -9 19.5 -33t6.5 -71t-6.5 -71t-19.5 -32.5t-37 -8.5h-762q-24 0 -37 8.5t-19.5 32.5t-6.5 71t6.5 71t19.5 33t37 9h762q24 0 37 -9z" />
    <glyph glyph-name="logicalnot" unicode="&#xac;" 
d="M1083 830q15 -15 15 -50v-472q0 -34 -30.5 -48.5t-101.5 -14.5q-47 0 -72.5 6.5t-35.5 19.5t-10 37v312h-665q-24 0 -37 8.5t-19.5 32.5t-6.5 71t6.5 71t19.5 33t37 9h850q35 0 50 -15z" />
    <glyph glyph-name="minus" unicode="&#x2212;" 
d="M1032 686q13 -9 19.5 -33t6.5 -71t-6.5 -71t-19.5 -32.5t-37 -8.5h-762q-24 0 -37 8.5t-19.5 32.5t-6.5 71t6.5 71t19.5 33t37 9h762q24 0 37 -9z" />
    <glyph glyph-name="multiply" unicode="&#xd7;" 
d="M1014 323q0 -15 -13 -35t-43 -50t-49.5 -42.5t-35.5 -12.5q-19 0 -39 20l-220 220l-220 -220q-20 -20 -39 -20q-16 0 -35.5 12.5t-49.5 42.5t-43 50t-13 35q0 18 21 39l220 220l-220 220q-20 20 -20 39q0 16 12.5 35.5t42.5 49.5t50 43t35 13q18 0 39 -21l220 -220
l220 220q21 21 39 21q15 0 35 -13t50 -43t42.5 -49.5t12.5 -35.5q0 -19 -20 -39l-220 -220l220 -220q21 -21 21 -39z" />
    <glyph glyph-name="notequal" unicode="&#x2260;" 
d="M1032 457q13 -9 19.5 -33t6.5 -71t-6.5 -71t-19.5 -32.5t-37 -8.5h-449l-85 -159q-9 -18 -20 -26.5t-26 -8.5q-22 0 -66 23q-34 18 -48.5 33t-14.5 32q0 15 11 34l39 72h-103q-24 0 -37 8.5t-19.5 32.5t-6.5 71t6.5 71t19.5 33t37 9h213l125 233h-338q-24 0 -37 8.5
t-19.5 32.5t-6.5 71t6.5 71t19.5 33t37 9h449l85 159q9 18 20 26.5t26 8.5q22 0 66 -23q34 -19 48.5 -34t14.5 -32q0 -14 -11 -34l-38 -71h102q24 0 37 -9t19.5 -33t6.5 -71t-6.5 -71t-19.5 -32.5t-37 -8.5h-213l-125 -233h338q24 0 37 -9z" />
    <glyph glyph-name="partialdiff" unicode="&#x2202;" 
d="M851 1156q96 -53 151.5 -160.5t55.5 -264.5q0 -88 -17 -183t-48 -188q-66 -194 -182 -288.5t-285 -94.5q-115 0 -200.5 44.5t-132 128t-46.5 199.5t50 205t138 138t197 49q88 0 159 -34t118 -98q7 50 7 99q0 137 -59.5 206t-171.5 69q-59 0 -141 -22q-10 -2 -14 -2
q-39 0 -66 86q-11 38 -11 59q0 26 13.5 41.5t40.5 24.5q115 39 224 39q124 0 220 -53zM437.5 468.5q-46.5 -44.5 -46.5 -120.5q0 -64 39 -103t103 -39q83 0 136.5 44t87.5 137q-26 57 -76 91.5t-116 34.5q-81 0 -127.5 -44.5z" />
    <glyph glyph-name="percent" unicode="%" 
d="M461 1172q63 -37 100 -100t37 -137t-37 -137t-100 -100t-137 -37t-137 37t-100 100t-37 137t37 137t100 100t137 37t137 -37zM1024 1103q14 0 31.5 -11.5t42.5 -37.5q44 -45 44 -73q0 -19 -22 -41l-877 -834q-23 -21 -40 -21q-14 0 -31.5 11.5t-41.5 37.5q-45 48 -45 75
q0 17 23 40l877 834q20 20 39 20zM262.5 996.5q-25.5 -25.5 -25.5 -61.5t25.5 -61.5t61.5 -25.5t61.5 25.5t25.5 61.5t-25.5 61.5t-61.5 25.5t-61.5 -25.5zM1041 489q63 -37 100 -100t37 -137t-37 -137t-100 -100t-137 -37t-137 37t-100 100t-37 137t37 137t100 100t137 37
t137 -37zM842.5 313.5q-25.5 -25.5 -25.5 -61.5t25.5 -61.5t61.5 -25.5t61.5 25.5t25.5 61.5t-25.5 61.5t-61.5 25.5t-61.5 -25.5z" />
    <glyph glyph-name="perthousand" unicode="&#x2030;" 
d="M461 1172q63 -37 100 -100t37 -137t-37 -137t-100 -100t-137 -37t-137 37t-100 100t-37 137t37 137t100 100t137 37t137 -37zM1024 1103q14 0 31.5 -11.5t42.5 -37.5q44 -45 44 -73q0 -19 -22 -41l-877 -834q-23 -21 -40 -21q-14 0 -31.5 11.5t-41.5 37.5q-45 48 -45 75
q0 17 23 40l877 834q20 20 39 20zM262.5 996.5q-25.5 -25.5 -25.5 -61.5t25.5 -61.5t61.5 -25.5t61.5 25.5t25.5 61.5t-25.5 61.5t-61.5 25.5t-61.5 -25.5zM1402 489q63 -37 100 -100t37 -137t-37 -137t-100 -100t-137 -37q-54 0 -100 20t-81 57q-34 -37 -80 -57t-100 -20
q-74 0 -137 37t-100 100t-37 137t37 137t100 100t137 37q53 0 99.5 -20.5t80.5 -56.5q35 36 81 56.5t100 20.5q74 0 137 -37zM842.5 313.5q-25.5 -25.5 -25.5 -61.5t25.5 -61.5t61.5 -25.5t61.5 25.5t25.5 61.5t-25.5 61.5t-61.5 25.5t-61.5 -25.5zM1203.5 313.5
q-25.5 -25.5 -25.5 -61.5t25.5 -61.5t61.5 -25.5t61.5 25.5t25.5 61.5t-25.5 61.5t-61.5 25.5t-61.5 -25.5z" />
    <glyph glyph-name="plus" unicode="+" 
d="M1032 686q13 -9 19.5 -33t6.5 -71t-6.5 -71t-19.5 -32.5t-37 -8.5h-269v-269q0 -24 -8.5 -37t-32.5 -19.5t-71 -6.5t-71 6.5t-33 19.5t-9 37v269h-268q-24 0 -37 8.5t-19.5 32.5t-6.5 71t6.5 71t19.5 33t37 9h268v268q0 24 9 37t33 19.5t71 6.5t71 -6.5t32.5 -19.5
t8.5 -37v-268h269q24 0 37 -9z" />
    <glyph glyph-name="plusminus" unicode="&#xb1;" 
d="M196 628.5q-13 8.5 -19.5 32.5t-6.5 71t6.5 71t19.5 33t37 9h268v218q0 24 9 37t33 19.5t71 6.5t71 -6.5t32.5 -19.5t8.5 -37v-218h269q24 0 37 -9t19.5 -33t6.5 -71t-6.5 -71t-19.5 -32.5t-37 -8.5h-269v-219q0 -24 -8.5 -37t-32.5 -19.5t-71 -6.5t-71 6.5t-33 19.5
t-9 37v219h-268q-24 0 -37 8.5zM1032 216q13 -9 19.5 -33t6.5 -71t-6.5 -71t-19.5 -32.5t-37 -8.5h-762q-24 0 -37 8.5t-19.5 32.5t-6.5 71t6.5 71t19.5 33t37 9h762q24 0 37 -9z" />
    <glyph glyph-name="product" unicode="&#x220f;" 
d="M1053.5 1172.5q14.5 -14.5 14.5 -48.5v-1061q0 -34 -14.5 -48.5t-48.5 -14.5h-124q-34 0 -48.5 14.5t-14.5 48.5v889h-408v-889q0 -34 -14.5 -48.5t-48.5 -14.5h-124q-34 0 -48.5 14.5t-14.5 48.5v1061q0 34 14.5 48.5t48.5 14.5h782q34 0 48.5 -14.5z" />
    <glyph glyph-name="radical" unicode="&#x221a;" 
d="M1109 1159q24 -18 24 -43q0 -11 -5 -26l-367 -1047q-13 -36 -47.5 -50.5t-105.5 -14.5q-70 0 -103 15t-48 50l-177 427h-117q-24 0 -37 8.5t-19.5 32.5t-6.5 71t6.5 71t19.5 33t37 9h257q21 0 33.5 -6.5t19.5 -23.5l131 -325l276 820q7 22 23 31.5t45 9.5q32 0 83 -12
q54 -12 78 -30z" />
    <glyph glyph-name="summation" unicode="&#x2211;" 
d="M604 1796h-1v1h1v-1zM1004 1177q13 -10 19.5 -35.5t6.5 -72.5t-6.5 -72.5t-19.5 -35t-37 -9.5h-421l254 -314q11 -14 11 -30q0 -17 -11 -31l-275 -342h462q24 0 37 -10t19.5 -35.5t6.5 -72.5t-6.5 -72.5t-19.5 -35t-37 -9.5h-754q-24 0 -37 8.5t-19.5 30.5t-6.5 64
q0 27 3 44.5t12 28.5l345 431l-325 404q-9 11 -12 28.5t-3 44.5q0 42 6.5 64t19.5 30.5t37 8.5h714q24 0 37 -10zM604 -838h-1v1h1v-1z" />
    <glyph glyph-name="lozenge" unicode="&#x25ca;" 
d="M699.5 1194q31.5 -15 50.5 -50l294 -521q8 -13 8 -30t-8 -30l-294 -520q-19 -35 -50.5 -50t-85.5 -15t-85 15t-51 50l-295 520q-8 16 -8 30t8 30l295 521q20 35 51 50t85 15t85.5 -15zM428 593l186 -335l186 335l-186 336z" />
    <glyph glyph-name="bar" unicode="|" 
d="M712 1379.5q27 -14.5 27 -48.5v-1623q0 -33 -33 -48t-99 -15q-64 0 -91 14.5t-27 48.5v1623q0 33 33 48t99 15q64 0 91 -14.5z" />
    <glyph glyph-name="brokenbar" unicode="&#xa6;" 
d="M712 1379.5q27 -14.5 27 -48.5v-623q0 -33 -33 -48t-99 -15q-64 0 -91 14.5t-27 48.5v623q0 33 33 48t99 15q64 0 91 -14.5zM712 379.5q27 -14.5 27 -48.5v-623q0 -33 -33 -48t-99 -15q-64 0 -91 14.5t-27 48.5v623q0 33 33 48t99 15q64 0 91 -14.5z" />
    <glyph glyph-name="at" unicode="@" 
d="M936.5 1008q119.5 -70 185 -194.5t65.5 -282.5q0 -127 -39.5 -219.5t-109 -141t-157.5 -48.5q-69 0 -114.5 38t-62.5 101q-77 -144 -197 -144q-84 0 -135 63t-51 177q0 103 44 206.5t117 170t156 66.5q91 0 128 -115l33 69q5 9 29 9q19 0 40 -6q26 -7 41 -17.5t11 -23.5
l-72 -312q-8 -32 -8 -53q0 -36 16 -54.5t41 -18.5q38 0 68 31t47.5 88.5t17.5 133.5q0 118 -45 207t-130 138t-200 49q-133 0 -237.5 -71.5t-163 -194.5t-58.5 -270q0 -116 42.5 -204t124.5 -136.5t197 -48.5q136 0 258 40q8 3 14 3q14 0 24 -13.5t19 -46.5q7 -27 7 -44
t-6 -26t-18 -14q-53 -23 -133.5 -37.5t-162.5 -14.5q-163 0 -282.5 66.5t-183 188.5t-63.5 287q0 192 81.5 349.5t225 248.5t320.5 91q157 0 276.5 -70zM578 603.5q-35 -39.5 -58.5 -101t-23.5 -123.5q0 -47 18 -72.5t48 -25.5q34 0 68.5 44.5t57 107t22.5 108.5
q0 102 -66 102q-31 0 -66 -39.5z" />
    <glyph glyph-name="ampersand" unicode="&#x26;" 
d="M1112 99q0 -37 -67 -79q-35 -22 -59 -32t-42 -10q-25 0 -48 23l-91 95q-129 -118 -315 -118q-108 0 -189.5 43.5t-125.5 121t-44 177.5q0 96 44.5 171.5t133.5 135.5q-77 116 -77 239q0 100 44.5 177.5t130 121.5t203.5 44q79 0 152.5 -18.5t132.5 -51.5q36 -20 36 -59
q0 -29 -21 -75q-36 -80 -74 -80q-11 0 -22 6q-95 51 -196 51q-57 0 -95 -33t-38 -91q0 -48 26 -93.5t77 -98.5l186 -194q33 78 59 162q7 21 21 31t39 10q30 0 81 -15q51 -16 71.5 -33t20.5 -39q0 -10 -5 -27q-50 -156 -111 -272l140 -146q22 -24 22 -44zM644 263l-197 207
q-34 -31 -51 -65t-17 -75q0 -57 35.5 -91t95.5 -34q71 0 134 58z" />
    <glyph glyph-name="paragraph" unicode="&#xb6;" 
d="M1124 1163.5q14 -23.5 14 -89.5t-14 -89t-49 -23h-66v-1309q0 -33 -27.5 -48t-84.5 -15q-55 0 -76.5 14.5t-21.5 48.5v1309h-160v-1309q0 -33 -27.5 -48t-84.5 -15q-55 0 -76.5 14.5t-21.5 48.5v787q-99 15 -173 63.5t-114.5 126.5t-40.5 179q0 117 53 202.5t147.5 130.5
t217.5 45h556q35 0 49 -23.5z" />
    <glyph glyph-name="copyright" unicode="&#xa9;" 
d="M913.5 1128.5q133.5 -80.5 209 -221t75.5 -313.5t-75.5 -314t-209 -221.5t-300.5 -80.5t-300.5 80.5t-209 221.5t-75.5 314t75.5 313.5t209 221t300.5 80.5t300.5 -80.5zM386 996q-98 -60 -151.5 -165.5t-53.5 -236.5t53.5 -236.5t151.5 -166t227 -60.5t227 60.5
t151.5 166t53.5 236.5t-53.5 236.5t-151.5 165.5t-227 60t-227 -60zM734.5 926q48.5 -11 90.5 -32q18 -9 26.5 -21t8.5 -29q0 -21 -12 -53q-12 -31 -23.5 -45t-28.5 -14q-10 0 -19 4q-80 28 -138 28q-71 0 -112.5 -45t-41.5 -126t41.5 -126t112.5 -45q58 0 138 28q9 4 19 4
q17 0 28.5 -14t23.5 -45t12 -53q0 -17 -8.5 -29t-26.5 -21q-42 -21 -90.5 -32t-95.5 -11q-96 0 -171.5 41.5t-118 119t-42.5 183.5t42.5 183.5t118 119t171.5 41.5q47 0 95.5 -11z" />
    <glyph glyph-name="registered" unicode="&#xae;" 
d="M863.5 1267q111.5 -67 174.5 -184t63 -261t-63 -261.5t-174.5 -185t-250.5 -67.5t-250.5 67.5t-174.5 185t-63 261.5t63 261t174.5 184t250.5 67t250.5 -67zM424 1156q-82 -50 -126.5 -137.5t-44.5 -196.5q0 -110 44.5 -198t126.5 -138t189 -50t189 50t126.5 138
t44.5 198q0 109 -44.5 196.5t-126.5 137.5t-189 50t-189 -50zM762 1063.5q46 -27.5 71 -74t25 -100.5q0 -56 -26 -98.5t-75 -65.5l64 -73q17 -20 17 -36q0 -22 -37 -48q-34 -23 -53 -23q-20 0 -38 23l-99 128h-62v-90q0 -31 -14 -42.5t-57 -11.5t-57 11.5t-14 42.5v432
q0 29 12.5 41t40.5 12h196q60 0 106 -27.5zM549 953v-128h82q37 0 58 17t21 47q0 29 -19 46.5t-52 17.5h-90z" />
    <glyph glyph-name="section" unicode="&#xa7;" 
d="M934 152q16 -44 16 -102q0 -83 -34 -146t-101 -98.5t-162 -35.5h-350q-35 0 -49 21.5t-14 81.5t14 81t49 21h314q84 0 84 68q0 27 -23.5 49t-71.5 46l-241 121q-95 48 -143.5 121.5t-48.5 177.5q0 152 121 247q-16 44 -16 102q0 83 34 146t101 98.5t162 35.5h350
q35 0 49 -21.5t14 -81.5t-14 -81t-49 -21h-314q-84 0 -84 -68q0 -27 23.5 -49t71.5 -46l241 -121q95 -48 143.5 -121.5t48.5 -177.5q0 -152 -121 -247zM762 325q8 -4 14 -7.5t11 -5.5q26 29 26 70q0 45 -24 73.5t-78 54.5l-245 122q-8 4 -14 7.5t-11 5.5q-26 -29 -26 -70
q0 -45 24 -73.5t78 -54.5z" />
    <glyph glyph-name="trademark" unicode="&#x2122;" 
d="M1236 1307q19 -15 21 -50l30 -444q2 -36 -13 -50.5t-60 -14.5t-63 15t-20 50l-10 217l-91 -165q-12 -23 -31.5 -35t-40.5 -12t-40.5 12t-31.5 35l-92 165l-9 -217q-2 -35 -20 -50t-63 -15t-60 14.5t-13 50.5l30 444q2 35 21 50t64 15q33 0 49 -6.5t25 -22.5l140 -256
l140 256q9 16 25 22.5t49 6.5q45 0 64 -15zM564 1296.5q14 -15.5 14 -62.5t-13.5 -62t-49.5 -15h-121v-344q0 -36 -16 -50.5t-64 -14.5t-64 14.5t-16 50.5v344h-121q-36 0 -49.5 15t-13.5 62t14 62.5t49 15.5h402q35 0 49 -15.5z" />
    <glyph glyph-name="degree" unicode="&#xb0;" 
d="M263.5 1048q43.5 74 117.5 117.5t161 43.5t161 -43.5t117.5 -117.5t43.5 -161t-43.5 -161t-117.5 -117.5t-161 -43.5t-161 43.5t-117.5 117.5t-43.5 161t43.5 161zM463.5 808.5q32.5 -32.5 78.5 -32.5t78.5 32.5t32.5 78.5t-32.5 78.5t-78.5 32.5t-78.5 -32.5
t-32.5 -78.5t32.5 -78.5z" />
    <glyph glyph-name="asciicircum" unicode="^" 
d="M679.5 1200q23.5 -9 32.5 -28l318 -610q5 -10 5 -18q0 -23 -27 -40.5t-68 -27.5q-34 -8 -62 -8q-29 0 -49.5 7.5t-27.5 21.5l-187 390l-187 -390q-7 -14 -27.5 -21.5t-49.5 -7.5q-28 0 -62 8q-41 10 -68 27.5t-27 40.5q0 8 5 18l318 610q9 19 32 28t66 9q42 0 65.5 -9z
" />
    <glyph glyph-name="dagger" unicode="&#x2020;" 
d="M952 915q13 -9 19.5 -33t6.5 -71t-6.5 -71t-19.5 -32.5t-37 -8.5h-189v-388q0 -24 -8.5 -37t-32.5 -19.5t-71 -6.5t-71 6.5t-33 19.5t-9 37v388h-188q-24 0 -37 8.5t-19.5 32.5t-6.5 71t6.5 71t19.5 33t37 9h188v222q0 24 9 37t33 19.5t71 6.5t71 -6.5t32.5 -19.5
t8.5 -37v-222h189q24 0 37 -9z" />
    <glyph glyph-name="daggerdbl" unicode="&#x2021;" 
d="M952 589q13 -9 19.5 -33t6.5 -71t-6.5 -71t-19.5 -32.5t-37 -8.5h-189v-142q0 -24 -8.5 -37t-32.5 -19.5t-71 -6.5t-71 6.5t-33 19.5t-9 37v142h-188q-24 0 -37 8.5t-19.5 32.5t-6.5 71t6.5 71t19.5 33t37 9h188v181h-188q-24 0 -37 8.5t-19.5 32.5t-6.5 71t6.5 71
t19.5 33t37 9h188v142q0 24 9 37t33 19.5t71 6.5t71 -6.5t32.5 -19.5t8.5 -37v-142h189q24 0 37 -9t19.5 -33t6.5 -71t-6.5 -71t-19.5 -32.5t-37 -8.5h-189v-181h189q24 0 37 -9z" />
    <glyph glyph-name="minute" unicode="&#x2032;" horiz-adv-x="600" 
 />
    <glyph glyph-name="second" unicode="&#x2033;" horiz-adv-x="600" 
 />
    <glyph glyph-name="acute" unicode="&#xb4;" 
d="M809 1444q46 0 103 -75q40 -54 40 -93q0 -32 -24 -44l-407 -205q-10 -6 -23 -6q-36 0 -68 51q-22 35 -22 63t21 43l347 255q16 11 33 11z" />
    <glyph glyph-name="breve" unicode="&#x2d8;" 
d="M951 1363.5q16 -14.5 16 -35.5q0 -9 -1 -13q-24 -127 -114 -200.5t-238 -73.5t-238 73.5t-114 200.5q-1 4 -1 13q0 21 16 35.5t50 23.5q24 7 43 7q32 0 43 -27q23 -64 71.5 -93t129.5 -29t129.5 29t71.5 93q11 27 43 27q19 0 43 -7q34 -9 50 -23.5z" />
    <glyph glyph-name="caron" unicode="&#x2c7;" 
d="M572.5 1032.5q-15.5 5.5 -29.5 17.5l-265 225q-22 19 -22 42q0 25 25 60q30 43 60 43q16 0 33 -11l240 -138l240 138q17 11 33 11q30 0 60 -43q25 -35 25 -60q0 -23 -22 -42l-265 -225q-14 -12 -29.5 -17.5t-41.5 -5.5t-41.5 5.5z" />
    <glyph glyph-name="caron.alt" 
d="M576 1284q0 -9 -5 -24l-151 -387q-12 -31 -40.5 -43.5t-78.5 -12.5q-43 0 -63.5 12t-20.5 39q0 13 2 20l85 391q8 33 43 33h201q28 0 28 -28z" />
    <glyph glyph-name="acute.case" 
d="M809 1714q46 0 103 -75q40 -54 40 -93q0 -32 -24 -44l-407 -205q-10 -6 -23 -6q-36 0 -68 51q-22 35 -22 63t21 43l347 255q16 11 33 11z" />
    <glyph glyph-name="breve.case" 
d="M951 1633.5q16 -14.5 16 -35.5q0 -9 -1 -13q-24 -127 -114 -200.5t-238 -73.5t-238 73.5t-114 200.5q-1 4 -1 13q0 21 16 35.5t50 23.5q24 7 43 7q32 0 43 -27q23 -64 71.5 -93t129.5 -29t129.5 29t71.5 93q11 27 43 27q19 0 43 -7q34 -9 50 -23.5z" />
    <glyph glyph-name="caron.case" 
d="M572.5 1302.5q-15.5 5.5 -29.5 17.5l-265 225q-22 19 -22 42q0 25 25 60q30 43 60 43q16 0 33 -11l240 -138l240 138q17 11 33 11q30 0 60 -43q25 -35 25 -60q0 -23 -22 -42l-265 -225q-14 -12 -29.5 -17.5t-41.5 -5.5t-41.5 5.5z" />
    <glyph glyph-name="cedilla.case" 
d="M694 -83q107 0 161.5 -52.5t54.5 -137.5q0 -96 -71.5 -147.5t-207.5 -51.5q-147 0 -256 42q-24 10 -24 39q0 19 10 45q24 64 54 64q4 0 12 -2q82 -29 161 -29q49 0 72.5 12.5t23.5 38.5t-24 36.5t-67 10.5l-23 -1q-8 -1 -24 -1q-37 0 -37 41v204h185v-111z" />
    <glyph glyph-name="circumflex.case" 
d="M655.5 1674.5q15.5 -5.5 29.5 -17.5l265 -225q22 -19 22 -42q0 -25 -25 -60q-30 -43 -60 -43q-16 0 -33 11l-240 138l-240 -138q-17 -11 -33 -11q-30 0 -60 43q-25 35 -25 60q0 23 22 42l265 225q14 12 29.5 17.5t41.5 5.5t41.5 -5.5z" />
    <glyph glyph-name="dieresis.case" 
d="M490.5 1618.5q28.5 -14.5 28.5 -48.5v-164q0 -34 -26.5 -48.5t-96.5 -14.5t-98.5 14.5t-28.5 48.5v164q0 35 26 49t96 14q71 0 99.5 -14.5zM930.5 1618.5q28.5 -14.5 28.5 -48.5v-164q0 -34 -26.5 -48.5t-96.5 -14.5t-98.5 14.5t-28.5 48.5v164q0 35 26 49t96 14
q71 0 99.5 -14.5z" />
    <glyph glyph-name="dotaccent.case" 
d="M710.5 1618.5q28.5 -14.5 28.5 -48.5v-164q0 -34 -26.5 -48.5t-96.5 -14.5t-98.5 14.5t-28.5 48.5v164q0 35 26 49t96 14q71 0 99.5 -14.5z" />
    <glyph glyph-name="grave.case" 
d="M799 1448q21 -15 21 -43t-22 -63q-32 -51 -68 -51q-12 0 -23 6l-407 205q-24 12 -24 44q0 39 40 93q57 75 103 75q17 0 33 -11z" />
    <glyph glyph-name="hungarumlaut.case" 
d="M727 1591q0 -15 -14 -27l-265 -240q-18 -16 -47 -16q-28 0 -67 15q-26 10 -39.5 22.5t-13.5 26.5q0 10 8 20l221 266q19 22 56 22q36 0 90 -24q71 -32 71 -65zM1157 1591q0 -15 -14 -27l-265 -240q-18 -16 -47 -16q-28 0 -67 15q-26 10 -39.5 22.5t-13.5 26.5q0 10 8 20
l221 266q19 22 56 22q36 0 90 -24q71 -32 71 -65z" />
    <glyph glyph-name="macron.case" 
d="M922 1536.5q13 -8.5 19.5 -30.5t6.5 -64t-6.5 -64t-19.5 -30t-37 -8h-542q-24 0 -37 8t-19.5 30t-6.5 64t6.5 64t19.5 30.5t37 8.5h542q24 0 37 -8.5z" />
    <glyph glyph-name="ogonek.case" 
d="M592 -211q0 -67 88 -67q46 0 120 13q51 8 51 -97q0 -33 -10 -51t-30 -25q-102 -34 -216 -34q-118 0 -182 52t-64 151q0 90 60 159.5t169 137.5h207q-193 -143 -193 -239z" />
    <glyph glyph-name="ring.case" 
d="M748 1793q60 -34 94 -94t34 -134t-34 -134t-94 -94t-134 -34t-134 34t-94 94t-34 134t34 134t94 94t134 34t134 -34zM547 1632q-25 -25 -25 -67t25 -67t67 -25t67 25t25 67t-25 67t-67 25t-67 -25z" />
    <glyph glyph-name="tilde.case" 
d="M558 1629q33 -12 77 -34q36 -18 58.5 -26.5t46.5 -8.5q61 0 129 72q14 14 30 14q29 0 66 -40q36 -40 36 -76q0 -20 -10 -34q-51 -76 -115 -118.5t-133 -42.5q-40 0 -73 12t-77 34q-36 18 -58.5 26.5t-46.5 8.5q-61 0 -129 -72q-14 -14 -30 -14q-29 0 -66 40
q-36 40 -36 76q0 20 10 34q51 76 115 118.5t133 42.5q40 0 73 -12z" />
    <glyph glyph-name="cedilla" unicode="&#xb8;" 
d="M694 -83q107 0 161.5 -52.5t54.5 -137.5q0 -96 -71.5 -147.5t-207.5 -51.5q-147 0 -256 42q-24 10 -24 39q0 19 10 45q24 64 54 64q4 0 12 -2q82 -29 161 -29q49 0 72.5 12.5t23.5 38.5t-24 36.5t-67 10.5l-23 -1q-8 -1 -24 -1q-37 0 -37 41v204h185v-111z" />
    <glyph glyph-name="circumflex" unicode="&#x2c6;" 
d="M655.5 1404.5q15.5 -5.5 29.5 -17.5l265 -225q22 -19 22 -42q0 -25 -25 -60q-30 -43 -60 -43q-16 0 -33 11l-240 138l-240 -138q-17 -11 -33 -11q-30 0 -60 43q-25 35 -25 60q0 23 22 42l265 225q14 12 29.5 17.5t41.5 5.5t41.5 -5.5z" />
    <glyph glyph-name="dieresis" unicode="&#xa8;" 
d="M490.5 1348.5q28.5 -14.5 28.5 -48.5v-164q0 -34 -26.5 -48.5t-96.5 -14.5t-98.5 14.5t-28.5 48.5v164q0 35 26 49t96 14q71 0 99.5 -14.5zM930.5 1348.5q28.5 -14.5 28.5 -48.5v-164q0 -34 -26.5 -48.5t-96.5 -14.5t-98.5 14.5t-28.5 48.5v164q0 35 26 49t96 14
q71 0 99.5 -14.5z" />
    <glyph glyph-name="dotaccent" unicode="&#x2d9;" 
d="M710.5 1348.5q28.5 -14.5 28.5 -48.5v-164q0 -34 -26.5 -48.5t-96.5 -14.5t-98.5 14.5t-28.5 48.5v164q0 35 26 49t96 14q71 0 99.5 -14.5z" />
    <glyph glyph-name="grave" unicode="`" 
d="M799 1178q21 -15 21 -43t-22 -63q-32 -51 -68 -51q-12 0 -23 6l-407 205q-24 12 -24 44q0 39 40 93q57 75 103 75q17 0 33 -11z" />
    <glyph glyph-name="hungarumlaut" unicode="&#x2dd;" 
d="M727 1321q0 -15 -14 -27l-265 -240q-18 -16 -47 -16q-28 0 -67 15q-26 10 -39.5 22.5t-13.5 26.5q0 10 8 20l221 266q19 22 56 22q36 0 90 -24q71 -32 71 -65zM1157 1321q0 -15 -14 -27l-265 -240q-18 -16 -47 -16q-28 0 -67 15q-26 10 -39.5 22.5t-13.5 26.5q0 10 8 20
l221 266q19 22 56 22q36 0 90 -24q71 -32 71 -65z" />
    <glyph glyph-name="macron" unicode="&#xaf;" 
d="M922 1266.5q13 -8.5 19.5 -30.5t6.5 -64t-6.5 -64t-19.5 -30t-37 -8h-542q-24 0 -37 8t-19.5 30t-6.5 64t6.5 64t19.5 30.5t37 8.5h542q24 0 37 -8.5z" />
    <glyph glyph-name="ogonek" unicode="&#x2db;" 
d="M592 -211q0 -67 88 -67q46 0 120 13q51 8 51 -97q0 -33 -10 -51t-30 -25q-102 -34 -216 -34q-118 0 -182 52t-64 151q0 90 60 159.5t169 137.5h207q-193 -143 -193 -239z" />
    <glyph glyph-name="ring" unicode="&#x2da;" 
d="M748 1523q60 -34 94 -94t34 -134t-34 -134t-94 -94t-134 -34t-134 34t-94 94t-34 134t34 134t94 94t134 34t134 -34zM547 1362q-25 -25 -25 -67t25 -67t67 -25t67 25t25 67t-25 67t-67 25t-67 -25z" />
    <glyph glyph-name="tilde" unicode="&#x2dc;" 
d="M558 1359q33 -12 77 -34q36 -18 58.5 -26.5t46.5 -8.5q61 0 129 72q14 14 30 14q29 0 66 -40q36 -40 36 -76q0 -20 -10 -34q-51 -76 -115 -118.5t-133 -42.5q-40 0 -73 12t-77 34q-36 18 -58.5 26.5t-46.5 8.5q-61 0 -129 -72q-14 -14 -30 -14q-29 0 -66 40
q-36 40 -36 76q0 20 10 34q51 76 115 118.5t133 42.5q40 0 73 -12z" />
    <glyph glyph-name="uni0326.case" horiz-adv-x="0" 
d="M-467 -169q0 -11 -4 -20l-124 -306q-10 -25 -33.5 -37t-67.5 -12q-50 0 -73.5 12.5t-23.5 39.5q0 8 1 13l59 306q2 13 12 20t24 7h206q24 0 24 -23z" />
    <glyph glyph-name="uni0326" unicode="&#x326;" horiz-adv-x="0" 
d="M-467 -169q0 -11 -4 -20l-124 -306q-10 -25 -33.5 -37t-67.5 -12q-50 0 -73.5 12.5t-23.5 39.5q0 8 1 13l59 306q2 13 12 20t24 7h206q24 0 24 -23z" />
  </font>
</defs>
</svg>
